<svg width="48" height="41" viewBox="0 0 48 41" fill="none" xmlns="http://www.w3.org/2000/svg">
<path d="M44.7399 0.560037L1.95989 16.75C-0.400113 17.45 -0.340123 19.7498 1.44988 20.3198L12.1598 23.6401L16.2399 36.2002C16.7499 37.6002 17.1299 38.1098 18.0299 38.1098C18.9299 38.1098 19.2399 37.7899 20.1999 36.9599C21.2799 35.9399 22.9399 34.3498 25.5599 31.7998L36.7198 40.02C38.7598 41.17 40.2299 40.5898 40.7399 38.1098L47.7499 3.49021C48.5099 0.560213 46.7299 -0.339963 44.7499 0.560037H44.7399ZM13.8199 22.8701L38.1698 7.5698C39.3798 6.7398 39.7599 7.63 39.1899 8.27L18.9798 26.5L17.9599 35.6201L13.8199 22.8701Z" fill="white"/>
</svg>
