<svg width="58" height="34" viewBox="0 0 58 34" fill="none" xmlns="http://www.w3.org/2000/svg">
<path fill-rule="evenodd" clip-rule="evenodd" d="M28.3099 33.4702H31.7499C31.7499 33.4702 32.7699 33.34 33.2799 32.77C33.7899 32.26 33.7299 31.2402 33.7299 31.2402C33.7299 31.2402 33.6699 26.6498 35.7699 26.0098C37.8699 25.3698 40.5499 30.4101 43.4199 32.3901C45.5899 33.8601 47.2499 33.54 47.2499 33.54L54.8999 33.4102C54.8999 33.4102 58.9199 33.1498 56.9999 30.0298C56.8699 29.7698 55.9199 27.74 51.3299 23.46C46.5499 19 47.1899 19.7598 52.9199 12.0498C56.4299 7.3998 57.8299 4.52982 57.3799 3.31982C56.9299 2.16982 54.3799 2.49023 54.3799 2.49023L45.7699 2.5498C45.7699 2.5498 45.1299 2.49023 44.6899 2.74023C44.2399 3.00023 43.9199 3.62988 43.9199 3.62988C43.9199 3.62988 42.5799 7.25982 40.7299 10.3198C36.8999 16.8198 35.3699 17.1398 34.7399 16.7598C33.2699 15.7998 33.6599 13 33.6599 10.96C33.6599 4.64996 34.6199 2.03008 31.8099 1.33008C30.8499 1.07008 30.2199 0.950195 27.7899 0.950195C24.7299 0.950195 22.1199 0.949902 20.6499 1.6499C19.6899 2.1599 18.9299 3.18023 19.3699 3.24023C19.9399 3.30023 21.2199 3.56002 21.9199 4.52002C22.8099 5.73002 22.7499 8.41016 22.7499 8.41016C22.7499 8.41016 23.2599 15.8098 21.5399 16.7598C20.3899 17.3998 18.7999 16.1199 15.3599 10.1899C13.6399 7.18994 12.2999 3.81006 12.2999 3.81006C12.2999 3.81006 12.0399 3.1701 11.5999 2.8501C11.0299 2.4701 10.2599 2.33984 10.2599 2.33984L2.09986 2.3999C2.09986 2.3999 0.889888 2.46021 0.439888 2.97021C0.0598878 3.42021 0.37989 4.43994 0.37989 4.43994C0.37989 4.43994 6.7599 19.4202 14.0199 26.9502C20.7099 33.9002 28.2999 33.4502 28.2999 33.4502L28.3099 33.4702Z" fill="white"/>
</svg>
