<svg width="46" height="47" viewBox="0 0 46 47" fill="none" xmlns="http://www.w3.org/2000/svg">
<path fill-rule="evenodd" clip-rule="evenodd" d="M23.3701 0.5C10.9401 0.5 0.930115 10.5699 0.930115 22.9399C0.930115 27.2099 2.08011 31.16 4.18011 34.54L0.100098 46.5898L12.5302 42.6401C15.7802 44.4301 19.4801 45.4502 23.3701 45.4502C35.8001 45.4502 45.8801 35.3798 45.8801 23.0098C45.8801 10.5798 35.8101 0.5 23.3701 0.5ZM23.3701 41.6899C19.5401 41.6899 16.0401 40.5398 13.1101 38.5698L5.9101 40.8599L8.27014 33.9102C6.04014 30.8502 4.70013 27.0199 4.70013 22.9399C4.70013 12.6099 13.1201 4.25977 23.3801 4.25977C33.6401 4.25977 42.0601 12.6799 42.0601 22.9399C42.1201 33.2699 33.7101 41.6899 23.3801 41.6899H23.3701ZM33.9501 28.0498C33.3801 27.7298 30.6301 26.2598 30.1201 26.0098C29.6101 25.8198 29.2301 25.69 28.8401 26.27C28.4501 26.85 27.3101 28.0599 26.9301 28.4399C26.6101 28.8199 26.2301 28.8198 25.6501 28.5698C25.0801 28.2498 23.2901 27.6098 21.1201 25.5698C19.4601 23.9798 18.3801 22.0602 18.0601 21.4902C17.7401 20.9202 18.0601 20.5998 18.3801 20.3398C18.6401 20.0798 18.9501 19.6999 19.2701 19.3799C19.5901 19.0599 19.6501 18.8099 19.9101 18.4199C20.1001 18.0399 20.0401 17.7199 19.9101 17.3999C19.7801 17.0799 18.7601 14.2101 18.3201 13.0601C17.8701 11.9101 17.4301 12.04 17.0401 12.04C16.7201 12.04 16.3401 11.98 15.9601 11.98C15.5801 11.98 14.9401 12.1101 14.4301 12.6201C13.8601 13.1901 12.3301 14.5298 12.2601 17.3398C12.1301 20.1498 14.1101 22.9501 14.3601 23.3301C14.6201 23.7101 18.0601 29.8299 23.8601 32.3799C29.6001 34.8699 29.6601 34.1001 30.6801 34.1001C31.7601 34.0401 34.1201 32.8198 34.6301 31.5498C35.1401 30.2098 35.2001 29.0601 35.0801 28.8101C34.8201 28.5501 34.4401 28.36 33.9301 28.04L33.9501 28.0498Z" fill="white"/>
</svg>
