<?xml version="1.0" encoding="UTF-8"?>
<svg id="_Слой_2" data-name="Слой 2" xmlns="http://www.w3.org/2000/svg" viewBox="0 0 483.44 1406.58">
  <defs>
    <style>
      .cls-1 {
        letter-spacing: .1em;
      }

      .cls-1, .cls-2, .cls-3, .cls-4, .cls-5, .cls-6, .cls-7, .cls-8 {
        font-family: MyriadPro-Regular, 'Myriad Pro';
      }

      .cls-2 {
        letter-spacing: .08em;
      }

      .cls-3, .cls-9 {
        letter-spacing: .1em;
      }

      .cls-10, .cls-11 {
        isolation: isolate;
      }

      .cls-12 {
        stroke-width: 5px;
      }

      .cls-12, .cls-13 {
        fill: none;
        stroke: #fff;
        stroke-miterlimit: 10;
      }

      .cls-9 {
        font-family: InkFree, 'Ink Free';
      }

      .cls-13 {
        stroke-width: 2px;
      }

      .cls-11 {
        fill: #fff;
        font-size: 60px;
      }

      .cls-4 {
        letter-spacing: .11em;
      }

      .cls-5 {
        letter-spacing: .1em;
      }

      .cls-6 {
        letter-spacing: .09em;
      }

      .cls-7 {
        letter-spacing: .09em;
      }

      .cls-8 {
        letter-spacing: .11em;
      }
    </style>
  </defs>
  <g id="_Слой_1-2" data-name="Слой 1">
    <g>
      <g>
        <line class="cls-12" x1="475.67" y1="48.07" x2="475.67" y2="1387.47"/>
        <line class="cls-12" x1="407.86" y1="39.18" x2="407.86" y2="1378.58"/>
        <line class="cls-12" x1="340.05" y1="39.18" x2="340.05" y2="1378.58"/>
        <line class="cls-12" x1="272.92" y1="39.18" x2="272.92" y2="1378.58"/>
        <line class="cls-12" x1="205.11" y1="39.18" x2="205.11" y2="1378.58"/>
        <line class="cls-12" x1="137.44" y1="67.18" x2="137.44" y2="1406.58"/>
        <line class="cls-12" x1="69.63" y1="67.18" x2="69.63" y2="1406.58"/>
        <line class="cls-12" x1="2.5" y1="67.18" x2="2.5" y2="1406.58"/>
      </g>
      <g class="cls-10">
        <text class="cls-11" transform="translate(463.76 1337.67) rotate(-90)"><tspan class="cls-4" x="0" y="0">О</tspan><tspan class="cls-6" x="48.12" y="0">т</tspan><tspan class="cls-3" x="78.36" y="0">крыв</tspan><tspan class="cls-8" x="235.14" y="0">а</tspan><tspan class="cls-3" x="270.48" y="0">я</tspan><tspan class="cls-9" x="306.24" y="0"> </tspan><tspan class="cls-2" x="329.45" y="0">г</tspan><tspan class="cls-3" x="357.35" y="0">оризо</tspan><tspan class="cls-5" x="546.47" y="0">н</tspan><tspan class="cls-7" x="585.05" y="0">т</tspan><tspan class="cls-1" x="615.29" y="0">ы</tspan></text>
      </g>
      <path class="cls-13" d="M150.84,691.07c.13,6.57-4.12,11.44-8.67,11.78-3.39.25-7.08-2-8-4.89-1.39-4.38,3.31-11.23,12.89-15.11-2.17.74-10.95,3.5-17.33-1.11-.37-.27-5.38-3.96-4.44-7.11.66-2.22,3.94-3,5.33-3.33,6.64-1.58,12.78,2.04,15.33,3.78-4.91-6.04-5.81-11.47-6-14.22-.07-1.08-.53-7.73,2-8.67,2.61-.96,6.73,4.79,7.11,5.33,2.86,4.07,3.43,8.33,3.56,10.67,1.54-6.79,4.93-10.43,6.67-12,1.71-1.54,4.69-4.24,7.11-3.33,2.66,1,3.28,5.88,2.67,9.11-.83,4.4-4.16,6.89-5.11,7.56,1.34-1.19,5.02-4.12,10.22-4.22,2.68-.05,7.73.61,8.44,3.11.79,2.76-4.09,6.3-6.44,8-3.55,2.57-7.01,3.81-9.33,4.44,2.32.71,7.14,2.6,10,7.33.72,1.2,2.93,4.85,1.56,6.89-1.62,2.4-7.28,1.17-10.22,0-4.38-1.74-6.89-4.99-8-6.67,1.19,3.57,2.46,9.53,0,15.33-.58,1.37-2.36,5.57-4.89,5.56-2.29-.02-3.91-3.5-4.44-4.67-2.45-5.29-.96-10.85,0-13.56h-.02Z"/>
      <path class="cls-13" d="M53.56,1191.64c.13,6.57-4.12,11.44-8.67,11.78-3.39.25-7.08-2-8-4.89-1.39-4.38,3.31-11.23,12.89-15.11-2.17.74-10.95,3.5-17.33-1.11-.37-.27-5.38-3.96-4.44-7.11.66-2.22,3.94-3,5.33-3.33,6.64-1.58,12.78,2.04,15.33,3.78-4.91-6.04-5.81-11.47-6-14.22-.07-1.08-.53-7.73,2-8.67,2.61-.96,6.73,4.79,7.11,5.33,2.86,4.07,3.43,8.33,3.56,10.67,1.54-6.79,4.93-10.43,6.67-12,1.71-1.54,4.69-4.24,7.11-3.33,2.66,1,3.28,5.88,2.67,9.11-.83,4.4-4.16,6.89-5.11,7.56,1.34-1.19,5.02-4.12,10.22-4.22,2.68-.05,7.73.61,8.44,3.11.79,2.76-4.09,6.3-6.44,8-3.55,2.57-7.01,3.81-9.33,4.44,2.32.71,7.14,2.6,10,7.33.72,1.2,2.93,4.85,1.56,6.89-1.62,2.4-7.28,1.17-10.22,0-4.38-1.74-6.89-4.99-8-6.67,1.19,3.57,2.46,9.53,0,15.33-.58,1.37-2.36,5.57-4.89,5.56-2.29-.02-3.91-3.5-4.44-4.67-2.45-5.29-.96-10.85,0-13.56h-.02Z"/>
      <path class="cls-13" d="M392.69,256.01c.22,10.81-6.78,18.84-14.27,19.39-5.57.41-11.67-3.29-13.17-8.05-2.28-7.22,5.45-18.5,21.22-24.88-3.57,1.22-18.02,5.76-28.54-1.83-.61-.44-8.86-6.53-7.32-11.71,1.09-3.66,6.48-4.94,8.78-5.49,10.93-2.6,21.04,3.36,25.25,6.22-8.09-9.95-9.57-18.89-9.88-23.42-.12-1.77-.87-12.73,3.29-14.27,4.3-1.59,11.08,7.88,11.71,8.78,4.71,6.69,5.65,13.71,5.85,17.56,2.53-11.19,8.12-17.18,10.98-19.76,2.81-2.54,7.73-6.99,11.71-5.49,4.39,1.65,5.4,9.67,4.39,15-1.37,7.25-6.85,11.35-8.42,12.44,2.21-1.96,8.27-6.78,16.83-6.95,4.42-.09,12.72,1,13.91,5.12,1.3,4.55-6.74,10.37-10.61,13.17-5.84,4.23-11.54,6.27-15.37,7.32,3.82,1.18,11.76,4.28,16.47,12.08,1.19,1.97,4.83,7.99,2.56,11.34-2.67,3.96-11.99,1.92-16.83,0-7.21-2.86-11.34-8.21-13.17-10.98,1.96,5.88,4.06,15.69,0,25.25-.96,2.26-3.89,9.18-8.05,9.15-3.78-.03-6.43-5.77-7.32-7.68-4.03-8.71-1.59-17.87,0-22.32h0Z"/>
      <path class="cls-13" d="M83.46,113.79c.38,18.99-11.9,33.09-25.07,34.07-9.79.73-20.49-5.77-23.14-14.14-4.01-12.68,9.57-32.49,37.28-43.71-6.27,2.15-31.66,10.12-50.13-3.21-1.08-.78-15.57-11.46-12.86-20.57,1.92-6.42,11.38-8.68,15.43-9.64,19.19-4.57,36.97,5.9,44.35,10.93-14.21-17.48-16.81-33.17-17.35-41.14-.21-3.11-1.53-22.37,5.78-25.07,7.55-2.79,19.45,13.84,20.57,15.43,8.28,11.76,9.93,24.08,10.28,30.85,4.44-19.65,14.27-30.17,19.28-34.71,4.93-4.46,13.57-12.28,20.57-9.64,7.7,2.9,9.49,16.99,7.71,26.35-2.42,12.73-12.03,19.93-14.78,21.85,3.88-3.44,14.52-11.91,29.57-12.21,7.76-.15,22.35,1.75,24.42,9,2.29,7.98-11.83,18.21-18.64,23.14-10.26,7.43-20.27,11.02-27,12.86,6.72,2.07,20.65,7.52,28.92,21.21,2.09,3.46,8.48,14.03,4.5,19.93-4.69,6.95-21.07,3.38-29.57,0-12.66-5.03-19.92-14.43-23.14-19.28,3.45,10.33,7.13,27.55,0,44.35-1.68,3.96-6.84,16.12-14.14,16.07-6.63-.04-11.3-10.14-12.86-13.5-7.08-15.3-2.78-31.39,0-39.21h.02Z"/>
      <path class="cls-13" d="M96.11,462.33c-7.77,6.78-2.35,16.48-9.89,24.11-5.86,5.92-14.62,5.61-16.07,5.56-8.24-.29-13.77-4.94-15.45-6.49-4.87-4.49-3.2-6.83-8.04-11.43-5.78-5.51-9.38-3.32-14.53-8.65-1.17-1.21-5.82-6.33-5.87-13.91,0-1.04.04-7.2,4.33-12.36,4.05-4.87,7.28-3.31,10.2-7.42,3.93-5.52-.49-10.34,2.78-16.38,2.91-5.37,10.12-8.45,16.07-8.34,9,.16,10.2,7.51,23.18,11.13,7.73,2.15,8.64-.08,14.53,2.47,2.16.94,13.76,6.33,15.45,18.23.88,6.19-1.05,13.18-5.56,17.62-4.29,4.22-6.88,2.17-11.13,5.87h0Z"/>
      <path class="cls-13" d="M240.99,1263.88c-10.18,8.88-3.08,21.6-12.96,31.6-7.68,7.76-19.16,7.36-21.06,7.29-10.79-.38-18.05-6.48-20.25-8.51-6.38-5.89-4.2-8.95-10.53-14.99-7.58-7.22-12.29-4.35-19.04-11.34-1.53-1.59-7.62-8.3-7.7-18.23-.01-1.36.05-9.44,5.67-16.2,5.31-6.38,9.54-4.34,13.37-9.72,5.15-7.24-.64-13.55,3.65-21.47,3.81-7.04,13.26-11.08,21.06-10.94,11.79.21,13.37,9.85,30.38,14.58,10.13,2.82,11.33-.11,19.04,3.24,2.83,1.23,18.03,8.29,20.25,23.9,1.16,8.12-1.38,17.27-7.29,23.09-5.62,5.53-9.02,2.84-14.58,7.7h-.01Z"/>
      <path class="cls-13" d="M113.22,766.78c-2.84,2.48-.86,6.03-3.62,8.82-2.14,2.17-5.35,2.05-5.88,2.04-3.01-.11-5.04-1.81-5.65-2.37-1.78-1.64-1.17-2.5-2.94-4.18-2.12-2.02-3.43-1.21-5.31-3.17-.43-.44-2.13-2.32-2.15-5.09,0-.38.01-2.64,1.58-4.52,1.48-1.78,2.66-1.21,3.73-2.71,1.44-2.02-.18-3.78,1.02-5.99,1.06-1.97,3.7-3.09,5.88-3.05,3.29.06,3.73,2.75,8.48,4.07,2.83.79,3.16-.03,5.31.9.79.34,5.03,2.32,5.65,6.67.32,2.27-.38,4.82-2.04,6.45-1.57,1.54-2.52.79-4.07,2.15v-.02Z"/>
      <path class="cls-13" d="M107.42,240.68c1.12,1.78,2.47,3.94,2.57,6.66.13,3.45-1.91,3.69-2.83,8.15-.78,3.76.52,4.35-.37,9.33-.77,4.3-2.01,5.37-2.67,5.8-.13.09-2.24,1.42-4.26.47-1.7-.81-2.41-2.81-2.38-4.27.03-1.69,1.05-2.12.73-3.08-.56-1.67-3.79-.83-5.06-2.75-1.24-1.87.93-4.07-.34-5.79-1.21-1.65-3.79-.46-4.89-2.08-1.08-1.61,1.03-3.41.07-5.45-1.07-2.29-4.38-1.44-5.47-3.72-.95-1.99,1.23-3.36.4-5.86-.85-2.58-3.62-2.47-4.11-4.88-.34-1.67.6-3.7,2-4.35,1.21-.56,2.43.07,5.42,1.52,4.96,2.41,7.43,3.62,8.09,3.83,4.67,1.48,6.03-.04,9.02,1.87,1.96,1.25,3.03,2.96,4.06,4.6h.02Z"/>
      <path class="cls-13" d="M193.41,785.49c3.23-2.89,7.16-6.39,12.64-7.54,6.96-1.45,8.17,2.61,17.53,2.93,7.91.28,8.65-2.57,19.08-2.49,9.01.07,11.6,2.22,12.71,3.42.22.24,3.67,4.06,2.43,8.49-1.05,3.74-4.87,5.87-7.84,6.31-3.45.52-4.68-1.4-6.51-.41-3.19,1.73-.36,8-3.82,11.23-3.38,3.16-8.58-.48-11.64,2.69-2.93,3.03.38,7.87-2.54,10.65-2.89,2.76-7.28-.91-11.1,1.75-4.28,2.97-1.41,9.39-5.66,12.39-3.71,2.63-7.25-1.34-12.05,1.21-4.95,2.63-3.77,8.22-8.5,10.04-3.28,1.27-7.73.07-9.53-2.56-1.55-2.27-.71-4.96,1.22-11.55,3.19-10.91,4.78-16.36,4.97-17.76,1.38-9.99-2.17-12.23.67-18.96,1.86-4.41,4.96-7.18,7.94-9.84h0Z"/>
      <path class="cls-13" d="M334.85,162.46c1.2-1.07,2.65-2.37,4.68-2.79,2.58-.54,3.03.97,6.49,1.09,2.93.1,3.2-.95,7.07-.92,3.34.03,4.3.82,4.71,1.27.08.09,1.36,1.5.9,3.14-.39,1.39-1.8,2.17-2.9,2.34-1.28.19-1.73-.52-2.41-.15-1.18.64-.13,2.96-1.42,4.16-1.25,1.17-3.18-.18-4.31,1-1.08,1.12.14,2.91-.94,3.94-1.07,1.02-2.7-.34-4.11.65-1.59,1.1-.52,3.48-2.09,4.59-1.38.97-2.68-.49-4.46.45-1.84.97-1.39,3.04-3.15,3.72-1.22.47-2.86.03-3.53-.95-.57-.84-.26-1.84.45-4.28,1.18-4.04,1.77-6.06,1.84-6.58.51-3.7-.8-4.53.25-7.02.69-1.63,1.84-2.66,2.94-3.65h0Z"/>
      <path class="cls-13" d="M117,1143.96c1.29-2.64,3.09-6.69,4.61-11.82,2.65-8.9,7.11-23.92.29-37.77-1.62-3.29-5.19-9.17-12.97-14.42,2.26,7.12,4.41,15.97,5.48,26.24.74,7.13.83,13.64.58,19.32-2.06-4.2-4.44-8.65-7.21-13.26-2.11-3.51-4.24-6.78-6.34-9.8.14-.94,1.74-13.08-7.5-21.34-7.5-6.7-16.64-5.92-18.16-5.77,3.32,2.32,7.46,5.68,11.53,10.38,3.71,4.28,6.29,8.44,8.07,11.82-6-3.32-12.64-6.64-19.89-9.8-4.46-1.94-8.8-3.66-12.97-5.19.8-.62,3.27-2.72,4.04-6.34.86-4.06-.83-8.15-3.46-10.38-2.55-2.16-3.85-.76-8.65-2.88-5.58-2.47-6.05-5.35-9.8-5.48-2.53-.08-5.08,1.13-6.63,2.88-2.26,2.55-.78,4.42-2.59,8.65-2.23,5.19-5.62,5.03-6.34,9.23-.44,2.58.28,5.85,2.31,7.78,1.97,1.88,3.56.97,6.63,3.17,2.63,1.88,2.13,3.02,4.32,4.61,2.61,1.89,6.98,2.95,10.96,1.15,4.48-2.02,5.85-6.5,6.05-7.21,10.94,2.86,19.04,7.15,24.22,10.38,7.67,4.79,20.38,12.73,25.66,27.68.96,2.72,1.46,5.07,1.73,6.63v19.89c.87.13,1.84.24,2.88.29,1.05.05,2.03.04,2.92,0,.08-2.88.17-5.77.25-8.65h-.02Z"/>
      <path class="cls-13" d="M72.87,561.71c4.71,2.03,11.9,4.82,20.95,7.04,15.71,3.87,42.2,10.38,65.73-2.64,5.59-3.1,15.52-9.79,24-23.77-12.2,4.53-27.41,9-45.19,11.71-12.35,1.88-23.65,2.57-33.56,2.61,7.14-3.92,14.68-8.44,22.47-13.64,5.94-3.96,11.44-7.94,16.53-11.85,1.64.17,22.9,1.95,36.49-14.81,11.03-13.6,8.92-29.44,8.52-32.08-3.75,5.97-9.26,13.45-17.1,20.92-7.14,6.81-14.16,11.65-19.89,15.03,5.28-10.72,10.51-22.53,15.4-35.42,3.01-7.92,5.64-15.61,7.95-23,1.15,1.33,5.01,5.46,11.37,6.49,7.14,1.16,14.11-2.12,17.77-6.88,3.55-4.62,1-6.76,4.3-15.29,3.84-9.92,8.81-10.97,8.71-17.51-.06-4.4-2.39-8.74-5.57-11.3-4.63-3.72-7.76-.98-15.26-3.8-9.22-3.45-9.21-9.36-16.58-10.27-4.53-.56-10.15.97-13.35,4.66-3.11,3.58-1.4,6.28-4.97,11.8-3.05,4.72-5.08,3.95-7.67,7.91-3.07,4.69-4.55,12.39-1.1,19.15,3.89,7.63,11.79,9.64,13.04,9.93-4.06,19.27-10.85,33.72-16.04,42.99-7.69,13.73-20.45,36.52-46.02,46.94-4.66,1.9-8.69,2.96-11.39,3.56-11.54.55-23.07,1.1-34.61,1.65-.16,1.53-.26,3.22-.26,5.04s.09,3.54.24,5.08c5.02-.09,10.04-.19,15.07-.28l.02.03Z"/>
    </g>
  </g>
</svg>