<?xml version="1.0" encoding="UTF-8"?>
<svg id="_Слой_2" data-name="Слой 2" xmlns="http://www.w3.org/2000/svg" viewBox="0 0 148.03 469.08">
  <defs>
    <style>
      .cls-1 {
        stroke-miterlimit: 10;
      }

      .cls-1, .cls-2 {
        fill: none;
        stroke: #fff;
        stroke-width: .75px;
      }

      .cls-2 {
        stroke-linejoin: round;
      }
    </style>
  </defs>
  <g id="_Слой_2-2" data-name="Слой 2">
    <g>
      <path class="cls-1" d="M46.42,221.83c.04,2.11-1.32,3.67-2.78,3.78-1.09.08-2.27-.64-2.57-1.57-.45-1.41,1.06-3.61,4.14-4.85-.7.24-3.51,1.12-5.56-.36-.12-.09-1.73-1.27-1.43-2.28.21-.71,1.26-.96,1.71-1.07,2.13-.51,4.1.66,4.92,1.21-1.58-1.94-1.87-3.68-1.93-4.56-.02-.35-.17-2.48.64-2.78.84-.31,2.16,1.54,2.28,1.71.92,1.3,1.1,2.67,1.14,3.42.49-2.18,1.58-3.35,2.14-3.85.55-.5,1.51-1.36,2.28-1.07.85.32,1.05,1.89.86,2.92-.27,1.41-1.33,2.21-1.64,2.42.43-.38,1.61-1.32,3.28-1.36.86-.02,2.48.19,2.71,1,.25.89-1.31,2.02-2.07,2.57-1.14.82-2.25,1.22-3,1.43.75.23,2.29.83,3.21,2.35.23.38.94,1.56.5,2.21-.52.77-2.34.37-3.28,0-1.4-.56-2.21-1.6-2.57-2.14.38,1.15.79,3.06,0,4.92-.19.44-.76,1.79-1.57,1.78-.74,0-1.25-1.12-1.43-1.5-.79-1.7-.31-3.48,0-4.35Z"/>
      <path class="cls-2" d="M30.24,389.18c.04,2.11-1.32,3.67-2.78,3.78-1.09.08-2.27-.64-2.57-1.57-.45-1.41,1.06-3.61,4.14-4.85-.7.24-3.51,1.12-5.56-.36-.12-.09-1.73-1.27-1.43-2.28.21-.71,1.26-.96,1.71-1.07,2.13-.51,4.1.66,4.92,1.21-1.58-1.94-1.87-3.68-1.93-4.56-.02-.35-.17-2.48.64-2.78.84-.31,2.16,1.54,2.28,1.71.92,1.3,1.1,2.67,1.14,3.42.49-2.18,1.58-3.35,2.14-3.85.55-.5,1.51-1.36,2.28-1.07.85.32,1.05,1.89.86,2.92-.27,1.41-1.33,2.21-1.64,2.42.43-.38,1.61-1.32,3.28-1.36.86-.02,2.48.19,2.71,1,.25.89-1.31,2.02-2.07,2.57-1.14.82-2.25,1.22-3,1.43.75.23,2.29.83,3.21,2.35.23.38.94,1.56.5,2.21-.52.77-2.34.37-3.28,0-1.4-.56-2.21-1.6-2.57-2.14.38,1.15.79,3.06,0,4.92-.19.44-.76,1.79-1.57,1.78-.74,0-1.25-1.12-1.43-1.5-.79-1.7-.31-3.48,0-4.35Z"/>
      <path class="cls-1" d="M130.81,112.45c.07,3.47-2.18,6.05-4.58,6.22-1.79.13-3.74-1.05-4.23-2.58-.73-2.32,1.75-5.94,6.81-7.99-1.15.39-5.78,1.85-9.16-.59-.2-.14-2.84-2.09-2.35-3.76.35-1.17,2.08-1.59,2.82-1.76,3.51-.84,6.75,1.08,8.1,2-2.6-3.19-3.07-6.06-3.17-7.52-.04-.57-.28-4.09,1.06-4.58,1.38-.51,3.55,2.53,3.76,2.82,1.51,2.15,1.81,4.4,1.88,5.64.81-3.59,2.61-5.51,3.52-6.34.9-.82,2.48-2.24,3.76-1.76,1.41.53,1.73,3.1,1.41,4.81-.44,2.33-2.2,3.64-2.7,3.99.71-.63,2.65-2.18,5.4-2.23,1.42-.03,4.08.32,4.46,1.64.42,1.46-2.16,3.33-3.41,4.23-1.87,1.36-3.7,2.01-4.93,2.35,1.23.38,3.77,1.37,5.28,3.88.38.63,1.55,2.56.82,3.64-.86,1.27-3.85.62-5.4,0-2.31-.92-3.64-2.64-4.23-3.52.63,1.89,1.3,5.03,0,8.1-.31.72-1.25,2.94-2.58,2.94-1.21,0-2.06-1.85-2.35-2.47-1.29-2.8-.51-5.74,0-7.16Z"/>
      <path class="cls-1" d="M24.79,36.57c.12,6.1-3.82,10.62-8.04,10.93-3.14.23-6.58-1.85-7.43-4.54-1.29-4.07,3.07-10.43,11.96-14.03-2.01.69-10.16,3.25-16.09-1.03-.35-.25-5-3.68-4.13-6.6.61-2.06,3.65-2.78,4.95-3.09,6.16-1.47,11.86,1.89,14.23,3.51-4.56-5.61-5.39-10.65-5.57-13.2-.07-1-.49-7.18,1.86-8.04,2.42-.89,6.24,4.44,6.6,4.95,2.66,3.77,3.19,7.73,3.3,9.9,1.43-6.31,4.58-9.68,6.19-11.14,1.58-1.43,4.36-3.94,6.6-3.09,2.47.93,3.05,5.45,2.48,8.46-.78,4.08-3.86,6.4-4.74,7.01,1.25-1.11,4.66-3.82,9.49-3.92,2.49-.05,7.17.56,7.84,2.89.73,2.56-3.8,5.84-5.98,7.43-3.29,2.38-6.5,3.54-8.66,4.13,2.16.66,6.63,2.41,9.28,6.81.67,1.11,2.72,4.5,1.44,6.39-1.51,2.23-6.76,1.08-9.49,0-4.06-1.61-6.39-4.63-7.43-6.19,1.11,3.31,2.29,8.84,0,14.23-.54,1.27-2.19,5.17-4.54,5.16-2.13-.01-3.63-3.25-4.13-4.33-2.27-4.91-.89-10.07,0-12.58Z"/>
      <path class="cls-1" d="M26,154.15c-2.49,2.17-.75,5.29-3.17,7.74-1.88,1.9-4.69,1.8-5.16,1.79-2.64-.09-4.42-1.59-4.96-2.08-1.56-1.44-1.03-2.19-2.58-3.67-1.86-1.77-3.01-1.07-4.66-2.78-.38-.39-1.87-2.03-1.88-4.46,0-.33.01-2.31,1.39-3.97,1.3-1.56,2.34-1.06,3.27-2.38,1.26-1.77-.16-3.32.89-5.26.93-1.72,3.25-2.71,5.16-2.68,2.89.05,3.27,2.41,7.44,3.57,2.48.69,2.77-.03,4.66.79.69.3,4.41,2.03,4.96,5.85.28,1.99-.34,4.23-1.79,5.65-1.38,1.35-2.21.7-3.57,1.88Z"/>
      <path class="cls-1" d="M29.75,456.22c-3.27,2.85-.99,6.93-4.16,10.14-2.46,2.49-6.15,2.36-6.76,2.34-3.46-.12-5.79-2.08-6.5-2.73-2.05-1.89-1.35-2.87-3.38-4.81-2.43-2.32-3.94-1.4-6.11-3.64-.49-.51-2.45-2.66-2.47-5.85,0-.44.01-3.03,1.82-5.2,1.7-2.05,3.06-1.39,4.29-3.12,1.65-2.32-.21-4.35,1.17-6.89,1.22-2.26,4.26-3.55,6.76-3.51,3.79.07,4.29,3.16,9.75,4.68,3.25.91,3.64-.03,6.11,1.04.91.39,5.79,2.66,6.5,7.67.37,2.6-.44,5.54-2.34,7.41-1.81,1.78-2.89.91-4.68,2.47Z"/>
      <path class="cls-1" d="M31.4,257.56c-.91.8-.28,1.94-1.16,2.83-.69.7-1.72.66-1.89.65-.97-.03-1.62-.58-1.81-.76-.57-.53-.38-.8-.94-1.34-.68-.65-1.1-.39-1.71-1.02-.14-.14-.68-.74-.69-1.63,0-.12,0-.85.51-1.45.48-.57.85-.39,1.2-.87.46-.65-.06-1.21.33-1.92.34-.63,1.19-.99,1.89-.98,1.06.02,1.2.88,2.72,1.31.91.25,1.01,0,1.71.29.25.11,1.62.74,1.81,2.14.1.73-.12,1.55-.65,2.07-.5.5-.81.25-1.31.69Z"/>
      <path class="cls-1" d="M32.48,77.3c.36.57.79,1.27.83,2.14.04,1.11-.61,1.19-.91,2.61-.25,1.21.17,1.4-.12,2.99-.25,1.38-.64,1.72-.86,1.86-.04.03-.72.46-1.37.15-.55-.26-.77-.9-.76-1.37.01-.54.34-.68.23-.99-.18-.54-1.22-.27-1.62-.88-.4-.6.3-1.3-.11-1.86-.39-.53-1.22-.15-1.57-.67-.35-.52.33-1.09.02-1.75-.34-.74-1.4-.46-1.75-1.19-.31-.64.39-1.08.13-1.88-.27-.83-1.16-.79-1.32-1.57-.11-.54.19-1.19.64-1.4.39-.18.78.02,1.74.49,1.59.77,2.39,1.16,2.6,1.23,1.5.47,1.93-.01,2.89.6.63.4.97.95,1.3,1.48Z"/>
      <path class="cls-1" d="M47.98,253.58c1.04-.93,2.3-2.05,4.06-2.42,2.23-.47,2.62.84,5.63.94,2.54.09,2.78-.82,6.12-.8,2.89.02,3.72.71,4.08,1.1.07.08,1.18,1.3.78,2.72-.34,1.2-1.56,1.88-2.52,2.03-1.11.17-1.5-.45-2.09-.13-1.03.55-.12,2.57-1.23,3.61-1.08,1.02-2.75-.15-3.74.86-.94.97.12,2.52-.81,3.42-.93.88-2.34-.29-3.56.56-1.37.95-.45,3.01-1.81,3.98-1.19.84-2.33-.43-3.87.39-1.59.84-1.21,2.64-2.73,3.22-1.05.41-2.48.02-3.06-.82-.5-.73-.23-1.59.39-3.71,1.02-3.5,1.53-5.25,1.6-5.7.44-3.21-.7-3.92.22-6.09.6-1.42,1.59-2.3,2.55-3.16Z"/>
      <path class="cls-1" d="M105.47,87.13c.38-.34.85-.76,1.5-.9.83-.17.97.31,2.08.35.94.03,1.03-.31,2.27-.3,1.07,0,1.38.26,1.51.41.03.03.44.48.29,1.01-.12.44-.58.7-.93.75-.41.06-.56-.17-.77-.05-.38.21-.04.95-.45,1.34-.4.38-1.02-.06-1.38.32-.35.36.05.93-.3,1.27-.34.33-.87-.11-1.32.21-.51.35-.17,1.12-.67,1.47-.44.31-.86-.16-1.43.14-.59.31-.45.98-1.01,1.19-.39.15-.92,0-1.13-.3-.18-.27-.08-.59.14-1.37.38-1.3.57-1.94.59-2.11.16-1.19-.26-1.45.08-2.25.22-.52.59-.85.94-1.17Z"/>
      <path class="cls-1" d="M8.66,368.2c-.42-.85-.99-2.15-1.48-3.79-.85-2.86-2.28-7.68-.09-12.12.52-1.06,1.66-2.94,4.16-4.63-.73,2.29-1.42,5.12-1.76,8.42-.24,2.29-.26,4.38-.19,6.2.66-1.35,1.42-2.78,2.31-4.26.68-1.13,1.36-2.18,2.04-3.15-.04-.3-.56-4.2,2.41-6.85,2.41-2.15,5.34-1.9,5.83-1.85-1.07.74-2.39,1.82-3.7,3.33-1.19,1.37-2.02,2.71-2.59,3.79,1.93-1.07,4.06-2.13,6.38-3.15,1.43-.62,2.82-1.18,4.16-1.67-.26-.2-1.05-.87-1.3-2.04-.28-1.3.27-2.62,1.11-3.33.82-.69,1.24-.24,2.78-.93,1.79-.79,1.94-1.72,3.15-1.76.81-.03,1.63.36,2.13.93.73.82.25,1.42.83,2.78.72,1.67,1.8,1.61,2.04,2.96.14.83-.09,1.88-.74,2.5-.63.6-1.14.31-2.13,1.02-.84.6-.68.97-1.39,1.48-.84.61-2.24.95-3.52.37-1.44-.65-1.88-2.09-1.94-2.31-3.51.92-6.11,2.29-7.77,3.33-2.46,1.54-6.54,4.09-8.23,8.88-.31.87-.47,1.63-.56,2.13v6.38c-.28.04-.59.08-.93.09-.34.02-.65.01-.94,0-.03-.93-.05-1.85-.08-2.78Z"/>
      <path class="cls-1" d="M6.63,200.91c1.51.65,3.82,1.55,6.72,2.26,5.04,1.24,13.54,3.33,21.09-.85,1.8-.99,4.98-3.14,7.7-7.63-3.92,1.45-8.8,2.89-14.5,3.76-3.96.6-7.59.82-10.77.84,2.29-1.26,4.71-2.71,7.21-4.38,1.91-1.27,3.67-2.55,5.3-3.8.53.05,7.35.63,11.71-4.75,3.54-4.37,2.86-9.45,2.73-10.29-1.2,1.92-2.97,4.32-5.49,6.72-2.29,2.18-4.54,3.74-6.38,4.82,1.69-3.44,3.37-7.23,4.94-11.37.97-2.54,1.81-5.01,2.55-7.38.37.43,1.61,1.75,3.65,2.08,2.29.37,4.53-.68,5.7-2.21,1.14-1.48.32-2.17,1.38-4.91,1.23-3.18,2.83-3.52,2.8-5.62-.02-1.41-.77-2.81-1.79-3.63-1.49-1.19-2.49-.32-4.9-1.22-2.96-1.11-2.96-3-5.32-3.3-1.45-.18-3.26.31-4.28,1.5-1,1.15-.45,2.01-1.59,3.79-.98,1.52-1.63,1.27-2.46,2.54-.99,1.51-1.46,3.98-.35,6.15,1.25,2.45,3.78,3.09,4.19,3.19-1.3,6.18-3.48,10.82-5.15,13.8-2.47,4.41-6.56,11.72-14.77,15.06-1.5.61-2.79.95-3.66,1.14-3.7.18-7.4.35-11.11.53-.05.49-.08,1.03-.08,1.62,0,.59.03,1.14.08,1.63,1.61-.03,3.22-.06,4.84-.09Z"/>
    </g>
  </g>
</svg>