<?xml version="1.0" encoding="UTF-8"?>
<svg id="_Слой_2" data-name="Слой 2" xmlns="http://www.w3.org/2000/svg" viewBox="0 0 486.71 1107.93">
  <defs>
    <style>
      .cls-1, .cls-2 {
        fill: none;
      }

      .cls-1, .cls-2, .cls-3 {
        stroke: #000;
        stroke-miterlimit: 10;
      }

      .cls-2 {
        stroke-width: 2px;
      }

      .cls-3 {
        fill: #fff;
      }
    </style>
  </defs>
  <g id="_Слой_1-2" data-name="Слой 1">
    <g>
      <g>
        <path class="cls-2" d="M122.32,673.9c.11,5.63-3.53,9.8-7.42,10.09-2.9.22-6.07-1.71-6.85-4.19-1.19-3.76,2.83-9.62,11.04-12.94-1.86.64-9.38,3-14.85-.95-.32-.23-4.61-3.39-3.81-6.09.57-1.9,3.37-2.57,4.57-2.86,5.68-1.35,10.95,1.75,13.13,3.24-4.21-5.18-4.98-9.82-5.14-12.18-.06-.92-.45-6.62,1.71-7.42,2.24-.83,5.76,4.1,6.09,4.57,2.45,3.48,2.94,7.13,3.05,9.14,1.32-5.82,4.23-8.94,5.71-10.28,1.46-1.32,4.02-3.64,6.09-2.86,2.28.86,2.81,5.03,2.28,7.8-.72,3.77-3.56,5.9-4.38,6.47,1.15-1.02,4.3-3.53,8.76-3.62,2.3-.05,6.62.52,7.23,2.66.68,2.36-3.5,5.39-5.52,6.85-3.04,2.2-6,3.26-8,3.81,1.99.61,6.12,2.23,8.57,6.28.62,1.02,2.51,4.15,1.33,5.9-1.39,2.06-6.24,1-8.76,0-3.75-1.49-5.9-4.27-6.85-5.71,1.02,3.06,2.11,8.16,0,13.13-.5,1.17-2.03,4.77-4.19,4.76-1.96-.01-3.35-3-3.81-4-2.1-4.53-.82-9.3,0-11.61h.02Z"/>
        <path class="cls-2" d="M38.99,1011.71c.11,5.63-3.53,9.8-7.42,10.09-2.9.22-6.07-1.71-6.85-4.19-1.19-3.76,2.83-9.62,11.04-12.94-1.86.64-9.38,3-14.85-.95-.32-.23-4.61-3.39-3.81-6.09.57-1.9,3.37-2.57,4.57-2.86,5.68-1.35,10.95,1.75,13.13,3.24-4.21-5.18-4.98-9.82-5.14-12.18-.06-.92-.45-6.62,1.71-7.42,2.24-.83,5.76,4.1,6.09,4.57,2.45,3.48,2.94,7.13,3.05,9.14,1.32-5.82,4.23-8.94,5.71-10.28,1.46-1.32,4.02-3.64,6.09-2.86,2.28.86,2.81,5.03,2.28,7.8-.72,3.77-3.56,5.9-4.38,6.47,1.15-1.02,4.3-3.53,8.76-3.62,2.3-.05,6.62.52,7.23,2.66.68,2.36-3.5,5.39-5.52,6.85-3.04,2.2-6,3.26-8,3.81,1.99.61,6.12,2.23,8.57,6.28.62,1.02,2.51,4.15,1.33,5.9-1.39,2.06-6.24,1-8.76,0-3.75-1.49-5.9-4.27-6.85-5.71,1.02,3.06,2.11,8.16,0,13.13-.5,1.17-2.03,4.77-4.19,4.76-1.96-.01-3.35-3-3.81-4-2.1-4.53-.82-9.3,0-11.61h.02Z"/>
        <path class="cls-2" d="M440.76,461.07c.19,9.26-5.81,16.14-12.22,16.61-4.78.36-9.99-2.81-11.28-6.9-1.96-6.18,4.67-15.85,18.18-21.31-3.06,1.05-15.44,4.93-24.45-1.57-.53-.38-7.59-5.59-6.27-10.03.93-3.13,5.55-4.23,7.52-4.7,9.36-2.23,18.03,2.88,21.63,5.33-6.93-8.53-8.2-16.18-8.46-20.06-.1-1.52-.75-10.91,2.82-12.22,3.68-1.36,9.49,6.75,10.03,7.52,4.04,5.73,4.84,11.75,5.02,15.05,2.17-9.58,6.96-14.71,9.4-16.93,2.41-2.18,6.62-5.99,10.03-4.7,3.76,1.42,4.63,8.29,3.76,12.85-1.18,6.21-5.87,9.72-7.21,10.66,1.89-1.68,7.08-5.81,14.42-5.96,3.79-.08,10.9.86,11.91,4.39,1.12,3.89-5.77,8.88-9.09,11.28-5,3.62-9.88,5.37-13.17,6.27,3.28,1.01,10.07,3.67,14.11,10.34,1.02,1.69,4.14,6.84,2.19,9.72-2.29,3.39-10.27,1.65-14.42,0-6.17-2.45-9.72-7.04-11.28-9.4,1.68,5.04,3.48,13.44,0,21.63-.82,1.93-3.34,7.86-6.9,7.84-3.23-.02-5.51-4.94-6.27-6.58-3.45-7.46-1.36-15.31,0-19.12h0Z"/>
        <path class="cls-2" d="M64.61,179.4c.33,16.27-10.2,28.34-21.47,29.18-8.39.62-17.55-4.94-19.82-12.11-3.44-10.86,8.19-27.83,31.93-37.44-5.37,1.84-27.12,8.67-42.95-2.75-.92-.67-13.34-9.82-11.01-17.62,1.64-5.5,9.75-7.43,13.21-8.26,16.44-3.92,31.67,5.06,37.99,9.36-12.17-14.97-14.4-28.42-14.87-35.24-.18-2.67-1.31-19.16,4.96-21.47,6.47-2.39,16.66,11.86,17.62,13.21,7.09,10.07,8.5,20.63,8.81,26.43,3.81-16.83,12.22-25.84,16.52-29.73,4.22-3.82,11.62-10.52,17.62-8.26,6.6,2.49,8.13,14.56,6.61,22.57-2.07,10.9-10.3,17.07-12.66,18.72,3.33-2.95,12.44-10.21,25.33-10.46,6.65-.13,19.14,1.5,20.92,7.71,1.96,6.84-10.13,15.6-15.97,19.82-8.79,6.36-17.36,9.44-23.12,11.01,5.75,1.77,17.69,6.44,24.78,18.17,1.79,2.96,7.26,12.02,3.85,17.07-4.02,5.95-18.05,2.89-25.33,0-10.84-4.31-17.06-12.36-19.82-16.52,2.95,8.85,6.11,23.6,0,37.99-1.44,3.39-5.86,13.81-12.11,13.76-5.68-.04-9.68-8.68-11.01-11.56-6.06-13.11-2.39-26.89,0-33.59h0Z"/>
        <path class="cls-2" d="M75.44,477.97c-6.65,5.8-2.01,14.12-8.47,20.65-5.02,5.07-12.52,4.81-13.77,4.77-7.05-.25-11.8-4.23-13.24-5.56-4.17-3.85-2.74-5.85-6.88-9.8-4.95-4.72-8.03-2.84-12.44-7.41-1-1.04-4.98-5.42-5.03-11.91,0-.89.03-6.17,3.71-10.59,3.47-4.17,6.23-2.83,8.74-6.35,3.36-4.73-.42-8.85,2.38-14.03,2.49-4.6,8.67-7.24,13.77-7.15,7.71.14,8.74,6.43,19.86,9.53,6.62,1.84,7.4-.07,12.44,2.12,1.85.8,11.78,5.42,13.24,15.62.76,5.3-.9,11.29-4.77,15.09-3.68,3.62-5.89,1.86-9.53,5.03h0Z"/>
        <path class="cls-2" d="M199.54,1073.59c-8.72,7.61-2.64,18.51-11.1,27.07-6.58,6.65-16.42,6.3-18.04,6.25-9.25-.33-15.46-5.55-17.35-7.29-5.47-5.04-3.6-7.67-9.02-12.84-6.49-6.19-10.53-3.73-16.31-9.72-1.31-1.36-6.53-7.11-6.59-15.61,0-1.17.04-8.09,4.86-13.88,4.55-5.46,8.17-3.71,11.45-8.33,4.41-6.2-.55-11.6,3.12-18.39,3.26-6.03,11.36-9.49,18.04-9.37,10.1.18,11.45,8.43,26.02,12.49,8.68,2.42,9.7-.09,16.31,2.78,2.42,1.05,15.44,7.11,17.35,20.47.99,6.95-1.18,14.8-6.25,19.78-4.82,4.74-7.73,2.44-12.49,6.59Z"/>
        <path class="cls-2" d="M90.1,738.76c-2.43,2.12-.74,5.17-3.1,7.55-1.84,1.86-4.58,1.76-5.04,1.74-2.58-.09-4.32-1.55-4.84-2.03-1.53-1.41-1-2.14-2.52-3.58-1.81-1.73-2.94-1.04-4.55-2.71-.37-.38-1.82-1.98-1.84-4.36,0-.33.01-2.26,1.36-3.87,1.27-1.52,2.28-1.04,3.2-2.32,1.23-1.73-.15-3.24.87-5.13.91-1.68,3.17-2.65,5.04-2.62,2.82.05,3.2,2.35,7.26,3.49,2.42.67,2.71-.03,4.55.77.68.29,4.31,1.98,4.84,5.71.28,1.94-.33,4.13-1.74,5.52-1.34,1.32-2.16.68-3.49,1.84h0Z"/>
        <path class="cls-2" d="M85.13,288.1c.96,1.53,2.12,3.38,2.21,5.71.11,2.95-1.64,3.16-2.43,6.98-.67,3.22.45,3.72-.31,7.99-.66,3.69-1.72,4.6-2.29,4.97-.11.07-1.92,1.22-3.65.4-1.46-.69-2.06-2.41-2.04-3.65.03-1.45.9-1.82.62-2.64-.48-1.43-3.25-.71-4.34-2.35-1.06-1.61.8-3.48-.29-4.96-1.04-1.41-3.25-.39-4.19-1.78-.93-1.38.88-2.92.06-4.67-.92-1.96-3.75-1.23-4.68-3.18-.82-1.71,1.05-2.88.35-5.02-.73-2.21-3.1-2.12-3.52-4.18-.29-1.43.51-3.17,1.72-3.73,1.04-.48,2.08.06,4.65,1.31,4.25,2.07,6.37,3.1,6.93,3.28,4,1.26,5.16-.04,7.72,1.6,1.68,1.07,2.6,2.53,3.48,3.94v-.02Z"/>
        <path class="cls-2" d="M348.87,534.97c2.77-2.47,6.13-5.48,10.83-6.46,5.96-1.25,7,2.23,15.02,2.51,6.78.24,7.41-2.2,16.34-2.13,7.72.06,9.93,1.9,10.89,2.93.19.2,3.14,3.48,2.08,7.27-.9,3.21-4.17,5.03-6.72,5.41-2.95.44-4.01-1.2-5.58-.35-2.74,1.48-.31,6.85-3.28,9.62-2.9,2.71-7.35-.41-9.97,2.3-2.51,2.59.33,6.74-2.17,9.12-2.48,2.36-6.23-.78-9.51,1.49-3.67,2.55-1.21,8.04-4.84,10.62-3.18,2.25-6.21-1.14-10.32,1.04-4.24,2.25-3.23,7.04-7.28,8.6-2.81,1.09-6.62.06-8.17-2.2-1.33-1.94-.61-4.25,1.04-9.89,2.73-9.34,4.09-14.01,4.26-15.22,1.18-8.56-1.86-10.47.58-16.24,1.6-3.78,4.25-6.15,6.8-8.43h0Z"/>
        <path class="cls-2" d="M93.33,970.86c1.11-2.26,2.64-5.73,3.95-10.13,2.27-7.63,6.09-20.49.25-32.35-1.39-2.82-4.44-7.85-11.11-12.35,1.94,6.1,3.78,13.68,4.69,22.47.64,6.11.71,11.68.49,16.55-1.76-3.6-3.8-7.41-6.17-11.36-1.81-3.01-3.63-5.81-5.43-8.4.12-.8,1.49-11.2-6.42-18.28-6.42-5.74-14.25-5.07-15.56-4.94,2.85,1.98,6.39,4.86,9.88,8.89,3.18,3.67,5.39,7.23,6.92,10.13-5.14-2.84-10.82-5.69-17.04-8.4-3.82-1.66-7.54-3.14-11.11-4.45.68-.53,2.8-2.33,3.46-5.43.74-3.48-.71-6.98-2.96-8.89-2.19-1.85-3.3-.65-7.41-2.47-4.78-2.12-5.18-4.59-8.4-4.69-2.17-.07-4.35.97-5.68,2.47-1.94,2.19-.67,3.79-2.22,7.41-1.91,4.45-4.81,4.3-5.43,7.9-.38,2.21.24,5.01,1.98,6.67,1.69,1.61,3.05.84,5.68,2.72,2.25,1.61,1.82,2.59,3.7,3.95,2.23,1.62,5.98,2.52,9.38.99,3.84-1.73,5.01-5.57,5.19-6.17,9.37,2.45,16.31,6.12,20.75,8.89,6.57,4.1,17.46,10.91,21.98,23.71.82,2.33,1.25,4.34,1.48,5.68v17.04c.75.11,1.57.2,2.47.25s1.74.04,2.5,0c.07-2.47.14-4.94.22-7.41h-.03Z"/>
        <path class="cls-2" d="M55.53,563.1c4.03,1.74,10.19,4.12,17.94,6.03,13.45,3.31,36.15,8.9,56.3-2.26,4.79-2.65,13.29-8.38,20.56-20.36-10.45,3.88-23.48,7.71-38.71,10.03-10.58,1.61-20.26,2.2-28.74,2.23,6.12-3.36,12.58-7.23,19.25-11.68,5.09-3.4,9.8-6.8,14.16-10.15,1.4.14,19.62,1.67,31.26-12.69,9.45-11.65,7.64-25.22,7.3-27.48-3.22,5.12-7.93,11.52-14.65,17.92-6.12,5.83-12.13,9.98-17.04,12.87,4.52-9.18,9-19.3,13.19-30.34,2.58-6.79,4.83-13.37,6.81-19.7.99,1.14,4.29,4.68,9.74,5.56,6.12.99,12.09-1.82,15.22-5.89,3.04-3.96.85-5.79,3.68-13.09,3.29-8.5,7.55-9.39,7.47-15-.06-3.77-2.05-7.49-4.77-9.68-3.97-3.19-6.65-.84-13.07-3.25-7.9-2.96-7.89-8.02-14.2-8.8-3.88-.48-8.7.83-11.44,3.99-2.66,3.07-1.2,5.38-4.25,10.11-2.61,4.05-4.35,3.39-6.57,6.77-2.63,4.02-3.89,10.62-.94,16.41,3.33,6.54,10.1,8.26,11.17,8.51-3.48,16.5-9.29,28.89-13.74,36.83-6.59,11.76-17.52,31.28-39.42,40.21-3.99,1.63-7.45,2.54-9.76,3.05-9.88.47-19.76.94-29.64,1.42-.13,1.31-.22,2.75-.22,4.32s.08,3.03.21,4.35c4.3-.08,8.6-.16,12.91-.24h0Z"/>
      </g>
      <g>
        <circle class="cls-1" cx="39.34" cy="24.47" r="2.4"/>
        <circle class="cls-3" cx="99.84" cy="155.14" r=".91"/>
        <circle class="cls-3" cx="212.31" cy="93.4" r=".91"/>
        <circle class="cls-3" cx="55.63" cy="100.68" r=".91"/>
        <circle class="cls-1" cx="96.98" cy="233.3" r="6.29"/>
        <circle class="cls-3" cx="393.96" cy="1.41" r=".91"/>
        <circle class="cls-1" cx="114.61" cy="30.3" r="1.2"/>
        <circle class="cls-3" cx="311.27" cy="42.11" r=".91"/>
        <circle class="cls-1" cx="188.81" cy="3.63" r="1.2"/>
      </g>
    </g>
  </g>
</svg>