<svg width="488" height="1027" viewBox="0 0 488 1027" fill="none" xmlns="http://www.w3.org/2000/svg">
<path d="M123.1 592.6C123.21 598.23 119.57 602.4 115.68 602.69C112.78 602.91 109.61 600.98 108.83 598.5C107.64 594.74 111.66 588.88 119.87 585.56C118.01 586.2 110.49 588.56 105.02 584.61C104.7 584.38 100.41 581.22 101.21 578.52C101.78 576.62 104.58 575.95 105.78 575.66C111.46 574.31 116.73 577.41 118.91 578.9C114.7 573.72 113.93 569.08 113.77 566.72C113.71 565.8 113.32 560.1 115.48 559.3C117.72 558.47 121.24 563.4 121.57 563.87C124.02 567.35 124.51 571 124.62 573.01C125.94 567.19 128.85 564.07 130.33 562.73C131.79 561.41 134.35 559.09 136.42 559.87C138.7 560.73 139.23 564.9 138.7 567.67C137.98 571.44 135.14 573.57 134.32 574.14C135.47 573.12 138.62 570.61 143.08 570.52C145.38 570.47 149.7 571.04 150.31 573.18C150.99 575.54 146.81 578.57 144.79 580.03C141.75 582.23 138.79 583.29 136.79 583.84C138.78 584.45 142.91 586.07 145.36 590.12C145.98 591.14 147.87 594.27 146.69 596.02C145.3 598.08 140.45 597.02 137.93 596.02C134.18 594.53 132.03 591.75 131.08 590.31C132.1 593.37 133.19 598.47 131.08 603.44C130.58 604.61 129.05 608.21 126.89 608.2C124.93 608.19 123.54 605.2 123.08 604.2C120.98 599.67 122.26 594.9 123.08 592.59L123.1 592.6Z" stroke="black" stroke-width="2" stroke-miterlimit="10"/>
<path d="M39.77 930.41C39.88 936.04 36.24 940.21 32.35 940.5C29.45 940.72 26.28 938.79 25.5 936.31C24.31 932.55 28.33 926.69 36.54 923.37C34.68 924.01 27.16 926.37 21.69 922.42C21.37 922.19 17.08 919.03 17.88 916.33C18.45 914.43 21.25 913.76 22.45 913.47C28.13 912.12 33.4 915.22 35.58 916.71C31.37 911.53 30.6 906.89 30.44 904.53C30.38 903.61 29.99 897.91 32.15 897.11C34.39 896.28 37.91 901.21 38.24 901.68C40.69 905.16 41.18 908.81 41.29 910.82C42.61 905 45.52 901.88 47 900.54C48.46 899.22 51.02 896.9 53.09 897.68C55.37 898.54 55.9 902.71 55.37 905.48C54.65 909.25 51.81 911.38 50.99 911.95C52.14 910.93 55.29 908.42 59.75 908.33C62.05 908.28 66.37 908.85 66.98 910.99C67.66 913.35 63.48 916.38 61.46 917.84C58.42 920.04 55.46 921.1 53.46 921.65C55.45 922.26 59.58 923.88 62.03 927.93C62.65 928.95 64.54 932.08 63.36 933.83C61.97 935.89 57.12 934.83 54.6 933.83C50.85 932.34 48.7 929.56 47.75 928.12C48.77 931.18 49.86 936.28 47.75 941.25C47.25 942.42 45.72 946.02 43.56 946.01C41.6 946 40.21 943.01 39.75 942.01C37.65 937.48 38.93 932.71 39.75 930.4L39.77 930.41Z" stroke="black" stroke-width="2" stroke-miterlimit="10"/>
<path d="M441.54 379.77C441.73 389.03 435.73 395.91 429.32 396.38C424.54 396.74 419.33 393.57 418.04 389.48C416.08 383.3 422.71 373.63 436.22 368.17C433.16 369.22 420.78 373.1 411.77 366.6C411.24 366.22 404.18 361.01 405.5 356.57C406.43 353.44 411.05 352.34 413.02 351.87C422.38 349.64 431.05 354.75 434.65 357.2C427.72 348.67 426.45 341.02 426.19 337.14C426.09 335.62 425.44 326.23 429.01 324.92C432.69 323.56 438.5 331.67 439.04 332.44C443.08 338.17 443.88 344.19 444.06 347.49C446.23 337.91 451.02 332.78 453.46 330.56C455.87 328.38 460.08 324.57 463.49 325.86C467.25 327.28 468.12 334.15 467.25 338.71C466.07 344.92 461.38 348.43 460.04 349.37C461.93 347.69 467.12 343.56 474.46 343.41C478.25 343.33 485.36 344.27 486.37 347.8C487.49 351.69 480.6 356.68 477.28 359.08C472.28 362.7 467.4 364.45 464.11 365.35C467.39 366.36 474.18 369.02 478.22 375.69C479.24 377.38 482.36 382.53 480.41 385.41C478.12 388.8 470.14 387.06 465.99 385.41C459.82 382.96 456.27 378.37 454.71 376.01C456.39 381.05 458.19 389.45 454.71 397.64C453.89 399.57 451.37 405.5 447.81 405.48C444.58 405.46 442.3 400.54 441.54 398.9C438.09 391.44 440.18 383.59 441.54 379.78V379.77Z" stroke="black" stroke-width="2" stroke-miterlimit="10"/>
<path d="M65.3901 98.1002C65.7201 114.37 55.1901 126.44 43.9201 127.28C35.5301 127.9 26.3701 122.34 24.1001 115.17C20.6601 104.31 32.2901 87.34 56.0301 77.73C50.6601 79.57 28.9101 86.4 13.0801 74.98C12.1601 74.31 -0.259885 65.1602 2.07011 57.3602C3.71011 51.8602 11.8201 49.9302 15.2801 49.1002C31.7201 45.1802 46.9501 54.16 53.2701 58.46C41.1001 43.49 38.8701 30.04 38.4001 23.22C38.2201 20.55 37.0901 4.06007 43.3601 1.75007C49.8301 -0.63993 60.0201 13.61 60.9801 14.96C68.0701 25.03 69.4801 35.59 69.7901 41.39C73.6001 24.56 82.0101 15.55 86.3101 11.66C90.5301 7.83998 97.9301 1.13997 103.93 3.39997C110.53 5.88997 112.06 17.96 110.54 25.97C108.47 36.87 100.24 43.04 97.8801 44.69C101.21 41.74 110.32 34.48 123.21 34.23C129.86 34.1 142.35 35.73 144.13 41.94C146.09 48.78 134 57.5401 128.16 61.7601C119.37 68.1201 110.8 71.2001 105.04 72.7701C110.79 74.5401 122.73 79.21 129.82 90.94C131.61 93.9 137.08 102.96 133.67 108.01C129.65 113.96 115.62 110.9 108.34 108.01C97.5001 103.7 91.2801 95.6501 88.5201 91.4901C91.4701 100.34 94.6301 115.09 88.5201 129.48C87.0801 132.87 82.6601 143.29 76.4101 143.24C70.7301 143.2 66.7301 134.56 65.4001 131.68C59.3401 118.57 63.0101 104.79 65.4001 98.0902L65.3901 98.1002Z" stroke="black" stroke-width="2" stroke-miterlimit="10"/>
<path d="M76.2201 396.67C69.5701 402.47 74.2101 410.79 67.7501 417.32C62.7301 422.39 55.2301 422.13 53.9801 422.09C46.9301 421.84 42.1801 417.86 40.7401 416.53C36.5701 412.68 38.0001 410.68 33.8601 406.73C28.9101 402.01 25.8301 403.89 21.4201 399.32C20.4201 398.28 16.4401 393.9 16.3901 387.41C16.3901 386.52 16.4201 381.24 20.1001 376.82C23.5701 372.65 26.3301 373.99 28.8401 370.47C32.2001 365.74 28.4201 361.62 31.2201 356.44C33.7101 351.84 39.8901 349.2 44.9901 349.29C52.7001 349.43 53.7301 355.72 64.8501 358.82C71.4701 360.66 72.2501 358.75 77.2901 360.94C79.1401 361.74 89.0701 366.36 90.5301 376.56C91.2901 381.86 89.6301 387.85 85.7601 391.65C82.0801 395.27 79.8701 393.51 76.2301 396.68L76.2201 396.67Z" stroke="black" stroke-width="2" stroke-miterlimit="10"/>
<path d="M200.32 992.29C191.6 999.9 197.68 1010.8 189.22 1019.36C182.64 1026.01 172.8 1025.66 171.18 1025.61C161.93 1025.28 155.72 1020.06 153.83 1018.32C148.36 1013.28 150.23 1010.65 144.81 1005.48C138.32 999.29 134.28 1001.75 128.5 995.76C127.19 994.4 121.97 988.65 121.91 980.15C121.91 978.98 121.95 972.06 126.77 966.27C131.32 960.81 134.94 962.56 138.22 957.94C142.63 951.74 137.67 946.34 141.34 939.55C144.6 933.52 152.7 930.06 159.38 930.18C169.48 930.36 170.83 938.61 185.4 942.67C194.08 945.09 195.1 942.58 201.71 945.45C204.13 946.5 217.15 952.56 219.06 965.92C220.05 972.87 217.88 980.72 212.81 985.7C207.99 990.44 205.08 988.14 200.32 992.29Z" stroke="black" stroke-width="2" stroke-miterlimit="10"/>
<path d="M90.88 657.46C88.45 659.58 90.14 662.63 87.78 665.01C85.94 666.87 83.2 666.77 82.74 666.75C80.16 666.66 78.42 665.2 77.9 664.72C76.37 663.31 76.9 662.58 75.38 661.14C73.57 659.41 72.44 660.1 70.83 658.43C70.46 658.05 69.01 656.45 68.99 654.07C68.99 653.74 69 651.81 70.35 650.2C71.62 648.68 72.63 649.16 73.55 647.88C74.78 646.15 73.4 644.64 74.42 642.75C75.33 641.07 77.59 640.1 79.46 640.13C82.28 640.18 82.66 642.48 86.72 643.62C89.14 644.29 89.43 643.59 91.27 644.39C91.95 644.68 95.58 646.37 96.11 650.1C96.39 652.04 95.78 654.23 94.37 655.62C93.03 656.94 92.21 656.3 90.88 657.46Z" stroke="black" stroke-width="2" stroke-miterlimit="10"/>
<path d="M85.9102 206.8C86.8702 208.33 88.0302 210.18 88.1202 212.51C88.2302 215.46 86.4802 215.67 85.6902 219.49C85.0202 222.71 86.1402 223.21 85.3802 227.48C84.7202 231.17 83.6602 232.08 83.0902 232.45C82.9802 232.52 81.1702 233.67 79.4402 232.85C77.9802 232.16 77.3802 230.44 77.4002 229.2C77.4302 227.75 78.3001 227.38 78.0201 226.56C77.5401 225.13 74.7702 225.85 73.6802 224.21C72.6202 222.6 74.4802 220.73 73.3902 219.25C72.3502 217.84 70.1402 218.86 69.2002 217.47C68.2702 216.09 70.0802 214.55 69.2602 212.8C68.3402 210.84 65.5101 211.57 64.5801 209.62C63.7601 207.91 65.6302 206.74 64.9302 204.6C64.2002 202.39 61.8302 202.48 61.4102 200.42C61.1202 198.99 61.9202 197.25 63.1302 196.69C64.1702 196.21 65.2102 196.75 67.7802 198C72.0302 200.07 74.1501 201.1 74.7101 201.28C78.7101 202.54 79.8702 201.24 82.4302 202.88C84.1102 203.95 85.0302 205.41 85.9102 206.82V206.8Z" stroke="black" stroke-width="2" stroke-miterlimit="10"/>
<path d="M349.65 453.67C352.42 451.2 355.78 448.19 360.48 447.21C366.44 445.96 367.48 449.44 375.5 449.72C382.28 449.96 382.91 447.52 391.84 447.59C399.56 447.65 401.77 449.49 402.73 450.52C402.92 450.72 405.87 454 404.81 457.79C403.91 461 400.64 462.82 398.09 463.2C395.14 463.64 394.08 462 392.51 462.85C389.77 464.33 392.2 469.7 389.23 472.47C386.33 475.18 381.88 472.06 379.26 474.77C376.75 477.36 379.59 481.51 377.09 483.89C374.61 486.25 370.86 483.11 367.58 485.38C363.91 487.93 366.37 493.42 362.74 496C359.56 498.25 356.53 494.86 352.42 497.04C348.18 499.29 349.19 504.08 345.14 505.64C342.33 506.73 338.52 505.7 336.97 503.44C335.64 501.5 336.36 499.19 338.01 493.55C340.74 484.21 342.1 479.54 342.27 478.33C343.45 469.77 340.41 467.86 342.85 462.09C344.45 458.31 347.1 455.94 349.65 453.66V453.67Z" stroke="black" stroke-width="2" stroke-miterlimit="10"/>
<path d="M94.1101 889.56C95.2201 887.3 96.7501 883.83 98.0601 879.43C100.33 871.8 104.15 858.94 98.3101 847.08C96.9201 844.26 93.8701 839.23 87.2001 834.73C89.1401 840.83 90.9801 848.41 91.8901 857.2C92.5301 863.31 92.6001 868.88 92.3801 873.75C90.6201 870.15 88.5801 866.34 86.2101 862.39C84.4001 859.38 82.5801 856.58 80.7801 853.99C80.9001 853.19 82.2701 842.79 74.3601 835.71C67.9401 829.97 60.1101 830.64 58.8001 830.77C61.6501 832.75 65.1901 835.63 68.6801 839.66C71.8601 843.33 74.0701 846.89 75.6001 849.79C70.4601 846.95 64.7801 844.1 58.5601 841.39C54.7401 839.73 51.0201 838.25 47.4501 836.94C48.1301 836.41 50.2501 834.61 50.9101 831.51C51.6501 828.03 50.2001 824.53 47.9501 822.62C45.7601 820.77 44.6501 821.97 40.5401 820.15C35.7601 818.03 35.3601 815.56 32.1401 815.46C29.9701 815.39 27.7901 816.43 26.4601 817.93C24.5201 820.12 25.7901 821.72 24.2401 825.34C22.3301 829.79 19.4301 829.64 18.8101 833.24C18.4301 835.45 19.0501 838.25 20.7901 839.91C22.4801 841.52 23.8401 840.75 26.4701 842.63C28.7201 844.24 28.2901 845.22 30.1701 846.58C32.4001 848.2 36.1501 849.1 39.5501 847.57C43.3901 845.84 44.5601 842 44.7401 841.4C54.1101 843.85 61.0501 847.52 65.4901 850.29C72.0601 854.39 82.9501 861.2 87.4701 874C88.2901 876.33 88.7201 878.34 88.9501 879.68V896.72C89.7001 896.83 90.5201 896.92 91.4201 896.97C92.3201 897.02 93.1601 897.01 93.9201 896.97C93.9901 894.5 94.0601 892.03 94.1401 889.56H94.1101Z" stroke="black" stroke-width="2" stroke-miterlimit="10"/>
<path d="M56.3102 481.8C60.3402 483.54 66.5002 485.92 74.2502 487.83C87.7002 491.14 110.4 496.73 130.55 485.57C135.34 482.92 143.84 477.19 151.11 465.21C140.66 469.09 127.63 472.92 112.4 475.24C101.82 476.85 92.1402 477.44 83.6602 477.47C89.7802 474.11 96.2402 470.24 102.91 465.79C108 462.39 112.71 458.99 117.07 455.64C118.47 455.78 136.69 457.31 148.33 442.95C157.78 431.3 155.97 417.73 155.63 415.47C152.41 420.59 147.7 426.99 140.98 433.39C134.86 439.22 128.85 443.37 123.94 446.26C128.46 437.08 132.94 426.96 137.13 415.92C139.71 409.13 141.96 402.55 143.94 396.22C144.93 397.36 148.23 400.9 153.68 401.78C159.8 402.77 165.77 399.96 168.9 395.89C171.94 391.93 169.75 390.1 172.58 382.8C175.87 374.3 180.13 373.41 180.05 367.8C179.99 364.03 178 360.31 175.28 358.12C171.31 354.93 168.63 357.28 162.21 354.87C154.31 351.91 154.32 346.85 148.01 346.07C144.13 345.59 139.31 346.9 136.57 350.06C133.91 353.13 135.37 355.44 132.32 360.17C129.71 364.22 127.97 363.56 125.75 366.94C123.12 370.96 121.86 377.56 124.81 383.35C128.14 389.89 134.91 391.61 135.98 391.86C132.5 408.36 126.69 420.75 122.24 428.69C115.65 440.45 104.72 459.97 82.8202 468.9C78.8302 470.53 75.3702 471.44 73.0602 471.95C63.1802 472.42 53.3002 472.89 43.4202 473.37C43.2902 474.68 43.2002 476.12 43.2002 477.69C43.2002 479.27 43.2802 480.72 43.4102 482.04C47.7102 481.96 52.0102 481.88 56.3202 481.8H56.3102Z" stroke="black" stroke-width="2" stroke-miterlimit="10"/>
</svg>
