<svg width="369" height="439" viewBox="0 0 369 439" fill="none" xmlns="http://www.w3.org/2000/svg">
<path d="M187.08 295.05C185.34 301.38 188.27 307.15 192.59 308.59C195.81 309.66 199.95 308.39 201.54 305.81C203.96 301.9 201.09 294.11 192.75 288C194.67 289.25 202.5 294.08 209.83 291.17C210.26 291 216.02 288.65 215.88 285.37C215.78 283.05 212.8 281.5 211.53 280.83C205.48 277.67 198.64 279.68 195.74 280.73C201.98 276.07 204.19 271.04 205.04 268.41C205.38 267.39 207.45 261.04 205.23 259.52C202.94 257.95 197.54 262.51 197.03 262.95C193.26 266.19 191.66 270.18 190.97 272.42C191.15 265.46 188.75 261.1 187.45 259.15C186.18 257.24 183.94 253.88 181.37 254.17C178.54 254.49 176.75 259.06 176.55 262.35C176.28 266.82 178.89 270.05 179.65 270.93C178.64 269.45 175.79 265.71 170.78 264.33C168.19 263.62 163.14 263.02 161.83 265.28C160.39 267.76 164.25 272.39 166.12 274.62C168.93 277.98 171.98 280.03 174.08 281.22C171.65 281.34 166.52 281.99 162.59 285.88C161.6 286.86 158.56 289.86 159.39 292.18C160.37 294.91 166.16 295.1 169.3 294.69C173.97 294.08 177.2 291.54 178.69 290.19C176.66 293.36 173.97 298.82 174.93 305.06C175.16 306.53 175.86 311.04 178.31 311.64C180.54 312.19 182.96 309.2 183.76 308.21C187.43 303.68 187.35 297.92 187.08 295.07V295.05Z" stroke="white" stroke-width="2" stroke-linejoin="round"/>
<path d="M296.22 86.7203C302.09 95.1903 294.46 103.28 299.9 112.51C304.13 119.69 312.7 121.54 314.12 121.84C322.17 123.58 328.68 120.43 330.69 119.34C336.51 116.18 335.47 113.5 341.28 110.22C348.24 106.29 351.18 109.3 357.48 105.39C358.91 104.5 364.67 100.68 366.58 93.3503C366.84 92.3403 368.31 86.3603 365.42 80.3003C362.69 74.5903 359.18 75.3103 357.35 70.6103C354.9 64.2903 360.36 60.7103 358.67 54.0503C357.17 48.1303 350.93 43.3803 345.14 42.0203C336.38 39.9703 333.41 46.8003 319.94 47.1203C311.92 47.3103 311.58 44.9202 305.25 45.9602C302.93 46.3402 290.36 48.7203 285.8 59.8503C283.43 65.6403 283.59 72.8803 286.87 78.2903C290 83.4303 293.01 82.0802 296.22 86.7102V86.7203Z" stroke="white" stroke-width="2" stroke-miterlimit="10"/>
<path d="M204.98 377.68C207.13 380.78 204.33 383.74 206.33 387.12C207.88 389.75 211.01 390.42 211.53 390.53C214.48 391.17 216.86 390.01 217.59 389.61C219.72 388.45 219.34 387.48 221.47 386.27C224.02 384.83 225.09 385.93 227.4 384.5C227.92 384.18 230.03 382.78 230.73 380.09C230.83 379.72 231.36 377.53 230.3 375.32C229.3 373.23 228.02 373.49 227.35 371.77C226.45 369.46 228.45 368.15 227.83 365.71C227.28 363.54 225 361.81 222.88 361.31C219.67 360.56 218.59 363.06 213.66 363.18C210.72 363.25 210.6 362.38 208.29 362.75C207.44 362.89 202.84 363.76 201.17 367.83C200.3 369.95 200.36 372.6 201.56 374.58C202.7 376.46 203.81 375.97 204.98 377.66V377.68Z" stroke="white" stroke-width="2" stroke-miterlimit="10"/>
<path d="M122.65 376.16C120.22 372.57 117.28 368.21 112.24 365.75C105.85 362.63 103.68 366.28 94.5301 364.3C86.7901 362.63 86.7701 359.69 76.6501 357.21C67.9001 355.07 64.86 356.52 63.49 357.41C63.22 357.58 58.9401 360.45 59.0601 365.04C59.1601 368.92 62.34 371.92 65.11 373.08C68.33 374.43 69.9901 372.87 71.5201 374.28C74.1901 376.74 69.91 382.12 72.47 386.11C74.97 390.01 80.91 387.75 83.1 391.57C85.2 395.22 80.8 399.1 82.95 402.51C85.08 405.89 90.2301 403.41 93.2901 406.92C96.7101 410.85 92.35 416.37 95.73 420.32C98.69 423.78 103.08 420.8 107.11 424.45C111.27 428.21 108.75 433.34 112.88 436.27C115.75 438.3 120.36 438.24 122.75 436.12C124.81 434.3 124.65 431.48 124.4 424.63C123.99 413.28 123.78 407.6 123.93 406.19C125.04 396.16 129.03 394.87 127.93 387.64C127.21 382.9 124.88 379.46 122.64 376.15L122.65 376.16Z" stroke="white" stroke-width="2" stroke-miterlimit="10"/>
<path d="M294.38 188.76C289.32 189.58 281.67 190.51 272.35 190.45C256.18 190.35 228.89 190.17 209.28 171.78C204.62 167.41 196.63 158.49 191.84 142.85C202.56 150.23 216.2 158.29 232.77 165.28C244.28 170.13 255.07 173.57 264.66 176.04C258.7 170.48 252.49 164.26 246.22 157.31C241.44 152.01 237.07 146.81 233.1 141.77C231.47 141.53 210.42 138.04 201.35 118.46C193.99 102.57 199.92 87.73 200.95 85.27C203.12 91.98 206.63 100.58 212.39 109.75C217.64 118.1 223.26 124.51 227.99 129.19C225.5 117.5 223.33 104.77 221.75 91.0699C220.78 82.6499 220.11 74.5499 219.68 66.8199C218.24 67.8299 213.48 70.8899 207.07 70.3299C199.86 69.6999 193.91 64.81 191.53 59.3C189.23 53.95 192.22 52.5 191.11 43.43C189.82 32.87 185.26 30.6399 186.95 24.3199C188.09 20.0699 191.41 16.43 195.12 14.73C200.52 12.26 202.89 15.68 210.85 14.79C220.64 13.7 222.07 7.98002 229.44 8.90002C233.96 9.47002 239.04 12.3299 241.24 16.6899C243.37 20.9199 241.06 23.12 243.16 29.35C244.96 34.68 247.11 34.43 248.65 38.89C250.48 44.19 250.02 52.02 245.02 57.73C239.38 64.17 231.23 64.18 229.94 64.16C229.15 83.83 232.19 99.51 234.95 109.77C239.04 124.97 245.83 150.19 268.05 166.56C272.1 169.54 275.75 171.56 278.22 172.8C289.27 176.16 300.32 179.53 311.36 182.89C311.14 184.41 310.82 186.07 310.38 187.84C309.93 189.62 309.42 191.25 308.9 192.7C304.05 191.38 299.21 190.06 294.36 188.73L294.38 188.76Z" stroke="white" stroke-width="2" stroke-miterlimit="10"/>
<path d="M247.41 416.33C248.957 416.33 250.21 415.076 250.21 413.53C250.21 411.984 248.957 410.73 247.41 410.73C245.864 410.73 244.61 411.984 244.61 413.53C244.61 415.076 245.864 416.33 247.41 416.33Z" stroke="white" stroke-miterlimit="10"/>
<path d="M100.09 333.39C100.676 333.39 101.15 332.915 101.15 332.33C101.15 331.745 100.676 331.27 100.09 331.27C99.5048 331.27 99.0303 331.745 99.0303 332.33C99.0303 332.915 99.5048 333.39 100.09 333.39Z" fill="white" stroke="white" stroke-miterlimit="10"/>
<path d="M181.25 207.38C181.835 207.38 182.31 206.906 182.31 206.32C182.31 205.735 181.835 205.26 181.25 205.26C180.665 205.26 180.19 205.735 180.19 206.32C180.19 206.906 180.665 207.38 181.25 207.38Z" fill="white" stroke="white" stroke-miterlimit="10"/>
<path d="M159.94 389.36C160.525 389.36 161 388.886 161 388.3C161 387.715 160.525 387.24 159.94 387.24C159.355 387.24 158.88 387.715 158.88 388.3C158.88 388.886 159.355 389.36 159.94 389.36Z" fill="white" stroke="white" stroke-miterlimit="10"/>
<path d="M8.78015 336.61C12.8394 336.61 16.1301 333.319 16.1301 329.26C16.1301 325.201 12.8394 321.91 8.78015 321.91C4.72086 321.91 1.43018 325.201 1.43018 329.26C1.43018 333.319 4.72086 336.61 8.78015 336.61Z" stroke="white" stroke-miterlimit="10"/>
<path d="M303.31 3.24011C303.895 3.24011 304.37 2.7656 304.37 2.18018C304.37 1.59475 303.895 1.12012 303.31 1.12012C302.725 1.12012 302.25 1.59475 302.25 2.18018C302.25 2.7656 302.725 3.24011 303.31 3.24011Z" fill="white" stroke="white" stroke-miterlimit="10"/>
<path d="M246.77 326.74C247.543 326.74 248.17 326.113 248.17 325.34C248.17 324.567 247.543 323.94 246.77 323.94C245.997 323.94 245.37 324.567 245.37 325.34C245.37 326.113 245.997 326.74 246.77 326.74Z" stroke="white" stroke-miterlimit="10"/>
<path d="M249.12 96.2601C249.705 96.2601 250.18 95.7855 250.18 95.2001C250.18 94.6147 249.705 94.1401 249.12 94.1401C248.535 94.1401 248.06 94.6147 248.06 95.2001C248.06 95.7855 248.535 96.2601 249.12 96.2601Z" fill="white" stroke="white" stroke-miterlimit="10"/>
<path d="M283.93 242.46C284.703 242.46 285.33 241.833 285.33 241.06C285.33 240.287 284.703 239.66 283.93 239.66C283.157 239.66 282.53 240.287 282.53 241.06C282.53 241.833 283.157 242.46 283.93 242.46Z" stroke="white" stroke-miterlimit="10"/>
</svg>
