<svg width="107" height="79" viewBox="0 0 107 79" fill="none" xmlns="http://www.w3.org/2000/svg">
<path d="M35.5 36.32C34 36.53 32.77 35.7001 32.56 34.6701C32.41 33.9001 32.8199 32.99 33.4499 32.7C34.4099 32.26 36.11 33.14 37.27 35.23C37.04 34.75 36.16 32.82 37.04 31.23C37.09 31.14 37.8 29.8901 38.54 30.0101C39.07 30.1001 39.3399 30.8301 39.4499 31.1401C39.9999 32.6101 39.34 34.1201 39.02 34.7501C40.27 33.4601 41.48 33.1 42.11 32.98C42.35 32.93 43.86 32.64 44.15 33.19C44.44 33.76 43.24 34.86 43.13 34.97C42.28 35.74 41.32 35.99 40.79 36.08C42.39 36.24 43.31 36.9201 43.72 37.2701C44.12 37.6201 44.82 38.2201 44.68 38.8001C44.53 39.4401 43.43 39.7201 42.67 39.6701C41.64 39.6001 40.98 38.91 40.8 38.71C41.11 38.98 41.88 39.7401 42.05 40.9301C42.14 41.5401 42.1299 42.71 41.5699 42.95C40.9599 43.21 40.02 42.19 39.56 41.7C38.87 40.96 38.49 40.2 38.28 39.69C38.18 40.24 37.89 41.4001 36.88 42.1801C36.63 42.3801 35.85 42.99 35.35 42.73C34.75 42.43 34.88 41.1001 35.06 40.3901C35.34 39.3401 36.01 38.67 36.36 38.37C35.58 38.74 34.25 39.2001 32.85 38.8001C32.52 38.7101 31.5099 38.42 31.4399 37.84C31.3799 37.31 32.13 36.85 32.38 36.69C33.52 35.98 34.84 36.1701 35.48 36.3101L35.5 36.32Z" stroke="white" stroke-width="0.5" stroke-miterlimit="10"/>
<path d="M86.2899 17.3802C84.5199 15.7902 82.4499 17.3002 80.4999 15.7902C78.9799 14.6202 78.8099 12.6002 78.7799 12.2702C78.6199 10.3802 79.5198 8.98023 79.8298 8.55023C80.7198 7.31023 81.2998 7.63019 82.2198 6.39019C83.3198 4.91019 82.7199 4.15013 83.7899 2.82013C84.0299 2.52013 85.0799 1.31015 86.8099 1.09015C87.0499 1.06015 88.4599 0.90016 89.7599 1.73016C90.9899 2.52016 90.7198 3.30016 91.7398 3.86016C93.1098 4.60016 94.0898 3.46022 95.5698 4.04022C96.8798 4.55022 97.7899 6.12016 97.9299 7.48016C98.1499 9.54016 96.4999 10.0202 96.0299 13.1002C95.7499 14.9302 96.2898 15.0802 95.8698 16.4902C95.7198 17.0102 94.8099 19.8102 92.1299 20.5402C90.7399 20.9202 89.0898 20.6702 87.9398 19.7602C86.8498 18.9002 87.2499 18.2502 86.2799 17.3802H86.2899Z" stroke="white" stroke-width="0.5" stroke-miterlimit="10"/>
<path d="M17.12 29.8303C16.47 29.2503 15.72 29.8003 15 29.2503C14.44 28.8203 14.38 28.0803 14.37 27.9603C14.31 27.2703 14.64 26.7603 14.75 26.6003C15.08 26.1503 15.29 26.2604 15.62 25.8104C16.02 25.2704 15.8 24.9904 16.2 24.5104C16.29 24.4004 16.6701 23.9603 17.3001 23.8803C17.3901 23.8703 17.9 23.8103 18.38 24.1203C18.83 24.4103 18.73 24.7004 19.11 24.9004C19.61 25.1704 19.97 24.7503 20.51 24.9603C20.99 25.1503 21.32 25.7203 21.37 26.2203C21.45 26.9703 20.8501 27.1504 20.6801 28.2704C20.5801 28.9404 20.78 28.9904 20.62 29.5104C20.56 29.7004 20.23 30.7303 19.25 30.9903C18.74 31.1303 18.14 31.0403 17.72 30.7103C17.32 30.3903 17.47 30.1603 17.11 29.8403L17.12 29.8303Z" stroke="white" stroke-width="0.5" stroke-miterlimit="10"/>
<path d="M15.0898 48.71C15.8398 49.37 16.7499 50.1701 17.1699 51.3901C17.6999 52.9401 16.7998 53.33 16.9898 55.48C17.1498 57.3 17.8198 57.3901 18.0898 59.7701C18.3298 61.8301 17.9099 62.4901 17.6599 62.7701C17.6099 62.8301 16.8299 63.7201 15.7899 63.5601C14.8999 63.4301 14.3098 62.61 14.1298 61.94C13.9198 61.17 14.3199 60.83 14.0399 60.44C13.5599 59.76 12.1998 60.58 11.3598 59.88C10.5398 59.2 11.2299 57.9001 10.4199 57.2901C9.63989 56.7101 8.62988 57.6 7.90988 57.01C7.19988 56.43 7.90979 55.3201 7.19979 54.5201C6.39979 53.6201 5.0098 54.46 4.2098 53.57C3.4998 52.79 4.30982 51.87 3.59982 50.85C2.85982 49.79 1.6099 50.22 1.0599 49.19C0.679901 48.47 0.829847 47.42 1.37985 46.94C1.85985 46.52 2.4999 46.6401 4.0599 46.8901C6.6399 47.3101 7.93985 47.5201 8.25985 47.5301C10.5899 47.5701 10.9998 46.6901 12.6198 47.1501C13.6798 47.4501 14.3998 48.08 15.0998 48.69L15.0898 48.71Z" stroke="white" stroke-width="0.5" stroke-miterlimit="10"/>
<path d="M62.9098 14.8501C62.5798 15.9801 62.1397 17.7101 61.8897 19.8401C61.4497 23.5401 60.6997 29.7902 64.3397 34.8002C65.2097 35.9902 67.0097 38.0801 70.4497 39.6201C69.0697 36.9601 67.6197 33.6001 66.4997 29.6101C65.7197 26.8401 65.2497 24.2701 64.9597 22.0101C66.0597 23.5301 67.2997 25.1301 68.7097 26.7701C69.7797 28.0201 70.8497 29.1701 71.8797 30.2201C71.8797 30.6001 72.0798 35.5101 76.2898 38.1501C79.7098 40.2901 83.2797 39.3601 83.8697 39.2001C82.3997 38.5101 80.5297 37.4601 78.5997 35.8801C76.8397 34.4401 75.5397 32.9701 74.5997 31.7501C77.1997 32.6601 80.0497 33.5202 83.1397 34.2802C85.0397 34.7502 86.8697 35.1301 88.6297 35.4501C88.3597 35.7501 87.5197 36.7501 87.4597 38.2301C87.3897 39.9001 88.3397 41.4001 89.5297 42.1001C90.6897 42.7801 91.0997 42.1401 93.1497 42.6501C95.5297 43.2501 95.9097 44.3601 97.3997 44.1501C98.4097 44.0101 99.3297 43.3602 99.8297 42.5602C100.55 41.4002 99.8297 40.7601 100.27 38.9601C100.8 36.7501 102.15 36.5901 102.15 34.8801C102.15 33.8301 101.64 32.5801 100.71 31.9601C99.7997 31.3501 99.2297 31.8201 97.8697 31.1501C96.6997 30.5801 96.8197 30.1001 95.8497 29.6201C94.6897 29.0501 92.8897 28.9302 91.4397 29.9102C89.7997 31.0102 89.5697 32.8802 89.5297 33.1702C85.0097 32.7802 81.5097 31.6301 79.2397 30.7101C75.8797 29.3401 70.3097 27.0501 67.2097 21.5001C66.6397 20.4901 66.2897 19.5901 66.0797 18.9901C65.6297 16.3701 65.1797 13.7401 64.7297 11.1201C64.3797 11.1201 63.9897 11.1501 63.5697 11.2001C63.1497 11.2501 62.7598 11.3201 62.4098 11.4001C62.5698 12.5501 62.7297 13.6901 62.8997 14.8401L62.9098 14.8501Z" stroke="white" stroke-width="0.5" stroke-miterlimit="10"/>
<path d="M10.15 19.7502C10.509 19.7502 10.8 19.4592 10.8 19.1002C10.8 18.7412 10.509 18.4502 10.15 18.4502C9.79104 18.4502 9.5 18.7412 9.5 19.1002C9.5 19.4592 9.79104 19.7502 10.15 19.7502Z" stroke="white" stroke-width="0.5" stroke-miterlimit="10"/>
<path d="M24.4597 55.3701C24.5923 55.3701 24.6997 55.2627 24.6997 55.1301C24.6997 54.9976 24.5923 54.8901 24.4597 54.8901C24.3272 54.8901 24.2197 54.9976 24.2197 55.1301C24.2197 55.2627 24.3272 55.3701 24.4597 55.3701Z" fill="white" stroke="white" stroke-width="0.5" stroke-miterlimit="10"/>
<path d="M55.6199 40.46C55.7524 40.46 55.8599 40.3525 55.8599 40.22C55.8599 40.0874 55.7524 39.98 55.6199 39.98C55.4873 39.98 55.3799 40.0874 55.3799 40.22C55.3799 40.3525 55.4873 40.46 55.6199 40.46Z" fill="white" stroke="white" stroke-width="0.5" stroke-miterlimit="10"/>
<path d="M13.3899 40.0698C13.5224 40.0698 13.6299 39.9624 13.6299 39.8298C13.6299 39.6973 13.5224 39.5898 13.3899 39.5898C13.2573 39.5898 13.1499 39.6973 13.1499 39.8298C13.1499 39.9624 13.2573 40.0698 13.3899 40.0698Z" fill="white" stroke="white" stroke-width="0.5" stroke-miterlimit="10"/>
<path d="M22.5199 77.7902C23.4533 77.7902 24.2098 77.0335 24.2098 76.1001C24.2098 75.1667 23.4533 74.4102 22.5199 74.4102C21.5865 74.4102 20.8298 75.1667 20.8298 76.1001C20.8298 77.0335 21.5865 77.7902 22.5199 77.7902Z" stroke="white" stroke-width="0.5" stroke-miterlimit="10"/>
<path d="M105.83 18.4502C105.962 18.4502 106.07 18.3428 106.07 18.2102C106.07 18.0777 105.962 17.9702 105.83 17.9702C105.697 17.9702 105.59 18.0777 105.59 18.2102C105.59 18.3428 105.697 18.4502 105.83 18.4502Z" fill="white" stroke="white" stroke-width="0.5" stroke-miterlimit="10"/>
<path d="M30.3 22.1102C30.4768 22.1102 30.62 21.967 30.62 21.7903C30.62 21.6136 30.4768 21.4702 30.3 21.4702C30.1233 21.4702 29.98 21.6136 29.98 21.7903C29.98 21.967 30.1233 22.1102 30.3 22.1102Z" stroke="white" stroke-width="0.5" stroke-miterlimit="10"/>
<path d="M82.99 28.1499C83.1225 28.1499 83.23 28.0425 83.23 27.9099C83.23 27.7774 83.1225 27.6699 82.99 27.6699C82.8574 27.6699 82.75 27.7774 82.75 27.9099C82.75 28.0425 82.8574 28.1499 82.99 28.1499Z" fill="white" stroke="white" stroke-width="0.5" stroke-miterlimit="10"/>
<path d="M50.6399 16.0502C50.8166 16.0502 50.9598 15.9068 50.9598 15.7301C50.9598 15.5534 50.8166 15.4102 50.6399 15.4102C50.4632 15.4102 50.3198 15.5534 50.3198 15.7301C50.3198 15.9068 50.4632 16.0502 50.6399 16.0502Z" stroke="white" stroke-width="0.5" stroke-miterlimit="10"/>
</svg>
