<?xml version="1.0" encoding="UTF-8"?>
<svg id="_Слой_2" data-name="Слой 2" xmlns="http://www.w3.org/2000/svg" viewBox="0 0 224.83 593.11">
  <defs>
    <style>
      .cls-1 {
        fill: #fff;
      }

      .cls-1, .cls-2, .cls-3 {
        stroke: #000;
        stroke-width: .5px;
      }

      .cls-1, .cls-3 {
        stroke-miterlimit: 10;
      }

      .cls-2 {
        stroke-linejoin: round;
      }

      .cls-2, .cls-3 {
        fill: none;
      }
    </style>
  </defs>
  <g id="_Слой_2-2" data-name="Слой 2">
    <g>
      <path class="cls-3" d="M209.94,586.54c1.5-.21,2.73.62,2.94,1.65.15.77-.26,1.68-.89,1.97-.96.44-2.66-.44-3.82-2.53.23.48,1.11,2.41.23,4-.05.09-.76,1.34-1.5,1.22-.53-.09-.8-.82-.91-1.13-.55-1.47.11-2.98.43-3.61-1.25,1.29-2.46,1.65-3.09,1.77-.24.05-1.75.34-2.04-.21-.29-.57.91-1.67,1.02-1.78.85-.77,1.81-1.02,2.34-1.11-1.6-.16-2.52-.84-2.93-1.19-.4-.35-1.1-.95-.96-1.53.15-.64,1.25-.92,2.01-.87,1.03.07,1.69.76,1.87.96-.31-.27-1.08-1.03-1.25-2.22-.09-.61-.08-1.78.48-2.02.61-.26,1.55.76,2.01,1.25.69.74,1.07,1.5,1.28,2.01.1-.55.39-1.71,1.4-2.49.25-.2,1.03-.81,1.53-.55.6.3.47,1.63.29,2.34-.28,1.05-.95,1.72-1.3,2.02.78-.37,2.11-.83,3.51-.43.33.09,1.34.38,1.41.96.06.53-.69.99-.94,1.15-1.14.71-2.46.52-3.1.38Z"/>
      <path class="cls-3" d="M34.26,433.75c.65.58,1.4.03,2.12.58.56.43.62,1.17.63,1.29.06.69-.27,1.2-.38,1.36-.33.45-.54.34-.87.79-.4.54-.18.82-.58,1.3-.09.11-.47.55-1.1.63-.09.01-.6.07-1.08-.24-.45-.29-.35-.58-.73-.78-.5-.27-.86.15-1.4-.06-.48-.19-.81-.76-.86-1.26-.08-.75.52-.93.69-2.05.1-.67-.1-.72.06-1.24.06-.19.39-1.22,1.37-1.48.51-.14,1.11-.05,1.53.28.4.32.25.55.61.87Z"/>
      <circle class="cls-3" cx="39.55" cy="250" r=".65"/>
      <circle class="cls-1" cx="70.14" cy="265.42" r=".24"/>
      <circle class="cls-1" cx="41.29" cy="244.92" r=".24"/>
      <circle class="cls-1" cx="53.19" cy="107.55" r=".24"/>
      <circle class="cls-3" cx="47.99" cy="15.81" r="1.69"/>
      <circle class="cls-1" cx="181.39" cy="261.06" r=".24"/>
      <circle class="cls-3" cx="22.36" cy="46.59" r=".32"/>
      <circle class="cls-1" cx="46.35" cy="112.37" r=".24"/>
      <path class="cls-2" d="M15.01,365.99c.03,1.43-.9,2.49-1.89,2.56-.74.05-1.54-.43-1.74-1.06-.3-.95.72-2.44,2.8-3.29-.47.16-2.38.76-3.77-.24-.08-.06-1.17-.86-.97-1.55.14-.48.86-.65,1.16-.73,1.44-.34,2.78.44,3.34.82-1.07-1.31-1.26-2.5-1.31-3.09-.02-.23-.12-1.68.44-1.89.57-.21,1.46,1.04,1.55,1.16.62.88.75,1.81.77,2.32.33-1.48,1.07-2.27,1.45-2.61.37-.34,1.02-.92,1.55-.73.58.22.71,1.28.58,1.98-.18.96-.9,1.5-1.11,1.64.29-.26,1.09-.9,2.22-.92.58-.01,1.68.13,1.84.68.17.6-.89,1.37-1.4,1.74-.77.56-1.52.83-2.03.97.51.16,1.55.57,2.18,1.6.16.26.64,1.06.34,1.5-.35.52-1.58.25-2.22,0-.95-.38-1.5-1.09-1.74-1.45.26.78.54,2.07,0,3.34-.13.3-.51,1.21-1.06,1.21-.5,0-.85-.76-.97-1.02-.53-1.15-.21-2.36,0-2.95Z"/>
      <path class="cls-2" d="M132.68,353.55c.03,1.43-.9,2.49-1.89,2.56-.74.05-1.54-.43-1.74-1.06-.3-.95.72-2.44,2.8-3.29-.47.16-2.38.76-3.77-.24-.08-.06-1.17-.86-.97-1.55.14-.48.86-.65,1.16-.73,1.44-.34,2.78.44,3.34.82-1.07-1.31-1.26-2.5-1.31-3.09-.02-.23-.12-1.68.44-1.89.57-.21,1.46,1.04,1.55,1.16.62.88.75,1.81.77,2.32.33-1.48,1.07-2.27,1.45-2.61.37-.34,1.02-.92,1.55-.73.58.22.71,1.28.58,1.98-.18.96-.9,1.5-1.11,1.64.29-.26,1.09-.9,2.22-.92.58-.01,1.68.13,1.84.68.17.6-.89,1.37-1.4,1.74-.77.56-1.52.83-2.03.97.51.16,1.55.57,2.18,1.6.16.26.64,1.06.34,1.5-.35.52-1.58.25-2.22,0-.95-.38-1.5-1.09-1.74-1.45.26.78.54,2.07,0,3.34-.13.3-.51,1.21-1.06,1.21-.5,0-.85-.76-.97-1.02-.53-1.15-.21-2.36,0-2.95Z"/>
      <path class="cls-2" d="M88.67,258.89c.05,2.35-1.47,4.1-3.1,4.22-1.21.09-2.54-.71-2.87-1.75-.5-1.57,1.18-4.02,4.62-5.41-.78.27-3.92,1.25-6.21-.4-.13-.1-1.93-1.42-1.59-2.55.24-.8,1.41-1.07,1.91-1.19,2.38-.57,4.58.73,5.49,1.35-1.76-2.17-2.08-4.11-2.15-5.09-.03-.39-.19-2.77.72-3.1.94-.35,2.41,1.71,2.55,1.91,1.03,1.46,1.23,2.98,1.27,3.82.55-2.43,1.77-3.74,2.39-4.3.61-.55,1.68-1.52,2.55-1.19.95.36,1.18,2.1.96,3.26-.3,1.58-1.49,2.47-1.83,2.71.48-.43,1.8-1.48,3.66-1.51.96-.02,2.77.22,3.03,1.11.28.99-1.47,2.26-2.31,2.87-1.27.92-2.51,1.36-3.34,1.59.83.26,2.56.93,3.58,2.63.26.43,1.05,1.74.56,2.47-.58.86-2.61.42-3.66,0-1.57-.62-2.47-1.79-2.87-2.39.43,1.28.88,3.41,0,5.49-.21.49-.85,2-1.75,1.99-.82,0-1.4-1.26-1.59-1.67-.88-1.9-.34-3.89,0-4.86Z"/>
      <path class="cls-2" d="M16.4,24.79c.08,4.13-2.59,7.2-5.45,7.41-2.13.16-4.46-1.26-5.03-3.08-.87-2.76,2.08-7.07,8.11-9.51-1.36.47-6.89,2.2-10.91-.7-.23-.17-3.39-2.49-2.8-4.47.42-1.4,2.48-1.89,3.36-2.1,4.18-.99,8.04,1.28,9.65,2.38-3.09-3.8-3.66-7.22-3.78-8.95-.05-.68-.33-4.87,1.26-5.45,1.64-.61,4.23,3.01,4.47,3.36,1.8,2.56,2.16,5.24,2.24,6.71.97-4.27,3.1-6.56,4.2-7.55,1.07-.97,2.95-2.67,4.47-2.1,1.68.63,2.06,3.7,1.68,5.73-.53,2.77-2.62,4.34-3.22,4.75.85-.75,3.16-2.59,6.43-2.66,1.69-.03,4.86.38,5.31,1.96.5,1.74-2.57,3.96-4.06,5.03-2.23,1.62-4.41,2.4-5.87,2.8,1.46.45,4.49,1.64,6.29,4.61.45.75,1.84,3.05.98,4.33-1.02,1.51-4.58.73-6.43,0-2.75-1.09-4.33-3.14-5.03-4.2.75,2.25,1.55,5.99,0,9.65-.37.86-1.49,3.51-3.08,3.5-1.44,0-2.46-2.21-2.8-2.94-1.54-3.33-.61-6.83,0-8.53Z"/>
      <path class="cls-3" d="M220.9,268.21c-1.69,1.47-.51,3.59-2.15,5.24-1.27,1.29-3.18,1.22-3.5,1.21-1.79-.06-3-1.07-3.36-1.41-1.06-.98-.7-1.49-1.75-2.49-1.26-1.2-2.04-.72-3.16-1.88-.25-.26-1.27-1.38-1.28-3.03,0-.23,0-1.57.94-2.69.88-1.06,1.58-.72,2.22-1.61.85-1.2-.11-2.25.61-3.56.63-1.17,2.2-1.84,3.5-1.82,1.96.03,2.22,1.63,5.04,2.42,1.68.47,1.88-.02,3.16.54.47.2,2.99,1.38,3.36,3.97.19,1.35-.23,2.87-1.21,3.83-.93.92-1.5.47-2.42,1.28Z"/>
      <path class="cls-3" d="M36.47,238.73c-2.21,1.93-.67,4.7-2.82,6.87-1.67,1.69-4.17,1.6-4.58,1.59-2.35-.08-3.93-1.41-4.41-1.85-1.39-1.28-.91-1.95-2.29-3.26-1.65-1.57-2.67-.95-4.14-2.47-.33-.35-1.66-1.8-1.67-3.97,0-.3.01-2.05,1.23-3.53,1.15-1.39,2.08-.94,2.91-2.12,1.12-1.58-.14-2.95.79-4.67.83-1.53,2.89-2.41,4.58-2.38,2.57.05,2.91,2.14,6.61,3.17,2.2.61,2.46-.02,4.14.7.62.27,3.92,1.8,4.41,5.2.25,1.77-.3,3.76-1.59,5.02-1.22,1.2-1.96.62-3.17,1.67Z"/>
      <path class="cls-3" d="M31.54,88.05c-.62.54-.19,1.31-.79,1.92-.47.47-1.16.45-1.28.44-.66-.02-1.1-.39-1.23-.52-.39-.36-.26-.54-.64-.91-.46-.44-.75-.26-1.16-.69-.09-.1-.46-.5-.47-1.11,0-.08,0-.57.34-.98.32-.39.58-.26.81-.59.31-.44-.04-.82.22-1.3.23-.43.81-.67,1.28-.66.72.01.81.6,1.84.89.62.17.69,0,1.16.2.17.07,1.09.5,1.23,1.45.07.49-.08,1.05-.44,1.4-.34.34-.55.17-.89.47Z"/>
      <path class="cls-3" d="M45.79,29.57c.24.39.54.86.56,1.45.03.75-.42.8-.62,1.77-.17.82.11.95-.08,2.03-.17.94-.44,1.17-.58,1.26-.03.02-.49.31-.93.1-.37-.18-.52-.61-.52-.93,0-.37.23-.46.16-.67-.12-.36-.83-.18-1.1-.6-.27-.41.2-.88-.07-1.26-.26-.36-.83-.1-1.06-.45-.24-.35.22-.74.02-1.19-.23-.5-.95-.31-1.19-.81-.21-.43.27-.73.09-1.27-.19-.56-.79-.54-.89-1.06-.07-.36.13-.81.44-.95.26-.12.53.01,1.18.33,1.08.53,1.62.79,1.76.83,1.02.32,1.31,0,1.96.41.43.27.66.64.88,1Z"/>
      <path class="cls-3" d="M19.67,101.75c.7-.63,1.56-1.39,2.75-1.64,1.51-.32,1.78.57,3.81.64,1.72.06,1.88-.56,4.15-.54,1.96.02,2.52.48,2.77.74.05.05.8.88.53,1.85-.23.81-1.06,1.28-1.71,1.37-.75.11-1.02-.3-1.42-.09-.7.38-.08,1.74-.83,2.44-.74.69-1.87-.1-2.53.58-.64.66.08,1.71-.55,2.32-.63.6-1.58-.2-2.42.38-.93.65-.31,2.04-1.23,2.7-.81.57-1.58-.29-2.62.26-1.08.57-.82,1.79-1.85,2.19-.71.28-1.68.02-2.07-.56-.34-.49-.15-1.08.26-2.51.69-2.37,1.04-3.56,1.08-3.86.3-2.17-.47-2.66.15-4.13.41-.96,1.08-1.56,1.73-2.14Z"/>
      <path class="cls-2" d="M193.46,365.97c.28-.58.67-1.46,1-2.57.58-1.94,1.55-5.2.06-8.22-.35-.72-1.13-1.99-2.82-3.14.49,1.55.96,3.47,1.19,5.71.16,1.55.18,2.97.13,4.2-.45-.91-.97-1.88-1.57-2.89-.46-.76-.92-1.48-1.38-2.13.03-.2.38-2.85-1.63-4.64-1.63-1.46-3.62-1.29-3.95-1.25.72.5,1.62,1.24,2.51,2.26.81.93,1.37,1.84,1.76,2.57-1.31-.72-2.75-1.45-4.33-2.13-.97-.42-1.91-.8-2.82-1.13.17-.14.71-.59.88-1.38.19-.88-.18-1.77-.75-2.26-.56-.47-.84-.16-1.88-.63-1.21-.54-1.32-1.16-2.13-1.19-.55-.02-1.11.25-1.44.63-.49.56-.17.96-.56,1.88-.49,1.13-1.22,1.09-1.38,2.01-.1.56.06,1.27.5,1.69.43.41.77.21,1.44.69.57.41.46.66.94,1,.57.41,1.52.64,2.38.25.98-.44,1.27-1.41,1.32-1.57,2.38.62,4.14,1.55,5.27,2.26,1.67,1.04,4.43,2.77,5.58,6.02.21.59.32,1.1.38,1.44v4.33c.19.03.4.05.63.06.23.01.44,0,.64,0,.02-.63.04-1.25.05-1.88Z"/>
      <circle class="cls-3" cx="200.6" cy="251.69" r="1.69"/>
      <circle class="cls-3" cx="22.36" cy="348.85" r=".65"/>
      <circle class="cls-1" cx="27.37" cy="429.48" r=".24"/>
      <circle class="cls-1" cx="178.17" cy="437.81" r=".24"/>
      <circle class="cls-1" cx="18.35" cy="345.46" r=".24"/>
      <circle class="cls-3" cx="204.8" cy="347.16" r="1.69"/>
      <circle class="cls-1" cx="184.81" cy="439.89" r=".24"/>
      <circle class="cls-3" cx="200.6" cy="357.51" r=".32"/>
      <circle class="cls-1" cx="211.9" cy="575.8" r=".24"/>
      <circle class="cls-3" cx="123.77" cy="363.73" r=".32"/>
    </g>
  </g>
</svg>