<svg width="121" height="231" viewBox="0 0 121 231" fill="none" xmlns="http://www.w3.org/2000/svg">
<path d="M72.35 174.95C71.67 177.42 72.81 179.66 74.5 180.22C75.75 180.64 77.36 180.14 77.99 179.14C78.93 177.62 77.81 174.59 74.57 172.21C75.32 172.7 78.37 174.57 81.22 173.45C81.39 173.38 83.63 172.47 83.58 171.19C83.54 170.29 82.3801 169.68 81.8901 169.42C79.5401 168.19 76.87 168.97 75.74 169.38C78.17 167.57 79.03 165.61 79.36 164.59C79.49 164.19 80.3001 161.72 79.4301 161.13C78.5401 160.52 76.43 162.29 76.24 162.46C74.77 163.72 74.1501 165.27 73.8801 166.15C73.9501 163.44 73.0101 161.74 72.5101 160.99C72.0101 160.25 71.1401 158.94 70.1401 159.05C69.0401 159.17 68.3401 160.95 68.2601 162.23C68.1601 163.97 69.17 165.23 69.47 165.57C69.08 164.99 67.9701 163.54 66.0201 163C65.0101 162.72 63.0501 162.49 62.5401 163.37C61.9801 164.34 63.48 166.14 64.21 167C65.3 168.31 66.4901 169.11 67.3101 169.57C66.3701 169.62 64.37 169.87 62.84 171.38C62.45 171.76 61.27 172.93 61.6 173.83C61.98 174.89 64.24 174.97 65.46 174.81C67.28 174.57 68.54 173.58 69.12 173.06C68.33 174.29 67.2801 176.42 67.6601 178.85C67.7501 179.42 68.02 181.18 68.97 181.41C69.84 181.62 70.78 180.46 71.09 180.07C72.52 178.31 72.4901 176.07 72.3801 174.95H72.35Z" stroke="black" stroke-width="0.25" stroke-miterlimit="10"/>
<path d="M85.4599 18.52C87.7399 21.82 84.77 24.96 86.89 28.56C88.54 31.35 91.87 32.07 92.42 32.19C95.56 32.87 98.09 31.6399 98.87 31.2199C101.14 29.9899 100.73 28.9499 102.99 27.6699C105.7 26.1399 106.85 27.3099 109.3 25.7899C109.86 25.4399 112.1 23.9599 112.84 21.0999C112.94 20.7099 113.51 18.38 112.39 16.02C111.33 13.8 109.96 14.08 109.25 12.25C108.3 9.78996 110.42 8.39995 109.76 5.79995C109.18 3.49995 106.75 1.64995 104.49 1.11995C101.08 0.319954 99.92 2.97994 94.68 3.10994C91.56 3.17994 91.4299 2.24993 88.9599 2.65993C88.0599 2.80993 83.17 3.73997 81.39 8.06997C80.47 10.32 80.53 13.14 81.81 15.25C83.03 17.25 84.1999 16.73 85.4499 18.53L85.4599 18.52Z" stroke="black" stroke-width="0.25" stroke-miterlimit="10"/>
<path d="M79.3202 207.11C80.1602 208.32 79.0703 209.47 79.8403 210.78C80.4403 211.8 81.6603 212.07 81.8603 212.11C83.0103 212.36 83.9303 211.91 84.2203 211.75C85.0503 211.3 84.9003 210.92 85.7303 210.45C86.7203 209.89 87.1403 210.32 88.0403 209.76C88.2403 209.63 89.0603 209.09 89.3403 208.04C89.3803 207.9 89.5903 207.04 89.1703 206.18C88.7803 205.37 88.2803 205.47 88.0203 204.8C87.6703 203.9 88.4502 203.39 88.2102 202.44C88.0002 201.6 87.1103 200.92 86.2803 200.73C85.0303 200.44 84.6102 201.41 82.6902 201.46C81.5502 201.49 81.5003 201.15 80.6003 201.29C80.2703 201.34 78.4802 201.68 77.8302 203.27C77.4902 204.09 77.5103 205.13 77.9803 205.9C78.4303 206.63 78.8503 206.44 79.3103 207.1L79.3202 207.11Z" stroke="black" stroke-width="0.25" stroke-miterlimit="10"/>
<path d="M47.27 206.52C46.33 205.12 45.1799 203.42 43.2199 202.47C40.7299 201.26 39.8899 202.67 36.3199 201.9C33.3099 201.25 33.3 200.1 29.36 199.14C25.95 198.31 24.77 198.87 24.24 199.22C24.13 199.29 22.47 200.4 22.51 202.19C22.55 203.7 23.79 204.87 24.87 205.32C26.12 205.84 26.77 205.24 27.37 205.79C28.41 206.75 26.74 208.84 27.74 210.39C28.71 211.91 31.02 211.03 31.88 212.51C32.7 213.93 30.9799 215.44 31.8199 216.77C32.6499 218.09 34.6499 217.12 35.8399 218.49C37.1699 220.02 35.48 222.17 36.79 223.71C37.94 225.06 39.6499 223.9 41.2199 225.32C42.8399 226.78 41.8599 228.78 43.4699 229.92C44.5899 230.71 46.38 230.69 47.31 229.86C48.11 229.15 48.0499 228.05 47.9499 225.39C47.7899 220.97 47.71 218.76 47.77 218.21C48.2 214.31 49.7599 213.8 49.3299 210.99C49.0499 209.15 48.14 207.81 47.27 206.52Z" stroke="black" stroke-width="0.25" stroke-miterlimit="10"/>
<path d="M114.12 133.58C112.15 133.9 109.17 134.26 105.54 134.24C99.2402 134.2 88.6201 134.13 80.9901 126.97C79.1701 125.27 76.0701 121.8 74.2001 115.71C78.3701 118.58 83.6801 121.72 90.1301 124.44C94.6101 126.33 98.8102 127.67 102.54 128.63C100.22 126.47 97.8001 124.04 95.3601 121.34C93.5001 119.28 91.8001 117.25 90.2501 115.29C89.6201 115.2 81.4201 113.84 77.8901 106.22C75.0301 100.03 77.3301 94.2601 77.7401 93.3001C78.5901 95.9101 79.9501 99.2602 82.2001 102.83C84.2501 106.08 86.4302 108.58 88.2702 110.4C87.3002 105.85 86.4501 100.89 85.8401 95.5602C85.4601 92.2802 85.2002 89.1301 85.0402 86.1201C84.4802 86.5101 82.6301 87.7001 80.1301 87.4901C77.3201 87.2501 75.0101 85.3402 74.0801 83.2002C73.1801 81.1202 74.3502 80.5502 73.9202 77.0202C73.4202 72.9102 71.6402 72.0402 72.3002 69.5802C72.7402 67.9202 74.0401 66.5101 75.4801 65.8501C77.5801 64.8901 78.5001 66.2201 81.6001 65.8701C85.4101 65.4501 85.9701 63.2202 88.8401 63.5802C90.6001 63.8002 92.5802 64.9201 93.4302 66.6101C94.2602 68.2601 93.3602 69.1101 94.1802 71.5401C94.8802 73.6101 95.7201 73.5202 96.3201 75.2602C97.0301 77.3202 96.8502 80.3702 94.9102 82.5902C92.7102 85.1002 89.5402 85.1002 89.0402 85.0902C88.7302 92.7502 89.9201 98.8501 90.9901 102.85C92.5801 108.77 95.2201 118.58 103.88 124.95C105.46 126.11 106.88 126.9 107.84 127.38C112.14 128.69 116.44 130 120.74 131.31C120.65 131.9 120.53 132.55 120.36 133.24C120.19 133.93 119.99 134.57 119.78 135.13C117.89 134.62 116.01 134.1 114.12 133.59V133.58Z" stroke="black" stroke-width="0.25" stroke-miterlimit="10"/>
<path d="M95.84 222.16C96.442 222.16 96.9301 221.672 96.9301 221.07C96.9301 220.468 96.442 219.98 95.84 219.98C95.238 219.98 94.75 220.468 94.75 221.07C94.75 221.672 95.238 222.16 95.84 222.16Z" stroke="black" stroke-width="0.25" stroke-miterlimit="10"/>
<path d="M38.4901 189.87C38.7165 189.87 38.9001 189.686 38.9001 189.46C38.9001 189.233 38.7165 189.05 38.4901 189.05C38.2637 189.05 38.0801 189.233 38.0801 189.46C38.0801 189.686 38.2637 189.87 38.4901 189.87Z" fill="white" stroke="black" stroke-width="0.25" stroke-miterlimit="10"/>
<path d="M70.0801 140.82C70.3065 140.82 70.4901 140.636 70.4901 140.41C70.4901 140.184 70.3065 140 70.0801 140C69.8536 140 69.6702 140.184 69.6702 140.41C69.6702 140.636 69.8536 140.82 70.0801 140.82Z" fill="white" stroke="black" stroke-width="0.25" stroke-miterlimit="10"/>
<path d="M61.7902 211.66C62.0166 211.66 62.2001 211.476 62.2001 211.25C62.2001 211.023 62.0166 210.84 61.7902 210.84C61.5637 210.84 61.3801 211.023 61.3801 211.25C61.3801 211.476 61.5637 211.66 61.7902 211.66Z" fill="white" stroke="black" stroke-width="0.25" stroke-miterlimit="10"/>
<path d="M3.04016 201.57C4.6197 201.57 5.90015 200.29 5.90015 198.71C5.90015 197.131 4.6197 195.85 3.04016 195.85C1.46063 195.85 0.180176 197.131 0.180176 198.71C0.180176 200.29 1.46063 201.57 3.04016 201.57Z" stroke="black" stroke-width="0.25" stroke-miterlimit="10"/>
<path d="M85.8802 47.8298C86.1067 47.8298 86.2903 47.6462 86.2903 47.4197C86.2903 47.1933 86.1067 47.0098 85.8802 47.0098C85.6538 47.0098 85.4702 47.1933 85.4702 47.4197C85.4702 47.6462 85.6538 47.8298 85.8802 47.8298Z" fill="white" stroke="black" stroke-width="0.25" stroke-miterlimit="10"/>
<path d="M95.59 187.29C95.8937 187.29 96.14 187.044 96.14 186.74C96.14 186.436 95.8937 186.19 95.59 186.19C95.2862 186.19 95.04 186.436 95.04 186.74C95.04 187.044 95.2862 187.29 95.59 187.29Z" stroke="black" stroke-width="0.25" stroke-miterlimit="10"/>
<path d="M96.5001 97.57C96.7266 97.57 96.9102 97.3864 96.9102 97.16C96.9102 96.9335 96.7266 96.75 96.5001 96.75C96.2737 96.75 96.0901 96.9335 96.0901 97.16C96.0901 97.3864 96.2737 97.57 96.5001 97.57Z" fill="white" stroke="black" stroke-width="0.25" stroke-miterlimit="10"/>
<path d="M102.33 108.02C102.634 108.02 102.88 107.774 102.88 107.47C102.88 107.166 102.634 106.92 102.33 106.92C102.026 106.92 101.78 107.166 101.78 107.47C101.78 107.774 102.026 108.02 102.33 108.02Z" stroke="black" stroke-width="0.25" stroke-miterlimit="10"/>
</svg>
