<svg width="368" height="439" viewBox="0 0 368 439" fill="none" xmlns="http://www.w3.org/2000/svg">
<path d="M186.33 294.87C184.59 301.2 187.52 306.97 191.84 308.41C195.06 309.48 199.2 308.21 200.79 305.63C203.21 301.72 200.34 293.93 192 287.82C193.92 289.07 201.75 293.9 209.08 290.99C209.51 290.82 215.27 288.47 215.13 285.19C215.03 282.87 212.05 281.32 210.78 280.65C204.73 277.49 197.89 279.5 194.99 280.55C201.23 275.89 203.44 270.86 204.29 268.23C204.63 267.21 206.7 260.86 204.48 259.34C202.19 257.77 196.79 262.33 196.28 262.77C192.51 266.01 190.91 270 190.22 272.24C190.4 265.28 188 260.92 186.7 258.97C185.43 257.06 183.19 253.7 180.62 253.99C177.79 254.31 176 258.88 175.8 262.17C175.53 266.64 178.14 269.87 178.9 270.75C177.89 269.27 175.04 265.53 170.03 264.15C167.44 263.44 162.39 262.84 161.08 265.1C159.64 267.58 163.5 272.21 165.37 274.44C168.18 277.8 171.23 279.85 173.33 281.04C170.9 281.16 165.77 281.81 161.84 285.7C160.85 286.68 157.81 289.68 158.64 292C159.62 294.73 165.41 294.92 168.55 294.51C173.22 293.9 176.45 291.36 177.94 290.01C175.91 293.18 173.22 298.64 174.18 304.88C174.41 306.35 175.11 310.86 177.56 311.46C179.79 312.01 182.21 309.02 183.01 308.03C186.68 303.5 186.6 297.74 186.33 294.89V294.87Z" stroke="black" stroke-width="2" stroke-linejoin="round"/>
<path d="M295.47 86.5304C301.34 95.0004 293.71 103.09 299.15 112.32C303.38 119.5 311.95 121.35 313.37 121.65C321.42 123.39 327.93 120.24 329.94 119.15C335.76 115.99 334.72 113.31 340.53 110.03C347.49 106.1 350.43 109.11 356.73 105.2C358.16 104.31 363.92 100.49 365.83 93.1603C366.09 92.1503 367.56 86.1703 364.67 80.1103C361.94 74.4003 358.43 75.1203 356.6 70.4203C354.15 64.1003 359.61 60.5203 357.92 53.8603C356.42 47.9403 350.18 43.1904 344.39 41.8304C335.63 39.7804 332.66 46.6103 319.19 46.9303C311.17 47.1203 310.83 44.7304 304.5 45.7704C302.18 46.1504 289.61 48.5303 285.05 59.6603C282.68 65.4503 282.84 72.6903 286.12 78.1003C289.25 83.2403 292.26 81.8904 295.47 86.5204V86.5304Z" stroke="black" stroke-width="2" stroke-miterlimit="10"/>
<path d="M204.23 377.49C206.38 380.59 203.58 383.55 205.58 386.93C207.13 389.56 210.26 390.23 210.78 390.34C213.73 390.98 216.11 389.82 216.84 389.42C218.97 388.26 218.59 387.29 220.72 386.08C223.27 384.64 224.34 385.74 226.65 384.31C227.17 383.99 229.28 382.59 229.98 379.9C230.08 379.53 230.61 377.34 229.55 375.13C228.55 373.04 227.27 373.3 226.6 371.58C225.7 369.27 227.7 367.96 227.08 365.52C226.53 363.35 224.25 361.62 222.13 361.12C218.92 360.37 217.84 362.87 212.91 362.99C209.97 363.06 209.85 362.19 207.54 362.56C206.69 362.7 202.09 363.57 200.42 367.64C199.55 369.76 199.61 372.41 200.81 374.39C201.95 376.27 203.06 375.78 204.23 377.47V377.49Z" stroke="black" stroke-width="2" stroke-miterlimit="10"/>
<path d="M121.9 375.97C119.47 372.38 116.53 368.02 111.49 365.56C105.1 362.44 102.93 366.09 93.7801 364.11C86.0401 362.44 86.0201 359.5 75.9001 357.02C67.1501 354.88 64.11 356.33 62.74 357.22C62.47 357.39 58.1901 360.26 58.3101 364.85C58.4101 368.73 61.59 371.73 64.36 372.89C67.58 374.24 69.2401 372.68 70.7701 374.09C73.4401 376.55 69.16 381.93 71.72 385.92C74.22 389.82 80.16 387.56 82.35 391.38C84.45 395.03 80.05 398.91 82.2 402.32C84.33 405.7 89.4801 403.22 92.5401 406.73C95.9601 410.66 91.6 416.18 94.98 420.13C97.94 423.59 102.33 420.61 106.36 424.26C110.52 428.02 108 433.15 112.13 436.08C115 438.11 119.61 438.05 122 435.93C124.06 434.11 123.9 431.29 123.65 424.44C123.24 413.09 123.03 407.41 123.18 406C124.29 395.97 128.28 394.68 127.18 387.45C126.46 382.71 124.13 379.27 121.89 375.96L121.9 375.97Z" stroke="black" stroke-width="2" stroke-miterlimit="10"/>
<path d="M293.63 188.57C288.57 189.39 280.92 190.32 271.6 190.26C255.43 190.16 228.14 189.98 208.53 171.59C203.87 167.22 195.88 158.3 191.09 142.66C201.81 150.04 215.45 158.1 232.02 165.09C243.53 169.94 254.32 173.38 263.91 175.85C257.95 170.29 251.74 164.07 245.47 157.12C240.69 151.82 236.32 146.62 232.35 141.58C230.72 141.34 209.67 137.85 200.6 118.27C193.24 102.38 199.17 87.5401 200.2 85.0801C202.37 91.7901 205.88 100.39 211.64 109.56C216.89 117.91 222.51 124.32 227.24 129C224.75 117.31 222.58 104.58 221 90.8801C220.03 82.4601 219.36 74.3601 218.93 66.6301C217.49 67.6401 212.73 70.7001 206.32 70.1401C199.11 69.5101 193.16 64.62 190.78 59.11C188.48 53.76 191.47 52.31 190.36 43.24C189.07 32.68 184.51 30.4501 186.2 24.1301C187.34 19.8801 190.66 16.24 194.37 14.54C199.77 12.07 202.14 15.49 210.1 14.6C219.89 13.51 221.32 7.79008 228.69 8.71008C233.21 9.28008 238.29 12.1401 240.49 16.5001C242.62 20.7301 240.31 22.93 242.41 29.16C244.21 34.49 246.36 34.2401 247.9 38.7001C249.73 44.0001 249.27 51.83 244.27 57.54C238.63 63.98 230.48 63.99 229.19 63.97C228.4 83.64 231.44 99.3201 234.2 109.58C238.29 124.78 245.08 150 267.3 166.37C271.35 169.35 275 171.37 277.47 172.61C288.52 175.97 299.57 179.34 310.61 182.7C310.39 184.22 310.07 185.88 309.63 187.65C309.18 189.43 308.67 191.06 308.15 192.51C303.3 191.19 298.46 189.87 293.61 188.54L293.63 188.57Z" stroke="black" stroke-width="2" stroke-miterlimit="10"/>
<path d="M246.66 416.14C248.207 416.14 249.46 414.886 249.46 413.34C249.46 411.794 248.207 410.54 246.66 410.54C245.114 410.54 243.86 411.794 243.86 413.34C243.86 414.886 245.114 416.14 246.66 416.14Z" stroke="black" stroke-miterlimit="10"/>
<path d="M99.3402 333.2C99.9256 333.2 100.4 332.726 100.4 332.14C100.4 331.555 99.9256 331.08 99.3402 331.08C98.7548 331.08 98.2803 331.555 98.2803 332.14C98.2803 332.726 98.7548 333.2 99.3402 333.2Z" fill="white" stroke="black" stroke-miterlimit="10"/>
<path d="M180.5 207.2C181.085 207.2 181.56 206.725 181.56 206.14C181.56 205.555 181.085 205.08 180.5 205.08C179.915 205.08 179.44 205.555 179.44 206.14C179.44 206.725 179.915 207.2 180.5 207.2Z" fill="white" stroke="black" stroke-miterlimit="10"/>
<path d="M159.19 389.18C159.775 389.18 160.25 388.705 160.25 388.12C160.25 387.535 159.775 387.06 159.19 387.06C158.605 387.06 158.13 387.535 158.13 388.12C158.13 388.705 158.605 389.18 159.19 389.18Z" fill="white" stroke="black" stroke-miterlimit="10"/>
<path d="M8.03015 336.42C12.0894 336.42 15.3801 333.129 15.3801 329.07C15.3801 325.011 12.0894 321.72 8.03015 321.72C3.97086 321.72 0.680176 325.011 0.680176 329.07C0.680176 333.129 3.97086 336.42 8.03015 336.42Z" stroke="black" stroke-miterlimit="10"/>
<path d="M302.56 3.05017C303.145 3.05017 303.62 2.5756 303.62 1.99017C303.62 1.40475 303.145 0.930176 302.56 0.930176C301.975 0.930176 301.5 1.40475 301.5 1.99017C301.5 2.5756 301.975 3.05017 302.56 3.05017Z" fill="white" stroke="black" stroke-miterlimit="10"/>
<path d="M246.03 326.56C246.803 326.56 247.43 325.933 247.43 325.16C247.43 324.387 246.803 323.76 246.03 323.76C245.257 323.76 244.63 324.387 244.63 325.16C244.63 325.933 245.257 326.56 246.03 326.56Z" stroke="black" stroke-miterlimit="10"/>
<path d="M248.37 96.08C248.955 96.08 249.43 95.6054 249.43 95.02C249.43 94.4345 248.955 93.96 248.37 93.96C247.785 93.96 247.31 94.4345 247.31 95.02C247.31 95.6054 247.785 96.08 248.37 96.08Z" fill="white" stroke="black" stroke-miterlimit="10"/>
<path d="M283.18 242.28C283.953 242.28 284.58 241.653 284.58 240.88C284.58 240.107 283.953 239.48 283.18 239.48C282.407 239.48 281.78 240.107 281.78 240.88C281.78 241.653 282.407 242.28 283.18 242.28Z" stroke="black" stroke-miterlimit="10"/>
</svg>
