<svg width="385" height="287" viewBox="0 0 385 287" fill="none" xmlns="http://www.w3.org/2000/svg">
<g opacity="0.2">
<path d="M199.66 286.44C196.15 286.44 192.01 285.55 186.46 283.57C171.73 278.15 156.56 261.89 140.62 244.74C131.82 235.3 122.77 225.55 113.65 217.52C100.33 203.05 77.76 193.1 55.89 183.47C39.89 176.39 24.84 169.76 13.17 161.54C4.36997 155.16 0.289968 148.98 0.609968 142.67C1.24997 130.37 18.78 119.4 39.05 106.71L41.03 105.5C56.08 96.0599 75.01 83.3799 102.36 64.4999L104.66 62.9699C129.14 46.6499 159.62 26.3099 199.15 14.0099C278.27 -14.4901 347.51 7.56991 369.38 31.5399C392.2 59.5299 390.23 89.2399 361.86 145.15C332.21 203.42 266.48 248.5 239.58 265.14C228.55 270.62 221.66 275.53 216.69 279.04C210.19 283.5 206.04 286.44 199.67 286.44H199.66ZM15.15 159.82C26.56 167.85 41.48 174.48 57.29 181.43C79.41 191.18 102.3 201.32 115.88 216.05C125 224.02 134.18 233.84 142.98 243.34C158.73 260.3 173.65 276.3 187.67 281.4C201.51 286.37 204.82 284.01 214.45 277.19C219.55 273.56 226.56 268.65 237.66 263.1C264.18 246.65 329.47 201.89 358.86 144.13C386.79 89.0399 388.83 59.8399 366.64 32.6799C345.41 9.46992 277.83 -11.9501 200.17 16.0399C161.09 28.2199 130.8 48.4299 106.45 64.6199L104.15 66.15C76.73 85.09 57.8 97.71 42.75 107.21L40.77 108.42C21.01 120.72 3.97997 131.44 3.40997 142.66C3.21997 148.27 7.03997 153.88 15.14 159.81L15.15 159.82Z" fill="#92A581"/>
<path d="M191.11 256.61C184.93 256.61 179.19 254.89 172.11 252.02C160.19 246.54 150.62 235.12 140.49 223.14C134.5 216 128.25 208.6 121.11 201.85C111.16 191.2 99.3099 182.09 87.8899 173.29C78.5199 166.09 69.7199 159.26 62.7099 152.25L62.6499 152.12C48.5599 133.89 63.0999 125.41 89.6199 109.98L89.9399 109.79L94.8499 107.24C122.78 92.64 160.96 72.68 213.37 58.21C275.21 43.1 314.55 58.47 329.47 76.25C345.47 95.19 341.52 120.62 315.95 164.04C297.33 194.26 266.92 221.48 225.61 244.88C209.67 253.1 199.98 256.61 191.12 256.61H191.11ZM65.2599 150.84C72.0799 157.73 80.8799 164.48 90.1199 171.62C101.6 180.48 113.52 189.66 123.59 200.37C130.79 207.19 137.04 214.65 143.1 221.86C153.05 233.65 162.42 244.81 173.64 249.98C189.9 256.55 197.93 256.42 223.94 242.9C264.81 219.76 294.84 192.85 313.26 163.01C338.32 120.42 342.33 95.62 326.97 77.45C311.48 59.02 270.67 46.59 214.38 60.36C162.42 74.71 124.36 94.6 96.6199 109.13L91.5199 111.81C64.8099 127.3 52.5699 134.44 65.2499 150.83L65.2599 150.84Z" fill="#92A581"/>
<path d="M187.48 232.95C180.15 232.95 173.45 231.04 166.44 227.15L166.25 227.02C139.47 206.24 107.85 158.74 101.79 149.43L101.73 149.24C97.0098 135.91 107.66 128.07 129.08 118.25C149.23 109.58 180.98 98.17 218.21 92.81C252.51 88.67 278.2 94.21 290.57 108.49C304.34 124.3 300.13 148.4 279.09 174.54C260.54 199.72 233.25 217.89 213.87 226.44C203.67 230.78 195.25 232.94 187.48 232.94V232.95ZM168.35 225.3C181.74 232.63 193.66 232.38 212.34 224.34C231.34 215.92 258.18 198.14 276.41 173.27C296.56 148.28 300.83 124.56 288.01 109.71C276.34 96.26 251.73 91.03 218.71 95.05C181.92 100.34 150.49 111.63 130.6 120.23C110.13 129.6 100.51 136.55 104.65 148.47C121.99 175.25 147.88 209.42 168.34 225.3H168.35Z" fill="#92A581"/>
<path d="M187.03 212.61C179.76 212.61 173.39 210.82 168.35 207.32C150.5 194.95 134.05 168.75 133.09 151.28V151.22C132.96 135.15 167.9 121.89 216.04 119.85C236.57 119.47 251.81 124.7 258.95 134.71C267.17 146.12 263.8 161.93 249.71 178.19C232.3 197.89 210.5 210.71 191.31 212.43C189.84 212.56 188.44 212.62 187.04 212.62L187.03 212.61ZM136.15 151.28C137.11 168.24 153.11 193.61 170.39 205.66C175.68 209.36 182.76 210.89 190.92 210.19C209.22 208.53 230.19 196.1 247.15 176.97C260.6 161.54 263.92 146.56 256.27 135.91C249.7 126.79 235.49 121.88 216.17 122.27C170.52 124.18 136.09 136.68 136.16 151.28H136.15Z" fill="#92A581"/>
<path d="M189.01 194.32C183.91 194.32 179.26 193.17 175.37 191C161.85 183.35 154.33 167.86 158.47 156.57C162.74 145.41 184.74 138.65 208.65 141.27C219.23 142.48 227.01 146.5 230.52 152.62C234.54 159.51 232.56 168.3 225.1 176.72C216.56 186.28 205.14 192.6 193.8 194.06C192.14 194.19 190.55 194.31 189.02 194.31L189.01 194.32ZM161.4 157.21C157.57 167.47 164.84 182.07 177.15 189.09C181.55 191.58 187.1 192.47 193.22 191.7C203.68 190.36 214.64 184.24 222.55 175.31C229.37 167.6 231.22 159.69 227.65 153.51C224.59 148.15 217.64 144.58 208.14 143.56C186.14 141.14 165.17 147.26 161.41 157.2L161.4 157.21Z" fill="#92A581"/>
<path d="M191.05 177.17C189.14 177.17 187.22 176.85 185.57 176.09C179.7 173.6 177.35 167.99 180.34 163.47C183.27 159.01 191.31 156.9 198.26 158.69C201.58 159.58 204.06 161.3 205.08 163.66C206.23 166.15 205.65 169.02 203.55 171.57C200.55 175.14 195.71 177.18 191.05 177.18V177.17ZM192.96 160.4C188.69 160.4 184.74 161.93 183.01 164.54C180.78 167.92 182.56 172.19 187.03 174.04C191.49 175.89 197.74 174.23 200.99 170.28C202.58 168.3 203.03 166.26 202.2 164.41C201.43 162.75 199.71 161.48 197.23 160.84C195.76 160.52 194.36 160.39 192.96 160.39V160.4Z" fill="#92A581"/>
</g>
</svg>
