<?xml version="1.0" encoding="UTF-8"?>
<svg id="_Слой_2" data-name="Слой 2" xmlns="http://www.w3.org/2000/svg" xmlns:xlink="http://www.w3.org/1999/xlink" viewBox="0 0 515.49 511.64">
  <defs>
    <style>
      .cls-1 {
        clip-path: url(#clippath-2);
      }

      .cls-2 {
        clip-path: url(#clippath-6);
      }

      .cls-3, .cls-4, .cls-5 {
        stroke-width: 0px;
      }

      .cls-3, .cls-6 {
        fill: none;
      }

      .cls-7 {
        clip-path: url(#clippath-7);
      }

      .cls-8 {
        clip-path: url(#clippath-1);
      }

      .cls-9 {
        clip-path: url(#clippath-4);
      }

      .cls-4 {
        fill: #ffe492;
      }

      .cls-6, .cls-10 {
        stroke-miterlimit: 2.55;
        stroke-width: .64px;
      }

      .cls-6, .cls-10, .cls-11 {
        stroke: #000;
      }

      .cls-10 {
        fill: #92a581;
      }

      .cls-12 {
        font-family: MyriadPro-Regular, 'Myriad Pro';
        font-size: 24px;
      }

      .cls-5 {
        fill: #dee6e9;
      }

      .cls-13 {
        clip-path: url(#clippath-9);
      }

      .cls-14 {
        clip-path: url(#clippath);
      }

      .cls-11 {
        fill: #eac5b3;
        stroke-miterlimit: 2.55;
        stroke-width: .64px;
      }

      .cls-15 {
        clip-path: url(#clippath-3);
      }

      .cls-16 {
        clip-path: url(#clippath-8);
      }

      .cls-17 {
        clip-path: url(#clippath-5);
      }

      .cls-18 {
        clip-path: url(#clippath-10);
      }
    </style>
    <clipPath id="clippath">
      <circle class="cls-3" cx="158.94" cy="330.89" r="158.62"/>
    </clipPath>
    <clipPath id="clippath-1">
      <circle class="cls-3" cx="162.47" cy="338.55" r="158.62" transform="translate(-191.8 214.04) rotate(-45)"/>
    </clipPath>
    <clipPath id="clippath-2">
      <circle class="cls-3" cx="158.94" cy="330.89" r="158.62"/>
    </clipPath>
    <clipPath id="clippath-3">
      <circle class="cls-3" cx="158.94" cy="330.89" r="158.62"/>
    </clipPath>
    <clipPath id="clippath-4">
      <circle class="cls-3" cx="158.94" cy="330.89" r="158.62"/>
    </clipPath>
    <clipPath id="clippath-5">
      <circle class="cls-3" cx="158.94" cy="330.89" r="158.62"/>
    </clipPath>
    <clipPath id="clippath-6">
      <circle class="cls-3" cx="158.94" cy="330.89" r="158.62"/>
    </clipPath>
    <clipPath id="clippath-7">
      <circle class="cls-3" cx="158.94" cy="330.89" r="158.62"/>
    </clipPath>
    <clipPath id="clippath-8">
      <circle class="cls-3" cx="158.94" cy="330.89" r="158.62"/>
    </clipPath>
    <clipPath id="clippath-9">
      <circle class="cls-3" cx="158.94" cy="330.89" r="158.62"/>
    </clipPath>
    <clipPath id="clippath-10">
      <circle class="cls-3" cx="158.94" cy="330.89" r="158.62"/>
    </clipPath>
  </defs>
  <g id="_Слой_1-2" data-name="Слой 1">
    <g>
      <path class="cls-4" d="M455.85,455.09c-.7-.51-1.28-1.08-2.1-1.53-.51-.25-.26-.77-.19-1.28,0-.19.06-.38-.06-.38-.64-.57-1.28-1.08-2.04-1.53-.51.06-1.08.38-1.47.19s-.7-.51-1.02-.77c-.45-.38-.96-.7-1.4-1.02-.19-.25-.51-.25-.96,0,0,0-.06.25-.06.45-.06.45-.19.96-.19,1.47.06.45.64.51.64,1.02-.13,1.21-.06,1.15.45,1.59.45.38.89.7,1.28,1.08.13,0,.06.25.06.38.06.38-.32,1.02.19,1.28.45.19.7.51,1.02.77,0,.45-.13,1.02-.19,1.47.06.38-.06.64-.38.7-.45.13-.7,0-.89-.19-.19-.25-.45-.38-.7-.51-.06-.13-.19-.25-.32-.25q-.45-.32-.45-1.59c0-.51-.57-.57-.57-1.02,0-.32.13-.7.06-.96,0-.13-.06-.25-.19-.38-.38-.25-.64-.57-1.02-.77-.26-.13-.64-.13-.83.13-.06.06-.13.38-.06.45.19.19.45.38.51.64.19.19.06.57,0,.89-.19.64.45.7.57,1.08.06.45-.06.96-.06,1.4,0,.13.26.13.32.25.32.25.57.57.96.83,0,.45-.06.96-.19,1.47-.19.89,0,1.53.7,1.91.45.19.64.57.51,1.08-.19.57.13.83.45,1.08.26.32.77.45.77.96,0,1.15-.06,1.21.83,1.85.26.19.45.38.32.77,0,.32-.06.64-.06.96.32.25.64.57.96.83.51.25.51.64.13,1.15-.26.32-.57.64-.64.89-.19.45.06.57.26.83.26.19.51.25,1.02.06.13-.06.32-.06.51-.06.13,0,.38-.06.45,0,0,.19,0,.38-.13.51q-.83,1.21-.89,1.79c-.13.7-.13,1.34-.32,1.98-.06.57.32.7.57,1.02.19.25.06.64-.19.77-.19.13-.38.19-.57.19-.7-.51-1.4-1.02-1.98-1.59-.13,0-.06-.25-.06-.38,0-.32.19-.77.06-.96-.06-.25-.45-.38-.57-.57-.26-.13-.51-.32-.64-.57-.13-.19.06-.64.06-.96,0-.13,0-.32-.06-.38-.64-.25-.57-.89-.45-1.59,0-.13,0-.32-.06-.45-.77-.64-1.66-1.21-2.42-1.85-.32-.25-.19-.77.32-1.28.32-.32.51-.57.83-.83.57-.45.64-1.08.32-1.28-.45-.38-.89-.77-1.4-1.02-.38-.25-.51-.64-.38-1.15.19-.64-.13-.83-.51-1.08-.26-.19-.64.06-1.4.64-.64.57-.89.57-1.4.25-.51-.45-1.15-.89-1.66-1.34-.06-.13,0-.32,0-.45,0-.32.13-.7.06-.96-.06-.25-.45-.38-.7-.51-.19-.25-.51-.32-.64-.57-.06-.25.06-.64.06-.96,0-.13.06-.38,0-.45-.45-.38-.96-.64-1.4-1.02s-.45-.38-.45-1.59c0-.51-.51-.64-.83-.89-.26-.32-.57-.57-.38-1.15.13-.38.06-.64-.13-.83-.57-.38-1.15-.89-1.72-1.28-.06-.13-.13-.32-.06-.45.13-.7.06-1.21-.45-1.59-.51-.32-.89-.77-1.4-1.02-.26-.13-.7,0-.89.25-.06.13-.13.38-.06.45.19.19.51.32.57.57.26.51-.38,1.34.26,1.66.32.25.7.51.96.83.06.13,0,.32,0,.45,0,.45-.19.96.32,1.21.45.19.7.51,1.02.77.57.38.51.45.51,1.53-.06.57.45.7.77.96.19.25.45.38.51.64,0,.51-.26,1.02,0,1.4.32.25.7.51,1.02.77.19.19.13.51.06.89-.13.38-.06.64.13.83.32.25.77.45,1.02.77.06.06.06.25.06.45,0,.32-.06.64-.06.96.26.32.64.57.96.83.26.19.45.32.32.77-.06.45-.32,1.02.19,1.28.32.06.45.38.7.51.38.13.45.32.32.77-.32.83,0,1.21.64,1.47.64.25.57.89.45,1.59s-.13.7-.89,1.79c-.26.32-.26.7,0,.89.38.25.51.64.38,1.15s.13.83.45,1.08c.51.32,1.02.57.7,1.4-.13.38-.06.64.26.77.7.51,1.28,1.08,2.04,1.53.38.32.26.83.19,1.28-.06.64-.06,1.28-.83,1.91-.06.06-.19.32-.19.45-.06.32-.06.64-.13,1.02,0,.45-.06.96.38,1.15.38.19.7.51,1.02.77s.64.51.51,1.08c-.13.7-.19,1.28-.19,1.91,0,.45.64.51.57,1.08,0,.32-.06.64-.06.96,0,.13.13.19.26.32.19.25.45.38.7.51.26.19.45.38.32.77,0,.32-.13.7-.06.96.19.38.77.45.57,1.08-.06.32-.13.7-.06.96.06.25.45.38.57.57.06.13,0,.32-.06.45s-.26.19-.38.19c-.19.06-.45.13-.51.06-.7-.51-1.4-1.02-1.98-1.66q-.45-.25-.45-1.59c-.06-.25-.26-.45-.51-.64-.32-.25-.77-.45-.83-.89.32-.96,0-1.53-.7-1.91-.32-.06-.51-.32-.38-.7.06-.64.06-1.28.19-1.91.13-.51.06-.64-.45-.38-.19.13-.38.19-.45.32-.45.45-.83.83-1.28,1.28-.13.13-.38.25-.45.25-.51.25-.64.06-.45-.38.13-.51.19-.96-.32-1.21-.45-.19-.64-.57-1.02-.77-.64-.32-.57-.89-.45-1.59,0-.13,0-.32-.19-.38-.96-.83-1.98-1.59-3.06-2.42-.19-.19-.26-.45-.13-.83s.13-.7-.13-.83c-.89-.77-1.72-1.47-2.68-2.17-.38-.25-.51-.64-.38-1.15.13-.38.06-.64-.13-.83-.32-.19-.51-.32-.89-.19-.32.06-.45.32-.51.77.06.45-.06.96-.06,1.4.19.19.45.38.57.57.06.13,0,.32,0,.45,0,.45-.19.96.32,1.21.38.19.7.51,1.02.77q.45.38.45,1.59c0,.32.26.45.51.64.19.19.26.51.06.89,0,.13-.19.25-.96.64-.45.32-.13.32.26.13.51-.25.51-.51.06-.57-.32-.06-.64.06-.83.32-.06.13-.06.32.57.19,1.02.13,1.47.51,1.98.77.32.19.32.45.26.83-.06.45-.19.96.32,1.21s.89.7,1.4,1.02c.38.32.13.89.13,1.34,0,.51.57.57.64,1.02.06.45-.19.96,0,1.34.64.25.38,1.02.38,1.66.06.45.51.64.83.89.45.19.51.64.38,1.15s.19.77.57,1.02c.77.57.77.64.64,1.47-.06.57.32.77.57,1.02,0,.45-.06.96-.06,1.4,0,.13.26.13.32.25.32.25.7.51,1.02.77.19.25.51.32.64.57.06.25-.06.64-.06.96s-.06.64-.13,1.02c0,.45-.06.89.38,1.15.32.25.7.51,1.02.77.45.32.38.32.45,1.59,0,.7.77.77,1.08,1.21.19.19.26.51.13.83-.13.19-.32.32-.45.45-1.15-.89-2.17-1.85-3.38-2.68-.51-.25-.32-.77-.19-1.28.13-.7-.96-.64-.64-1.47.26-.57.19-.96-.32-1.21-.26-.13-.45-.38-.7-.51-.7-.38-1.08-.89-.83-1.85.13-.38.06-.64.13-1.02.06-.38.06-.64-.13-.83-1.02-.77-2.1-1.53-3.12-2.36-.06-.06-.32,0-.45-.06-.38,0-.51.19-.51.7.06.06,0,.32,0,.45,0,.32-.13.7-.06.96.06.25.45.32.57.57.26.13.51.32.7.51.06.25-.06.64-.06.96,0,.13-.06.38,0,.45.45.38.89.7,1.28,1.08,0,.45-.26,1.02-.06,1.4.19.19.45.38.57.57.06.13,0,.32-.13.51,0,.06-.32.13-.45.13-.51,0-.7-.38-1.15-.57-.38-.25-.57-.57-.38-1.15.13-.38.06-.64-.13-.83-.64-.45-1.21-.83-1.72-1.28-.06-.13-.06-.25-.06-.45q0-1.15-.45-1.59-.83-.51-.7-1.4c.06-.25.19-.45.13-.51-.77-.64-1.59-1.28-2.42-1.79-.19-.25-.32-.45-.32-.77.13-.38.19-.77.06-.96-.06-.25-.45-.38-.64-.57-.26-.13-.51-.32-.57-.57-.06-.25.06-.64.06-.96.13-.38-.13-.51-.38-.7q-.77-.64-.83-1.85c0-.19,0-.32-.06-.45-.57-.38-1.15-.89-1.72-1.28-.19-.19-.26-.51-.06-.89,0-.13.19-.25.57-.64.06-.13-.06.06-.26.19.06.13.19.25.32.19.32.06.64-.06.77-.25.13-.19.13-.38.06-.45-.13-.13-.38-.13-.89.25-.64-.13-1.08-.51-1.59-.83-.32-.19-.32-.45-.26-.83.06-.45.19-.96-.26-1.21-.51-.32-.89-.77-1.4-1.02-.57-.38.06-1.28-.26-1.66-.32-.45-.89-.7-1.28-1.08q-.45-.25-.45-1.59c0-.51-.57-.57-.64-1.02,0-.32.13-.7.13-1.02,0-.13-.06-.25-.19-.38-.57-.38-1.15-.89-1.72-1.28-.7-.38-.83-1.08-.64-1.98-.57-.38-1.02-.96-1.66-1.34-.51-.25-.32-.77-.32-1.21,0-.19.13-.38,0-.45-.06-.13-.19-.25-.38-.25-.45-.38-.89-.77-1.4-1.02-.57-.38,0-1.21-.26-1.66-.64.06-1.4.45-1.91,0-.38-.45-.89-.77-1.28-1.08-.26-.13-.45-.38-.7-.51-.38-.25-.83-.19-1.34.38-.32.32-.57.64-.83.83-.51.51-1.15.77-1.47.57-.77-.64-1.53-1.28-2.36-1.85-.26-.13-.26-.45-.13-.83.19-.45.13-.7-.13-.83-.77-.64-1.53-1.28-2.36-1.85-.06-.06-.06-.25-.06-.45,0-.32.06-.64.06-.96-.45-.38-.77-.77-1.28-1.08q-.7-.57-.64-1.47c.06-.25.19-.45.13-.51-.38-.25-.7-.51-1.02-.77q-1.02-.77-1.02-1.28c.13-.51.19-.96-.19-1.28-.51-.25-.96-.7-1.4-1.02-.32-.25-.7-.51-.96-.83-.06-.06,0-.32,0-.45.13-.51.06-.89-.38-1.15-.26-.13-.45-.38-.64-.57q-.64-.45-.83-1.85c-.06-.06-.06-.25-.13-.38-.77-.64-1.59-1.28-2.36-1.91-.13,0-.19-.19-.13-.38q-.38-1.47-1.47-2.36c-.45-.38-.51-.32-.38-1.15.06-.38.06-.64-.13-.83-.96-.7-1.85-1.4-2.81-2.1-.45-.25-.32-.77-.32-1.21,0-.19.06-.38,0-.45-.89-.7-1.85-1.4-2.68-2.17-.06-.06,0-.32.06-.45,0-.32.13-.7.06-.96s-.45-.38-.7-.51q-.51-.45-.45-1.59c0-.13,0-.32-.06-.38-.96-.7-1.72-1.47-2.81-2.1-.57-.38-.51-.96-.45-1.59.13-.19,0-.32-.06-.45-1.02-.77-2.1-1.53-3.06-2.42-.26-.13-.26-.45-.13-.83.19-.64-.13-.83-.51-1.08q-.77-.64-.7-1.4c0-.19.13-.38,0-.45,0-.19-.06-.25-.26-.32-.45-.38-.89-.77-1.28-1.08-.51-.32-.89-.77-1.4-1.02-.7-.32-.19-1.15-.26-1.66-.51-.45-1.08-.96-1.72-1.28-.45-.32-.13-.89-.19-1.28,0-.13.06-.38,0-.45-1.02-.77-1.98-1.66-3.06-2.42-.26-.19-.32-.38-.26-.83.13-.83.06-.77-.7-1.4-.32-.25-.64-.51-.51-1.08.13-.51,0-.89-.38-1.15-.51-.25-.96-.64-1.4-1.02s-.96-.7-1.4-1.02c-.26-.38-.06-.89,0-1.4,0-.13-.06-.25-.19-.38-.45-.38-.89-.77-1.4-1.02-.57-.38-.32-1.08-.32-1.59,0-.13-.13-.32-.26-.32-.77-.64-1.53-1.28-2.36-1.85,0-.45.06-.96.06-1.4-.45-.38-.89-.7-1.28-1.08-.38-.25-.7-.51-1.02-.77-.57-.19-.26-.77-.26-1.21,0-.19.06-.38,0-.45-.51-.51-1.15-.89-1.72-1.34-.57-.38.19-1.34-.26-1.66-.38-.45-.83-.83-1.28-1.08-.64-.32-.57-.89-.45-1.59,0-.13,0-.32-.13-.38-.51-.51-1.15-.89-1.66-1.4-.06-.06-.19-.19-.19-.38q-.26-1.53-.77-1.85c-.38-.25-.7-.51-.96-.83-.06-.06-.06-.25-.13-.38,0-1.15.13-1.21-.45-1.59-.45-.38-.89-.77-1.4-1.02,0-.45.06-.96.19-1.47-.57-.38-1.15-.89-1.72-1.28-.32-.19-.45-.32-.32-.77.13-.51.26-1.02-.19-1.28-.51-.25-.96-.7-1.4-1.02-.57-.38.06-1.28-.26-1.66-.32-.45-.89-.77-1.4-1.02-.57-.32-.57-.89-.45-1.59,0-.13,0-.32-.06-.45-1.28-.96-2.49-1.91-3.76-2.93q-.83-.57-1.4-2.42c-.06-.13-.13-.19-.26-.32-.45-.38-.89-.77-1.4-1.02-.57-.38-.32-1.08-.26-1.72,0-.13-.19-.19-.26-.32-.32-.25-.7-.51-1.02-.77-.45-.38-.89-.77-1.28-1.08,0-.45.06-.96.06-1.4-.57-.38-1.15-.89-1.72-1.28-.51-.25-.26-.83-.19-1.28-.06-.06,0-.32-.06-.38-.96-.83-2.04-1.66-3.06-2.42-.38-.32-.13-.83-.19-1.28,0-.19.06-.38-.06-.45-.64-.57-1.28-1.08-1.98-1.59q-.38-.32-.45-1.59c0-.13-.06-.25-.13-.38-2.1-1.72-4.27-3.38-6.44-5.04-.26-.13-.26-.45-.13-.83s.13-.7-.13-.83c-.89-.77-1.72-1.47-2.68-2.17-.45-.19-.51-.64-.38-1.15.06-.38.06-.64-.26-.77-.45-.38-.89-.77-1.28-1.08-.51-.32-.96-.64-1.4-1.02s-.89-.77-1.4-1.02c-.57-.38-.19-1.15-.26-1.66-.7-.51-1.28-1.08-1.98-1.59-.96-.64-1.85-1.4-2.68-2.17-.13,0-.06-.25-.06-.38.06-.45.19-.96-.19-1.28-2.04-1.53-4.08-3.19-6.18-4.72-.45-.32-.13-.83-.19-1.28,0-.13.06-.38-.06-.38-1.08-.96-2.3-1.79-3.38-2.68q-.45-.38-.45-1.59c0-.13,0-.32-.06-.45-1.47-1.15-2.93-2.3-4.4-3.44-.26-.13-.26-.51-.13-.83.13-.38.13-.7-.13-.83-1.4-1.02-2.68-2.17-4.08-3.19-.38-.25-.51-.64-.38-1.15.13-.38.06-.64-.26-.77-1.98-1.59-4.08-3.19-6.06-4.78-.45-.25-.45-.7-.38-1.15.06-.38.06-.64-.26-.77-.19-.25-.38-.32-.83-.19-.45.06-1.08.38-1.4-.06-.45-.38-.89-.77-1.4-1.02-.51-.25-.26-.83-.19-1.28.06-.38-.06-.57-.32-.77-.26-.13-.51-.13-.96,0q-.83.19-.7-.51c0-.32.06-.64-.13-.83-.89-.7-1.85-1.4-2.74-2.04q-.51-.45-.38-1.15c.13-.38.13-.7-.13-.83-2.49-1.91-5.04-3.83-7.52-5.74-.38-.32-.32-.77-.32-1.21,0-.13.13-.38,0-.45,0-.19-.19-.19-.26-.32-1.85-1.4-3.63-2.81-5.48-4.21-.38-.32-.32-.77-.32-1.21,0-.19.13-.38,0-.45,0-.19-.19-.19-.26-.32-1.85-1.4-3.63-2.81-5.48-4.21-.51-.26-.26-.83-.19-1.28-.06-.06,0-.32-.06-.38-.51-.45-1.15-.89-1.66-1.34-1.4-1.02-2.81-2.1-4.14-3.12-.51-.45.19-1.34-.19-1.72-.51-.51-1.15-.89-1.72-1.28-.45-.38-.89-.77-1.4-1.02q-.45-.38-.7-1.91c-.06-.06-.06-.26-.13-.38-1.59-1.28-3.25-2.49-4.78-3.7-.38-.26-.57-.57-.38-1.15.13-.38.06-.64-.19-.77-2.36-1.85-4.78-3.7-7.14-5.61-.06-.06-.06-.26-.06-.45,0-.32.06-.64.13-1.02-.38.06-.64.06-.96.13-.45.13-.7.13-.89-.13-.32-.19-.45-.32-.32-.77.13-.51.19-.96-.19-1.28-2.61-1.85-5.04-3.89-7.59-5.8-.38-.32-.13-.83-.19-1.28,0-.19,0-.32-.06-.45-.96-.83-1.98-1.59-3.06-2.42-2.87-2.17-5.61-4.46-8.48-6.63-.57-.38-.57-.89-.45-1.59,0-.13,0-.32-.13-.38-3.89-3.12-7.91-6.18-11.92-9.31-.26-.13-.26-.45-.13-.83.13-.38.13-.7-.13-.83-1.85-1.4-3.63-2.81-5.48-4.21q-.45-.38-.32-1.21c0-.19.06-.38,0-.45-.19-.06-.57-.06-.96.13-.45.13-.64.06-.89-.13-.19-.26-.32-.45-.26-.83.06-.45.13-.89-.32-1.21-5.23-4.08-10.39-8.1-15.68-12.11-.38-.32-.13-.83-.19-1.28v-.51c-.06-.13-.26-.13-.32-.26-8.54-6.63-17.02-13.2-25.63-19.76-.51-.45-.45-.38-1.72-.26-.19.06-.38.06-.51,0-2.61-2.04-5.23-4.08-7.84-6.12-1.15-.89-2.23-1.79-3.38-2.68q-.38-.32-2.1-.45c-.13,0-.38,0-.45-.06-4.53-3.57-9.12-7.01-13.64-10.58-.38-.26-.77-.38-1.28-.26-.45.13-.83.19-.96,0-3.19-2.42-6.44-4.91-9.56-7.4-.38-.32-.83-.32-1.34-.19-.19.06-.32.06-.57.13-.13,0-.26-.13-.32-.26-2.81-2.1-5.48-4.21-8.16-6.38-.38-.32-.96-.13-1.4-.06-.13,0-.32.06-.57.13-.06-.06-.19-.19-.32-.26-2.23-1.79-4.53-3.57-6.76-5.29-.32-.45-.89-.13-1.4-.06-.26.06-.38.06-.51.06s-.26-.13-.32-.26c-1.85-1.4-3.63-2.81-5.48-4.21-.38-.32-.96,0-1.47.06-.13,0-.38.06-.45-.06-1.21-.83-2.36-1.72-3.44-2.61q-.38-.32-1.79-.19c-.13,0-.32,0-.45-.06-1.72-1.28-3.38-2.68-5.1-3.95-.19-.19-.51-.13-.96,0s-.7.13-.96,0c-1.4-1.02-2.68-2.17-4.08-3.19-.38-.32-.83-.32-1.34-.19-.45.13-.7.13-.89-.06-1.4-1.02-2.74-2.04-4.08-3.19-.38-.32-.89-.26-1.47-.06-.38.06-.64.06-.83-.19-2.49-1.91-5.04-3.89-7.52-5.74-.38-.32-.26-.83-.19-1.28.06-.64.06-1.28.83-1.85.06-.06.13-.32.19-.45q.19-1.15.96-1.91c.38-.38.83-.83,1.21-1.21.77-.77.77-1.08.13-1.59-.19-.26-.45-.38-.64-.57-.32-.26-.19-.77.26-1.21.32-.32.57-.64.89-.89.38.26.32.26,1.91,0q.7-.19.83-1.02c0-.32.13-.7.13-1.02,0-.19-.06-.26-.19-.38-.51-.45-1.15-.89-1.72-1.28q-.89-.7-.7-2.36c0-.13.13-.38.19-.45.38-.19.7-.19.89.06.38.26.7.51,1.02.77.26.13.45.38.7.51.51-.06,1.08-.19,1.59-.26.83-.13.83-.19.89-.89.06-.45.06-.96.06-1.4-.32-.26-.7-.51-1.02-.77-.45-.32-.38-.64.19-1.28.45-.51,1.02-.77,1.34-.51.32.26.64.51,1.28.26s1.02-.13,1.28.26c.26.13.45.38.7.51.32.19.96-.06,1.4-.51.32-.32.57-.64.45-.96q-.57-1.4-.51-2.49c.06-.13.19-.32.26-.32.19-.13.38-.19.57-.19.77.64,1.66,1.15,2.36,1.85.32.19.51.32.89.13.57-.26.96-.64,1.08-1.15,0-.13.06-.38,0-.45-.89-.7-1.85-1.4-2.68-2.1-.06-.06,0-.38.06-.45.19-.26.64-.45.89-.26.32.26.64.51,1.28.38.89-.26,1.85-.45,2.68-.57.19-.06.45-.13.51-.19,0-.32.06-.64.06-.96.13-.57.57-.96,1.08-1.21.45-.26.7-.13.89.06.06.13.19.26.38.26.45,0,.7-.13.83-.38.13-.19.19-.45.13-.51-1.47-1.15-2.93-2.3-4.4-3.44-.51-.26-.32-.77-.19-1.28,0-.32-.06-.57-.38-.7-.26-.13-.45-.38-.26-.77.13-.32.57-.32,1.28,0,.06.13.26.13.38.13q1.59-.06,2.23.38t1.28.26c.38-.06.7-.13,1.08-.19.19-.06.45-.13.51-.26.13-.32.06-.57-.19-.77-.57-.38-.89-1.15-2.04-.64-.45.13-.64.06-.89-.13-2.49-1.91-5.04-3.83-7.46-5.8-.38-.32-.89-.26-1.4-.06-.45.13-.64.06-.89-.13-.19-.26-.45-.38-.26-.77.06-.26.51-.45.89-.45.57,0,1.02-.45,1.34-.89.26-.32.26-.7.13-.89-.26-.32-.57-.57-.45-1.08.13-.38.06-.64.13-1.02.06-.57.19-1.28-.45-1.59-.19-.38-.06-.89.06-1.4.06-.77.13-.89.77-.89.77-.06,1.34-.96,1.98-1.15.7-.19,1.4-.32,2.1-.45.19-.06.38-.06.57-.13.06-.32.19-.64.19-.96,0-.38.06-.64.64-1.08.06-.13-.13.06-.13.19s.19.19.32.19c.32.06.64-.06.77-.26.06-.13.13-.38.06-.45-.13-.13-.45-.06-1.02.32-.96-.45-1.79-1.02-2.55-1.66-.06-.06,0-.32.13-.51q0-.51-.57-1.53c-.06-.06-.13-.32.06-.45.45-.64,1.02-1.15,1.59-1.79.57-.19,1.02-.26,1.59-.38,1.02-.26,2.17-.38,3.19-.77.45-.45.83-.89,1.47-.89,1.08.51,1.08.45,1.72.32,1.79-.38,3.57-.83,5.42-1.15.45-.06.64-.26.57-.7-.06-.13-.19-.19-.26-.32-.38-.26-.77-.45-.96-.83-.26-.32-.06-.89,0-1.34,0-.45.13-1.02.19-1.47-.26-.32-.83-.38-.57-1.08.13-.51.06-.96.19-1.47.83-.32,1.72-.45,2.61-.64.83-.19.7-.13,1.79.19.45.19,1.59-.57,1.72-1.08.06-.64.19-1.34.19-1.98-.26-.32-.83-.38-.57-1.02.06-.45.13-.89-.32-1.21-.77-.45-1.4-1.02-2.1-1.53-.26-.13-.38-.51-.19-.77.19-.26.7-.32.96-.19.32.26.64.51,1.28.26s.96,0,1.34.26c.06.13.32.06.45.06.77-.26,1.4-.32,1.85.19.32.06.7,0,.89-.26.06-.13.06-.38.06-.45-.51-.51-1.08-.96-1.66-1.4-.26-.19-.45-.38-.32-.7.06-.26.38-.38.89-.45.38,0,.7-.19,1.02-.45.7-.64.7-.96.19-1.59-.45-.38-.38-.64.19-1.28.06-.13.26-.38.38-.38.89-.26,1.79-.7,2.55-.38.26.13.45.38.77.32.38-.06.77-.19,1.15-.26.38-.06.7-.13.83-.32.26-.38.06-.64-.26-.77-.26-.13-.45-.38-.7-.51-.38-.32-.38-.83,0-1.21.96-1.02,1.98-1.98,2.93-3,.13-.13.32-.26.51-.26.57-.19,1.15-.32,1.59-.38.7-.19.89.26,1.21.45q.45.38,1.79.19c.51-.06.77.38,1.21.45.19-.06.45-.06.57-.19.06-.13.06-.32.06-.45,0-.19-.06-.26-.19-.38-1.21-1.02-2.49-1.91-3.76-2.93-.26-.13-.19-.57,0-.83.26-.32.64-.57.83-.83.57-.13,1.08-.19,1.59-.38.45-.13.7-.13.89.13.26.32.7.51,1.08.83,1.91-.38,3.89-.96,5.87-1.28.83-.19,1.34-.7,1.98-1.15.64-.38.89.06,1.34.26.26.19.7,0,.77-.26.13-.19.19-.45.13-.51-.19-.19-.51-.32-.7-.51-.26-.13-.38-.51-.7-.51-.32-.06-.7.13-1.08.19-.45.13-.64.06-.83-.19-.32-.26-.7-.51-.96-.83.06-.64.06-1.28.19-1.91,0-.13.26-.32.32-.45.45-.32.51-.57.57-.96-.06-.26.06-.57.06-.89.38-.06.7-.13,1.15-.32.77-.26,1.4-.26,1.72.26.57-.13,1.15-.32,1.59-.26s.51.64,1.28.38c.32-.13.77-.26.96-.13.51.06.64.57,1.34.26.32-.06.77-.19,1.02-.06.26.13.45.38.7.38.13,0,.38,0,.57-.13.06-.06.06-.26.06-.45,0-.13-.06-.26-.13-.38-.38-.26-.7-.51-1.02-.77-.06-.06-.06-.26-.06-.45-.13-.38.13-.51.64-.57.51,0,1.08-.19,1.66-.32.19.19.38.51.64.51.51,0,1.08-.19,1.59-.26.26.13.45.38.7.51.13,0,.38-.06.57-.13.38-.06.77-.19,1.02-.13.38.13.57.57,1.34.26.32-.13.77-.19.96-.06.51.45,1.15.26,1.91.13.51-.06.64.45,1.28.38.26,0,.7-.13,1.08-.19.13,0,.26.13.38.13.51.45,1.15.89,1.72,1.28.06.06.32,0,.45,0,.38-.06.77-.26,1.08-.19s.51.26.64.51c.7.57.77.57,1.79.32.83-.32.96.64,1.79.32.51-.26,1.02-.26,1.4.06.51.45,1.15.89,1.66,1.4q.57.32,1.79.19c.64-.13.83.32,1.15.57.38.26.77.45,1.34.26.64-.26,1.02-.06,1.28.26.32.26.64.57,1.15.57q1.4-.13,1.79.19c.7.51,1.4,1.02,2.1,1.53.45.38.83.83,1.4,1.02.38.19,1.02-.13,1.59-.26.51.45,1.15.89,1.72,1.28.77.64,1.59,1.28,2.36,1.85.57.06,1.47-.57,1.91,0,.32.26.7.51,1.02.77.64.45,1.21.83,1.66,1.4.45.32.96,0,1.47-.06.13,0,.38-.06.51-.06.96.64,1.66,1.53,2.74,2.04.13,0,.38-.06.57-.19.13-.06.06-.26.13-.38,0-.19,0-.32-.06-.45-2.87-2.17-5.74-4.34-8.54-6.63q-.38-.32-2.23-.38c-.13,0-.32-.06-.38-.13-.51-.32-.89-.77-1.4-1.02-.45-.19-.51-.64-.38-1.15.13-.38.06-.64-.13-.83-.32-.19-.51-.26-.89-.26-.51.06-1.08.38-1.47.06-1.91-1.53-3.83-3.06-5.74-4.53-.13-.32-.06-.57.26-.7.19-.06.45-.13.57-.13.77.64,1.53,1.28,2.36,1.85.13,0,.19.26.32.26.7-.13,1.47-.51,1.91,0,.32.26.77.45,1.08.7.19,0,.38,0,.57-.13.06-.06.06-.26.13-.38,0-.51-.57-.57-.57-1.08-.06-.13,0-.38.06-.45s.32-.13.57-.19c.13,0,.32.06.38.13.96.7,1.85,1.4,2.68,2.17.38.26.83.32,1.34.19.45-.13.7-.13.96,0,1.59,1.28,3.19,2.42,4.72,3.76.38.32.89.26,1.47.06.45-.13.64-.06.89.13,2.3,1.79,4.53,3.57,6.76,5.29.45.32.89.13,1.4.06.19-.06.45-.13.51-.06.19,0,.26.13.32.26,1.85,1.4,3.76,2.74,5.48,4.21.45.32.96,0,1.47-.06.13,0,.38-.06.45,0,1.4,1.02,2.81,2.1,4.14,3.12.89.7,1.85,1.4,2.68,2.1q.45.38,1.85.19c.13,0,.38-.06.45.06,2.61,2.04,5.23,4.08,7.91,6.06.19.19.51.13.96,0s.7-.13.96,0c1.98,1.66,4.08,3.19,6.06,4.78.38.26.83.32,1.34.19.45-.13.7-.13.96,0,1.98,1.59,4.08,3.19,6.06,4.78.38.32.89.19,1.34.13.19-.06.51-.26.57-.13,1.02.77,2.04,1.53,3.12,2.36.32.38.83.19,1.4,0,.38-.06.64-.06.83.19.51.45,1.15.89,1.72,1.28.06.06.38,0,.51-.06.26-.19.32-.51.19-.77-2.68-2.17-5.42-4.27-8.16-6.38q-.45-.38-1.79-.19c-.13,0-.38.06-.45-.06-2.61-2.04-5.23-4.08-7.84-6.12-.26-.13-.51-.13-.96,0s-.77.19-.96,0c-2.49-1.91-5.04-3.83-7.59-5.8-.26-.38-.77-.38-1.28-.26-.45.13-.7.13-.96,0-2.36-1.91-4.78-3.7-7.14-5.61-.26-.19-.06-.64.19-.83.13-.06.45-.13.51-.06,1.28.96,2.61,1.85,3.83,2.81.38.32.89.13,1.4.06.13,0,.32-.06.51-.06.13,0,.26.13.32.26,2.93,2.3,5.87,4.59,8.86,6.89.45.32.96,0,1.47-.06.13,0,.38-.06.45,0,.96.7,1.85,1.4,2.81,2.1,1.53,1.28,3.12,2.49,4.78,3.7q.45.38,1.79.19c.13,0,.32,0,.45.06,4.14,3.32,8.42,6.5,12.62,9.82.26.13.57.19.96,0,.45-.13.77-.19.96,0,5.74,4.4,11.41,8.8,17.02,13.26.38.26.83.32,1.34.19.45-.13.7-.13.96,0,6.25,4.85,12.5,9.69,18.74,14.54,4.14,3.25,8.42,6.5,12.62,9.82.38.32.77.32,1.34.13.19-.06.45-.13.51-.06.96.64,1.91,1.34,2.74,2.04,0,.45-.06.96-.13,1.4.57-.13,1.08-.19,1.59-.26,1.4,1.02,2.87,1.98,4.02,3.25.13,0,0,.32,0,.45-.06,1.08.26,1.34,1.34,1.15.45-.13.77-.19.96,0,.7.51,1.4,1.02,2.04,1.53.38.26.51.64.38,1.15-.13.38-.06.64.26.77,1.21,1.02,2.42,1.98,3.76,2.93.06.06.32,0,.45,0,.38-.06.77-.19,1.15-.26,0,.32-.06.64-.06.89-.06.38.06.57.32.77,4.97,3.89,10.01,7.78,15.05,11.6.45.32.13.83.13,1.34.06.13,0,.32.06.45s.26.13.32.26c3.76,2.93,7.46,5.87,11.28,8.67q.45.38.45,1.59c0,.13,0,.32.06.45,1.72,1.34,3.44,2.61,5.1,3.95.26.13.26.45.13.83-.13.7-.06.77.77.45.38-.06.64-.06.89.06.26.19.45.38.38.7,0,.45-.32,1.02.19,1.28,1.85,1.4,3.57,2.87,5.48,4.21.38.32.26.83.19,1.28v.45c.06.13.26.13.38.26,2.23,1.79,4.53,3.57,6.82,5.23.38.32.13.83.19,1.28,0,.19-.06.38.06.45,1.28,1.08,2.68,2.17,4.08,3.19q.45.38.45,1.59c0,.13,0,.32.06.45,1.66,1.21,3.19,2.42,4.78,3.7q.51.32,1.15,2.1c0,.19.06.26.19.38,1.85,1.4,3.57,2.87,5.48,4.21.38.26.51.64.38,1.15-.06.38-.13.7.13.83,2.1,1.53,4.08,3.19,6.18,4.72.38.32.45.7.32,1.21,0,.13-.06.32-.06.45.06.13.19.26.26.32,2.1,1.53,4.08,3.19,6.18,4.72.45.26.32.77.26,1.21,0,.19-.06.38,0,.45.77.64,1.59,1.28,2.36,1.91.51.26.19.77.19,1.28,0,.19,0,.32.06.38,1.66,1.4,3.38,2.68,5.16,3.95.26.13.26.45.19.77-.13.51-.06.96.32,1.21.83.57,1.66,1.15,2.42,1.79q.45.38,1.08,2.17c.06.13.06.26.19.38,1.4,1.02,2.68,2.17,4.08,3.19.45.19.51.64.38,1.15-.13.38-.06.64.19.77,1.21,1.02,2.49,1.91,3.76,2.93.45.38,1.02.64,1.4,1.02.19.38-.06.96-.06,1.4,0,.13.19.19.32.26,1.59,1.28,3.12,2.49,4.78,3.7.38.32.26.83.19,1.28,0,.19-.06.38,0,.45.57.38,1.15.89,1.72,1.34.7.51,1.28,1.08,1.98,1.59.7.32,0,1.21.26,1.66.26.32.7.51,1.02.77.7.51,1.4,1.02,1.98,1.59.26.19.57.19.96,0,.13-.06.06-.26.13-.38q.26-1.66-.7-2.36c-.51-.45-1.15-.89-1.66-1.34-.06-.06-.19-.19-.13-.38-.06-.38.13-.51.64-.57.57-.13,1.15-.26,1.66-.32-.06.45-.06.96-.13,1.4.26.13.51.32.7.51,1.15.89,2.23,1.79,3.38,2.68.06.06,0,.32,0,.45-.13.51-.06.89.32,1.21,1.02.77,2.1,1.53,3.06,2.42q.51.32.51,1.53c0,.13,0,.32.06.45,1.02.77,2.1,1.53,3.06,2.42.26.13.26.51.13.83,0,.13-.32.32-1.59,1.79-.64,1.79-.06,2.23.51,2.68.19.26.45.38.7.38.13,0,.38,0,.57-.13.06-.06.13-.38.06-.45-.38-.77-1.28-1.08-1.85-1.66-.26-.32-.13-.83.32-1.28.13-.13.32-.32.45-.45s.32-.32.38-.38c-.13-.32-.38-.32-.83-.19-.32.13-.77.26-1.02.13-.32-.06-.51-.26-.77-.45-.19-.19-.51-.32-.57-.57-.06-.26.06-.64.06-.96,0-.13.06-.38,0-.45-.77-.64-1.53-1.28-2.42-1.79-.38-.32-.13-.83-.13-1.34,0-.32-.26-.45-.7-.19-1.08.7-1.34,1.4-.51,1.91.64.45,1.02.89.83,1.85-.13.19,0,.32.06.38.57.38,1.15.89,1.72,1.28.06.06.06.26.13.38q.57,1.72,1.02,2.17c.26.13.45.38,1.91-.83,1.85-.77,2.42-.19,3.19.26.51.26.26.77.19,1.28,0,.19,0,.32.06.45,1.47,1.15,2.87,2.36,4.4,3.44.19.26.32.45.26.83-.13.51-.13.89.32,1.21.83.57,1.53,1.28,2.42,1.79q.38.32.45,1.59c0,.19,0,.32.06.45.77.64,1.66,1.21,2.42,1.79.19.26.26.51.13.83-.19.45-.13.7.06.89.89.57,1.66,1.21,2.42,1.85.06.06.06.26.06.45q.06,1.28.51,1.53c.51.45,1.08.96,1.66,1.34.7.32.32,1.08.26,1.66,1.02.77,1.98,1.66,3.06,2.42.51.26.32.77.26,1.21,0,.19-.06.38,0,.45.26.32.7.51,1.02.77.26.32.57.57.96.83.06.57-.45,1.34.26,1.66.32.26.7.51,1.02.77.38.26.7.51.96.83.26.13.45.38.7.51.51.26.13.83.19,1.28,0,.19,0,.32.06.45.7.51,1.28,1.08,2.04,1.53.57.38.51.96.38,1.66,0,.13.06.26.19.38.77.64,1.53,1.28,2.36,1.85.26.13.26.45.13.83-.13.38-.06.64.13.83.77.64,1.66,1.21,2.42,1.79.06.13.06.26.06.45q0,1.21.45,1.59c.13,0,.26.13.32.26.57.38,1.08.96,1.72,1.28.77.38.77,1.15.64,1.98.51.45,1.02.96,1.66,1.34.51.26.32.77.32,1.21,0,.19-.06.38,0,.45.77.64,1.59,1.28,2.36,1.85.51.26.26.77.19,1.28,0,.19,0,.32.06.45.45.38.89.7,1.4,1.02q.51.45.45,1.59c0,.51.45.7.77.96.38.26.7.51.51,1.08-.13.38-.13.7.13.83.45.38.89.77,1.28,1.08.45.19.64.57.45,1.08-.13.38-.13.7.13.83,1.02.77,2.04,1.53,3.06,2.42.06.06.06.25.06.38,0,.32-.06.64-.06.96.45.38.77.83,1.28,1.08.45.38.89.7.64,1.47-.13.19-.19.45-.13.51.38.25.7.51,1.02.77s.7.51,1.02.77c.06.57-.45,1.34.19,1.72.45.19.7.51,1.02.77s.7.51,1.02.77c.06.13.26.13.26.32.06.06,0,.32-.06.45,0,.45-.19.96.32,1.21.45.19.7.51,1.02.77q.51.32.45,1.59c0,.51.57.57.64.96,0,.32-.13.7-.13,1.02.06.06.06.25.19.38.45.38.89.77,1.4,1.02.45.19.51.64.38,1.15-.13.38-.06.64.19.77,1.15.89,2.17,1.85,3.38,2.68.38.32.45.77.32,1.21-.32.83.77.77.64,1.47-.13.51-.32.96.19,1.28.83.57,1.53,1.28,2.36,1.85,0,.45-.06.96-.06,1.4.51.32.96.7,1.4,1.02.32.25.7.51,1.02.77.06.13.19.25.26.32v.45q-.13.89.64,1.47c.32.25.64.51.45,1.08-.13.51.06.89.45,1.08.7.51,1.4,1.02,1.98,1.59.26.13.26.45.13.83-.19.57.13.83.51,1.08.45.32.96.64.7,1.4-.13.19-.19.45-.06.45.45.57.96,1.02,1.53,1.4.57.38.26,1.15.26,1.66.51.45,1.15.89,1.66,1.34.19.06.38.13.38.25.13.51-.45,1.34.26,1.66.32.25.7.51.96.83.06.06,0,.32,0,.45-.06.13-.26.19-.38.19-.32.06-.7.13-1.15.32,0,0-.06.25-.13.38,0,.32.13.51.45.7.26.13.26.51.13.83,0,.13-.32.32-.96.64-.51.38-.13.32.13.19.57-.32.51-.51.06-.57-.32-.06-.64.06-.77.25-.06.06-.13.32.57.19,1.02.13,1.47.51,1.91.83.06.13.38.13.32.25,0,.51-.06.96-.06,1.4.26.32.64.45.57,1.08q-.13.83.32,1.21c.26.13.51.32.7.51.26.13.26.45.13.83-.13.7-.06.77.7.57.51-.19.7-.13.7.19q-.06,1.08.51,1.53c.51.32.89.7.64,1.47-.26.57-.06.57.45.38,1.4-.32,1.53-.13,1.53,1.4,0,.7.7.83,1.08,1.21.32.38.32.77-.26,1.21-.38.38-.57.64-.57,1.02.06.06.06.25.13.38.64.45,1.15.89,1.72,1.28.32.19.83,0,1.4-.51.64-.57.83-.64,1.34-.38.38.13.45.38.45.7s-.19.45-.7.51c-1.21.25-1.66.7-1.79,1.72,0,.32-.13.7-.32.96-.13.19-.32.25-.45.45-.32.77-.38,1.59-.32,2.36.64.25.51.96.45,1.59,0,.51.51.64.83.89.38.25.51.64.38,1.15-.13.38-.06.64.13.83.45.38.89.77,1.4,1.02.45.25.45.7.32,1.21-.13.57.38.7.57,1.02.26.51-.38,1.34.26,1.66.45.19.7.51,1.02.77.06.06,0,.32-.13.51-.19.77.13,1.15.64,1.47.38.19.77.38.57,1.02-.19.96-.26,1.91-.38,2.93-.32.45-.89.77-.83,1.34,0,.32,0,.64-.13,1.02s-.06.64.26.77c.45.38.89.77,1.4,1.02.51.25.32.77.19,1.28,0,.32-.06.64.32.7.38.13.45.32.32.77-.13.51-.13.57.57,1.53.06.06,0,.32-.06.45-.06.06-.26.19-.51.25-.13,0-.38.06-.45-.06-1.02-.77-2.1-1.53-3.06-2.42-.19,0-.32-.06-.51-.06-.13,0-.38,0-.45.06s-.13.32-.13.51c.06.45.7.51.64,1.02,0,.32-.13.7-.13,1.02.06.06.19.19.26.32.32.25.7.51,1.02.77.06.13,0,.32.06.45q-.06,1.08.45,1.59c.26.13.64.25.7.51.06.25-.06.64-.06.96-.06.64-.06,1.28-.83,1.91-.26.19-.32.64-.13.83.06.25.45.38.64.57q.57.38.51,1.53c0,.32.13.51.45.7.06.13.19.19.19.38.06.45-.06.57-.57.64-.77.13-.7.13-.57,1.34.19.38.06.89,0,1.34q-.06.77-.89.96c-.19.06-.32.06-.57.13-.51.06-1.02.25-1.34-.13-.45-.38-.96-.64-1.4-1.02-.45-.32-.77-.25-1.4.32-.7.64-.7.83-.13,1.59.19.25.26.51.13.83-.32.13-.7.19-.96.06-.57-.38-1.15-.89-1.72-1.28-.45-.38-.89-.77-1.28-1.08-.32-.19-.96,0-1.47.57-.26.25-.51.51-.83.83-.51.57-.57.83-.19,1.28.06.13.26.13.32.25.26.51-.38,1.4.19,1.72.51.32.89.77,1.4,1.02.45.25.32.77.32,1.21,0,.19-.06.38,0,.45.51.45,1.02.96,1.72,1.28.32.19.32.38.26.77q-.13.89.64,1.47c.57.38.51.45.45,1.59,0,.32.13.51.45.7.32.25.77.45.96.83,0,.19,0,.38-.13.51-.06.06-.32.13-.45.13-.96-.19-1.4-.89-2.1-1.4-.26-.13-.26-.45-.13-.83.13-.38.13-.7-.13-.83-.45-.38-.89-.77-1.4-1.02-.38-.32-.45-.7-.32-1.21,0-.13.13-.38,0-.45-.96-.83-1.98-1.59-3-2.36-.38-.32-.32-.77-.32-1.21.06-.25.19-.45.13-.51-.38-.25-.7-.51-1.02-.77-1.21-1.02-2.49-1.91-3.76-2.93-.06-.06,0-.32,0-.45,0-.32.06-.64.06-.96-.38-.25-.7-.51-1.02-.77-.19-.25-.51-.32-.89-.06-.26.19-.32.57-.06.77.19.25.45.38.51.64.13,1.4.06,1.47.7,1.91.51.45.51.32.38,1.15-.06.38-.06.64.19.77.51.45,1.15.89,1.66,1.4.06.06.06.25.06.38q-.06,1.15.51,1.53c.77.57.83.51.64,1.47-.13.7.32.77.57,1.08-.06.64-.06,1.28-.19,1.91-.19.77.19,1.15.7,1.4.32.25.57.57.51,1.08-.19.57,0,.89.38,1.15.32.25.77.45.83.89,0,.19-.06.45-.13.51-.13.06-.32.13-.51.06-.89-.25-1.4-.89-2.1-1.4-.06-.13-.06-.25-.06-.45,0-.32.06-.64.13-1.02-.32-.25-.64-.57-1.02-.77-.26-.19-.45-.38-.32-.77.13-.38.26-.77.06-.96-.06-.25-.32-.45-.57-.57s-.38-.51-.7-.51c-.32-.06-.7.13-1.08.19-.45.13-.64.06-.83-.19-.26-.19-.32-.45-.26-.77v-.45c0-.19,0-.32-.06-.45-.96-.83-1.98-1.59-3.06-2.42-.51-.45-.45-.38-.83-1.85,0-.19,0-.32-.13-.38-.51-.51-1.08-.96-1.66-1.4-.64-.45-.51-.45-.7-1.91-.06-.25-.45-.38-.57-.57-.26-.51.38-1.4-.19-1.72-.51-.32-.89-.77-1.4-1.02-.45-.25-.32-.77-.32-1.21,0-.19.06-.38,0-.45-.96-.83-1.98-1.59-3.12-2.87-.26-.32-.32-.06-.26.25.19.38.38.32.7-.19.13-.32.19-.64,0-.7-.13,0-.38,0-.45.64-.06.57-.26.7-.38.89-.13.38-.06.64.13.83.32.25.7.51,1.02.77.06.06.06.25.06.45q0,1.21.89,1.79c.19.25.32.45.32.77,0,.45-.32,1.02.19,1.28.57.38,1.15.89,1.66,1.34.13,0,.06.25.06.38,0,.45-.26,1.02.19,1.28.38.19.7.51,1.02.77.06.06,0,.38-.13.51-.13.19-.45.32-.83.32-.06-.13-.19-.25-.32-.25-.45-.38-.89-.77-1.28-1.08-.26-.19-.51-.32-.96,0-.19.13-.26.57-.06.77.32.25.64.57,1.02.77.64.45,1.02.89.83,1.85-.13.64-.06.57-.96,1.85-.26.32-.06.57.13.83.45.57.57.89.19,1.08-.38.19-.7.13-.89-.06-.45-.38-.89-.77-1.4-1.02-.06-.13-.26-.13-.32-.25v-.51c0-.32.26-.77.06-.96-.06-.25-.45-.38-.64-.57-.26-.13-.64-.25-.7-.51-.06-.25.06-.64.13-1.02,0-.19,0-.32-.06-.45-.45-.38-.89-.7-1.4-1.02q-.51-.45-.45-1.59c0-.32-.13-.51-.38-.7-.57-.38-.51-.45-.83-1.85,0-.19,0-.32-.19-.38-.96-.83-1.98-1.59-3.06-2.42q-.83-.7-2.23-.38-.96.19-1.02.77c0,.45-.26,1.02-.06,1.4.06.38.77.45.57,1.08-.13.32-.19.77-.06.96.19.38.77.45.57,1.02-.13.32-.13.7-.06.96.26.32.7.51,1.02.77.06.13.19.25.19.38.06.13,0,.32,0,.45-.13.51.06.89.45,1.08.7.38.96,1.02.7,1.91,0,.13.06.25.19.38.26.19.45.38.45.7,0,.13,0,.32-.13.38-.19.13-.38.19-.57.13-.83-.38-1.34-1.02-2.04-1.53-.06-.13-.06-.25-.06-.45,0-.32.26-.77.06-.96-.06-.25-.32-.45-.57-.57-.19-.25-.51-.32-.64-.57-.13-.19-.06-.57.06-.96.13-.38-.06-.57-.32-.77-.38-.19-.7-.51-1.02-.77,0-.32.13-.7.13-1.02,0-.19,0-.32-.06-.45-.45-.38-.89-.77-1.4-1.02q-.45-.38-.45-1.59c0-.19,0-.32-.06-.45-.57-.38-1.15-.89-1.72-1.28-.19-.19-.26-.45-.13-.83s.13-.7-.06-.89c-.96-.64-1.85-1.4-2.74-2.04-.38-.25-.51-.64-.38-1.15.19-.64-.13-.83-.51-1.08-.83-.51-.77-.57-.7-1.4,0-.19.19-.45,0-.45-.7-.7-1.47-1.34-2.36-1.85-.38-.32-.26-.83-.19-1.28,0-.13.06-.38,0-.45-.51-.45-1.15-.89-1.72-1.28s.13-1.34-.26-1.66c-.45-.57-1.02-.96-1.66-1.34-.45-.38-.89-.77-1.4-1.02-.45-.38-.89-.77-1.28-1.08-.26-.13-.32-.38-.26-.77.06-.45.06-.96.19-1.47q.06-.77-.45-1.08c-.06-.13-.19-.25-.32-.25q-.83-.64-1.08-2.17c.06-.13-.19-.06-.32-.06-.38.06-.7.13-1.08.19,0-.32-.06-.57.06-.96.32-.83-.96-.64-.64-1.47.13-.32.13-.7.06-.96-.06-.25-.45-.38-.7-.51q-.51-.45-1.72-.25c-.64.13-.83-.32-1.15-.57-.45-.19-.7-.51-.57-1.02.13-.51,0-.89-.38-1.15-.51-.32-.96-.64-1.4-1.02-.06-.06-.06-.25-.19-.38q-.26-1.47-.7-1.91c-.26-.13-.45-.38-.7-.51-.45-.19-.51-.64-.38-1.15,0-.19.06-.38,0-.45-.32-.45-.77-.77-1.21-1.15-.38-.25-.7-.51-1.02-.77-.7-.32-.32-1.08-.26-1.66-.57-.38-1.15-.89-1.72-1.28-.32-.19-.32-.45-.26-.83.06-.45.19-.96-.32-1.21-.57-.38-1.08-.89-1.66-1.34-.06-.57.32-1.34-.26-1.66-.45-.19-.7-.51-1.02-.77-.45-.38-.96-.7-1.4-1.02q-.45-.38-.45-1.59c0-.7-.77-.77-1.08-1.21-.32-.25-.89-.06-1.4.45-.51.57-1.08.7-1.4.45-.77-.64-1.53-1.28-2.36-1.85-.06-.06-.06-.25-.13-.38q-.06-1.28-.45-1.59c-.51-.45-1.02-.96-1.66-1.34-.45-.25-.51-.64-.38-1.15.13-.38.06-.64-.26-.77-2.68-2.17-5.36-4.27-8.16-6.38-.38-.32-.32-.77-.32-1.21,0-.13.13-.38.06-.45-.19-.25-.45-.38-.64-.57-1.02-.77-2.17-1.47-3.12-2.36-.32-.45-.89-.13-1.4-.06-.38.06-.64.06-.83-.19-.26-.19-.32-.45-.26-.83.13-.51.13-.89-.32-1.21-.51-.32-.96-.64-1.4-1.02-.26-.19-.57-.19-.96,0-.13.06-.06.25-.06.38-.13.51-.26,1.02-.19,1.47,0,.51.51.64.83.89.06.13.26.13.38.25.06.13.06.25.06.45-.13.7-.19,1.28.45,1.59.26.45-.38,1.34.26,1.66.32.25.7.51,1.02.77.06.13,0,.32,0,.45,0,.45-.26,1.02.19,1.28.51.25.96.7,1.4,1.02.26.19.32.45.26.83-.06.45-.13.89.38,1.15.32.25.7.51,1.02.77q.45.32.45,1.59c0,.19,0,.32.06.45.57.38,1.15.89,1.72,1.28.19.19.26.51.06.89,0,.13-.19.25-.38.38-1.15-.89-2.3-1.79-3.44-2.61-.45-.32-.13-.89-.19-1.28,0-.19.06-.38,0-.51-.77-.64-1.53-1.28-2.42-1.79-.19-.25-.32-.45-.26-.77.38-1.08-.51-1.28-1.02-1.72-.38-.32-.77-.25-1.34.32-.7.64-.7,1.02-.13,1.59.26.13.45.38.7.51.19.19.26.45.13.83s-.13.7.13.83c.45.38.89.77,1.28,1.08.45.19.57.57.38,1.15-.13.51.19.77.57,1.02q.77.64.64,1.47c0,.19-.13.38,0,.45.77.64,1.47,1.34,2.36,1.85.38.32.32.77.32,1.21,0,.13-.19.45,0,.45.51.45,1.02.96,1.66,1.34.26.19.38.32.32.77q-.19.96.64,1.47c.19.25.51.32.64.57.06.25-.13.7-.13,1.02.06.06,0,.32.06.45.45.38.96.7,1.4,1.02s.45.32.45,1.59c0,.51.51.64.83.89.38.25.57.57.38,1.15-.13.51.13.83.45,1.08s.77.45.77.96q0,1.21.45,1.59c.7.51,1.4,1.02,2.1,1.53.06.06.06.25.06.38,0,.32-.19.77-.06.96.06.25.32.45.57.57.7.57.83.51.51,1.53-.19.77.96.64.64,1.47-.19.45-.19.96.32,1.21.32.25.7.51,1.02.77q.51.45.45,1.59c0,.13,0,.32.06.45.45.38.89.77,1.4,1.02.57.38.51.96.45,1.59,0,.51.45.7.77.96.45.19.57.57.45,1.08-.19.57.13.83.51,1.08.32.25.77.45.77.96q-.06,1.15.45,1.59c.51.32.96.7,1.4,1.02.06.06.06.25.06.38-.06.38-.19.77-.13,1.02.06.25.45.38.7.51.19.19.51.32.57.57.06.25.06.57-.06.96-.06.38.06.57.32.77.32.25.7.51,1.02.77-.13.38-.13.7-.13,1.02-.06.38.13.51.32.77q.89.64.89,1.79c0,.51.45.7.77.96.38.25.57.57.45,1.08-.19.57.06.89.38,1.15.26.13.51.32.7.51.06.13.19.19.13.38-.13.7-.19,1.28.45,1.59.26.51-.32,1.28.19,1.72.51.32.89.77,1.4,1.02.45.25.45.7.26,1.21-.32.83.96.64.64,1.47-.19.45-.32,1.02.19,1.28.51.32.45.57-.06,1.21-.26.32-.57.51-.89.57-.38.06-.45-.06-.32-.57.13-.51,0-.89-.38-1.15-.38-.25-.06-.89-.06-1.28,0-.51-.57-.57-.57-1.08q0-1.15-.51-1.53c-.26-.32-.64-.57-.96-.83-.45-.25-.38-.7-.38-1.15,0-.13.19-.45.06-.45-.7-.7-1.47-1.34-2.36-1.85-.38-.32-.26-.83-.19-1.28,0-.19.06-.38,0-.45-.7-.51-1.4-1.02-2.1-1.53-.32.06-.7.13-1.02.25-.45.13-.64.06-.89-.19-.32-.45-1.08-.45-.89-1.34.19-.83.13-.83-.26-1.21-.57-.38-1.08-.96-1.79-1.21-.13,0-.38,0-.57.19-.06.06-.06.25-.06.45,0,.51.57.57.57,1.02,0,.32-.06.64-.06.96,0,.13.06.25.19.38.06.13.26.13.32.25s.06.25.06.45c-.06.64-.06,1.28-.19,1.91s.32.77.57,1.08q.38,1.79,1.28,2.49c.19.19.45.38.64.57.06.06,0,.32,0,.45-.13.51-.19.96.32,1.21.45.19.7.51,1.02.77q.45.38.45,1.59c0,.32.13.51.45.7.26.13.26.51.13.83-.06.13-.32.32-.38.38-.7-.51-1.4-1.02-2.04-1.53-.51-.25-.26-.77-.19-1.28-.06-.06,0-.32-.06-.38-.7-.51-1.28-1.08-2.04-1.53-.06-.06-.38,0-.45.06-.26.19-.38.57-.19.77.26.32.7.51.57,1.02-.19.57-.06.96.32,1.21.26.13.45.38.7.51.7.38,1.08.89.83,1.85.06.45.51.64.83.89.19.25.45.38.45.7-.06.64-.19,1.28.45,1.59.19.7-.06,1.59-.19,2.36-.06.38-.06.64.26.83.19,0,.26.13.32.25.26.13.64.25.7.51.06.25-.06.64-.06.96,0,.13-.13.38,0,.45.32.25.7.51,1.02.77s.57.57.96.83c0,.45-.06.96-.06,1.4.51.32.96.64,1.4,1.02s.45.38.45,1.59c0,.51.45.7.83.83.57.38.51.96.38,1.66,0,.13.06.25.13.38.45.19.51.64.38,1.15-.13.38-.06.64.13.83.89.57,1.66,1.21,2.42,1.79.06.06.06.25.06.38q0,1.15.51,1.53c.45.38.83.7.64,1.47-.13.19-.19.45-.13.51.57.38,1.15.89,1.72,1.28.32.19.32.45.32.77-.13.51-.32,1.02.19,1.28,1.21.83,1.15.89,1.66,2.68,0,.13.19.19.26.32.32.06.32.38.26.77-.13.83-.06.77.38,1.15.32.25.64.57,1.02.77.57.32.51.96.45,1.59,0,.51.45.7.77.96.38.25.57.57.45,1.08-.13.38-.13.7.13.83.77.64,1.53,1.28,2.36,1.85.06.06.06.25.19.38,0,1.21-.06,1.28.77,1.85.26.19.45.38.45.7-.13.38-.13.7-.13,1.02.38.25.64.57.96.83.26.19.45.32.38.7-.13.51-.38,1.08.19,1.28.26.13.45.38.7.51.32.19.32.45.26.83-.06.45-.19.96.26,1.21.51.32.89.77,1.4,1.02.26.13.32.38.26.77-.13.51-.06.89.32,1.21q.83.57.89,1.72c0,.32.13.51.45.7.26.13.26.51.13.83-.64.45-.83.57-.96.7ZM493.34,327.64c-.26-.13-.45-.38.13-1.34.06-.06.26-.19.38-.38.13-.32.19-.64.06-.83-.19-.45-.89-.57-1.15-.38-.19.13-.32.45-.32.83.06.06-.06.32-.06.45,0,.38-.19.89.26,1.15.51-.51.32-.32,0,0-.38.25-.51.57-.45.83,0,.13.06.25.19.25.45,0,.7-.19,1.34-.96-.13,0-.38.26-.38.38.06.06.19.25.32.19.32.06.64-.06.77-.25.13-.19.13-.38.06-.45-.13-.13-.38-.06-1.15.51ZM427.16,469.31c-.57-.32-1.02-.89-1.72-1.08-.19,0-.38,0-.57.19-.13.06-.06.25-.06.38,0,.32.26.45.51.64.26.38.06.89,0,1.34.06.06.06.25.13.38.57.38,1.08.89,1.72,1.28.06.13.26.13.38.13.45.06.64-.13.64-.57,0-.51.19-.96.13-1.4-.13-.64-.83-.83-1.15-1.28ZM390,437.49c-.32-.25-.7-.51-1.02-.77-.06-.13-.19-.25-.32-.25-.26-.13-.51-.13-.96,0-.13.32-.06.57.13.83.32.25.7.51.96.83.38.25.13.83.06,1.28,0,.13.06.25.13.38.38.51,1.15.38,1.72-.25.45-.45.57-1.02.26-1.21-.26-.38-.64-.64-.96-.83ZM442.91,460.32c.26-.06.38-.06.57-.13.57-.32.89-.64,1.02-1.08.26-.7-.32-.7-.57-1.02-.06-.06-.38.06-.51.06-.13.06-.32.25-.32.25-.06.7-.13,1.28-.19,1.91ZM424.49,380.62c-.32-.25-.7-.51-1.02-.77-.13,0-.38.06-.51.06-.32.13-.57.45-.38.77.19.38.57.57.96.83.45.32,1.02.25,1.15-.06.26-.51.13-.7-.19-.83ZM163.92,17.41c.26.13.45.38.7.51.26.13.64.06.96,0,.13-.38.13-.7-.06-.89-.32-.26-.7-.51-1.02-.77-.26-.13-.57-.19-.96.06-.32.13-.13.7.38,1.08ZM423.53,335.29c0,.19-.13.38-.06.45.19.25.45.38.7.51.06.06.26,0,.51-.06.06-.06.26-.19.32-.32.26-.51-.51-1.15-1.08-.89-.19.06-.32.26-.38.32ZM458.28,272.75l-.38.38c-.19.26-.32.64-.32.96.38-.06.7-.13,1.02-.45.19-.13.26-.19.38-.38.32-.32.32-.57.32-.96-.38.06-.7.19-1.02.45ZM432.78,493.73c-.19.06-.32.06-.45.06-.19.45-.13.7.13.64.13,0,.38-.06.51-.06.13-.38.06-.64-.19-.64ZM428.12,490.73c0,.19,0,.32-.06.45.06.25.32.25.77.06,0-.13.13-.38.06-.45,0-.32-.26-.32-.77-.06ZM431.95,491.88c-.19.06-.38.38-.32.77.19-.06.38-.06.57-.13.19-.06.38-.38.32-.77-.19.06-.32.06-.57.13ZM430.93,469.76c-.32.13-.38.38-.32.77.13,0,.38-.06.45-.06.32-.13.38-.38.32-.77-.13-.06-.32,0-.45.06ZM482.25,396.82c-.13,0-.38.06-.51.06-.13.38-.06.64.13.7.19-.06.32-.06.57-.19.13-.32.06-.57-.19-.57ZM502.97,350.02c.06.25.32.19.77.06,0-.13.06-.32.06-.45-.06-.19-.32-.19-.77-.06-.06.19-.06.32-.06.45ZM497.36,338.55c-.19.06-.32.06-.57.19-.13.38-.06.57.19.57.13,0,.38-.06.51-.06.13-.38.06-.64-.13-.7ZM453.11,266.18c-.19.06-.32.06-.57.19-.13.38-.06.57.19.57.13,0,.38-.06.51-.06.13-.38.06-.64-.13-.7ZM112.98,2.68c0-.13,0-.32.06-.45-.38,0-.7.19-.77.38-.13.19,0,.32-.06.45.38,0,.64-.13.77-.38Z"/>
      <g id="_Слой_3" data-name="Слой 3">
        <g class="cls-14">
          <circle class="cls-5" cx="158.94" cy="330.89" r="158.62"/>
        </g>
        <g class="cls-8">
          <circle class="cls-11" cx="169.95" cy="330.43" r="78.36" transform="translate(-183.87 216.95) rotate(-45)"/>
        </g>
        <g class="cls-1">
          <path class="cls-10" d="M179.6,351.74c-18.23-8.67-44.95-19-84.48-21.74-38.51-2.68-77.08,5.8-96.21,11.6l-20.53,107.75,71.28,35.38,127.19-131.53,2.74-1.47Z"/>
        </g>
        <g class="cls-15">
          <path class="cls-10" d="M313.68,341.8c-16.19-6.18-44.82-14.6-79.57-10.07-17.41,2.3-34.3,7.52-57.25,19.25-26.2,13.32-81.1,44.63-130.32,99.84l112.4,167.3,190.69-265.1-35.96-11.22Z"/>
        </g>
        <g class="cls-9">
          <path class="cls-6" d="M151.04,365.2c-15.17-7.2-35.19-15.17-68.16-17.47-32.07-2.23-69.18,6.76-85.11,11.6"/>
        </g>
        <g class="cls-17">
          <path class="cls-6" d="M112.4,390.7c-10.46-4.97-22.82-9.56-45.52-11.16-22.12-1.53-55.72,6.31-66.69,9.69"/>
        </g>
        <g class="cls-2">
          <path class="cls-6" d="M80.84,416.58c-5.36-2.55-9.82-4.14-21.42-4.97-11.28-.77-35.07,5.48-40.68,7.14"/>
        </g>
        <g class="cls-7">
          <path class="cls-6" d="M49.6,466.44c40.68-47.37,81.61-75.36,109.28-91.36,46.03-26.59,73.96-30.48,82.18-31.5,36.09-4.27,65.8,3.76,83.07,10.07"/>
        </g>
        <g class="cls-16">
          <path class="cls-6" d="M56.3,489.58c40.68-47.37,81.61-75.36,109.28-91.36,46.03-26.59,73.96-30.48,82.18-31.5,36.09-4.27,70.45-1.02,87.73,5.23"/>
        </g>
        <g class="cls-13">
          <path class="cls-6" d="M73.89,518.34c39.72-48.2,80.01-77.02,107.43-93.59,45.46-27.48,73.32-32.01,81.54-33.15,35.96-5.04,70.45-2.49,87.86,3.44"/>
        </g>
        <g class="cls-18">
          <path class="cls-6" d="M92.51,551.43c39.02-48.71,78.93-78.16,106.09-95.06,45.08-28.12,72.87-33.03,81.1-34.3,35.89-5.55,70.39-3.44,87.86,2.23"/>
        </g>
        <circle id="SVGID" class="cls-6" cx="158.94" cy="330.89" r="158.62"/>
      </g>
      <g>
        <text class="cls-12" transform="translate(162.98 163.92) rotate(.51)"><tspan x="0" y="0">О</tspan></text>
        <text class="cls-12" transform="translate(181.86 164.36) rotate(6.1)"><tspan x="0" y="0">т</tspan></text>
        <text class="cls-12" transform="translate(193.55 165.66) rotate(10.62)"><tspan x="0" y="0">к</tspan></text>
        <text class="cls-12" transform="translate(206.85 168.19) rotate(15.86)"><tspan x="0" y="0">р</tspan></text>
        <text class="cls-12" transform="translate(221.9 172.52) rotate(21.91)"><tspan x="0" y="0">ы</tspan></text>
        <text class="cls-12" transform="translate(238.49 179.41) rotate(27.69)"><tspan x="0" y="0">в</tspan></text>
        <text class="cls-12" transform="translate(250.87 186.02) rotate(32.7)"><tspan x="0" y="0">а</tspan></text>
        <text class="cls-12" transform="translate(262.45 193.56) rotate(37.79)"><tspan x="0" y="0">я</tspan></text>
        <text class="cls-12" transform="translate(273.41 202.3) rotate(41.65)"><tspan x="0" y="0"> </tspan></text>
        <text class="cls-12" transform="translate(278.82 207.11) rotate(45.04)"><tspan x="0" y="0">г</tspan></text>
        <text class="cls-12" transform="translate(286.51 214.79) rotate(49.67)"><tspan x="0" y="0">о</tspan></text>
        <text class="cls-12" transform="translate(296.21 226.5) rotate(54.4)"><tspan x="0" y="0">р</tspan></text>
        <text class="cls-12" transform="translate(305.15 239.36) rotate(60.7)"><tspan x="0" y="0">и</tspan></text>
        <text class="cls-12" transform="translate(312.52 252.8) rotate(65.71)"><tspan x="0" y="0">з</tspan></text>
        <text class="cls-12" transform="translate(317.6 264.13) rotate(70.73)"><tspan x="0" y="0">о</tspan></text>
        <text class="cls-12" transform="translate(322.52 278.51) rotate(76.25)"><tspan x="0" y="0">н</tspan></text>
        <text class="cls-12" transform="translate(325.95 293.19) rotate(81.14)"><tspan x="0" y="0">т</tspan></text>
        <text class="cls-12" transform="translate(327.82 304.78) rotate(86.49)"><tspan x="0" y="0">ы</tspan></text>
      </g>
    </g>
  </g>
</svg>