<svg width="397" height="225" viewBox="0 0 397 225" fill="none" xmlns="http://www.w3.org/2000/svg">
<g opacity="0.3">
<path d="M70.3 144.24C61.69 144.24 52.66 137.86 44.65 132.22C42.19 130.49 39.87 128.84 37.66 127.46L2 105.13L2.12 104.84L37.78 127.2C39.99 128.58 42.33 130.23 44.79 131.96C53.1 137.81 62.53 144.48 71.39 143.89C81.01 143.27 86.07 133.08 89.41 124.23C90.5 121.35 91.55 118.41 92.58 115.56C95.37 107.8 98.25 99.7802 102.1 92.2902C105.15 86.3502 108.93 80.1202 113.05 74.3102C117.57 67.9002 122.39 62.0302 127.42 56.8602C132.95 51.1602 138.58 46.4302 144.14 42.8102C150.28 38.8102 156.35 36.2302 162.15 35.0802C173.76 32.7902 184.34 36.2602 193.56 45.4502C201.23 53.0902 207.74 62.5202 214.04 71.6302C219.52 79.5602 225.2 87.7902 231.61 94.8102C239.03 102.92 247.05 110.41 255.47 117.05C262.57 122.66 271.38 129.63 280.47 128.07C288.15 126.75 292.6 120.55 294.05 109.15C295.28 99.4502 294.11 87.9302 293.17 78.7102C292.85 75.5702 292.54 72.5702 292.39 70.1602C291.57 56.8502 292.1 45.8602 294 36.5702C295.19 30.7802 296.95 25.6102 299.21 21.2002C301.75 16.2902 305 12.2102 308.89 9.03024C312.25 6.30024 316.03 4.30023 320.15 3.12023C324.07 2.00023 328.19 1.62024 332.39 2.00024C340.67 2.76024 348.77 6.41023 355.21 12.3102C358.64 15.4502 361.76 19.2402 364.48 23.5602C367.06 27.6402 369.29 32.2602 371.11 37.2502C374.54 46.6202 376.52 57.3202 376.81 68.1302H376.55C375.92 45.0902 367.88 24.3202 355.04 12.5602C341.42 0.0702343 322.06 -1.30976 309.04 9.30024C296.14 19.7902 290.78 39.6802 292.66 70.1002C292.81 72.5102 293.11 75.4802 293.44 78.6202C294.39 87.8802 295.57 99.4202 294.32 109.15C293.65 114.47 292.28 118.73 290.27 121.81C289.14 123.54 287.78 124.98 286.22 126.04C284.56 127.19 282.64 127.95 280.5 128.3C279.62 128.45 278.74 128.54 277.83 128.54C274.53 128.54 271.03 127.54 267.18 125.51C262.84 123.22 258.66 119.93 255.3 117.25C246.87 110.58 238.83 103.09 231.41 94.9802C224.97 87.9602 219.3 79.7302 213.81 71.7702C207.52 62.6602 201.01 53.2302 193.37 45.6202C184.21 36.5102 173.72 33.0402 162.18 35.3102C138.81 39.9802 114.77 68.2202 102.31 92.4602C98.4801 99.9202 95.6099 107.92 92.8199 115.67C91.7899 118.52 90.74 121.46 89.65 124.34C87.44 130.19 85.25 134.39 82.76 137.53C81.21 139.5 79.53 141.03 77.76 142.14C75.8 143.34 73.65 144.05 71.4 144.2C71.03 144.2 70.67 144.2 70.3 144.2V144.24Z" stroke="#004000" stroke-width="3" stroke-miterlimit="6.38"/>
<path d="M88.8199 222.76C80.2099 222.76 71.18 216.38 63.17 210.74C60.71 209.01 58.3901 207.36 56.1801 205.98L20.52 183.62L20.64 183.33L56.3199 205.69C58.5299 207.07 60.87 208.721 63.33 210.451C71.64 216.301 81.0701 222.97 89.9301 222.38C99.5501 221.76 104.61 211.57 107.95 202.72C109.04 199.84 110.09 196.9 111.12 194.05C113.91 186.29 116.79 178.27 120.64 170.78C123.69 164.84 127.47 158.61 131.59 152.8C136.11 146.39 140.93 140.52 145.96 135.35C151.49 129.65 157.12 124.92 162.68 121.3C168.82 117.3 174.89 114.72 180.69 113.57C192.3 111.28 202.88 114.75 212.1 123.94C219.77 131.58 226.28 141.01 232.58 150.12C238.06 158.05 243.74 166.28 250.15 173.3C257.57 181.41 265.59 188.9 274.01 195.54C281.11 201.15 289.92 208.12 299.01 206.56C306.69 205.24 311.14 199.04 312.59 187.64C313.82 177.94 312.65 166.42 311.71 157.2C311.39 154.06 311.08 151.06 310.93 148.65C310.11 135.34 310.64 124.35 312.54 115.06C313.73 109.27 315.49 104.1 317.75 99.6905C320.29 94.7805 323.54 90.7005 327.43 87.5205C330.79 84.7905 334.57 82.7905 338.69 81.6105C342.61 80.4905 346.73 80.1105 350.93 80.4905C359.21 81.2505 367.31 84.9005 373.75 90.8005C377.18 93.9405 380.3 97.7305 383.02 102.05C385.6 106.13 387.83 110.75 389.65 115.74C393.08 125.11 395.06 135.81 395.35 146.62H395.09C394.46 123.58 386.42 102.81 373.58 91.0505C359.96 78.5605 340.6 77.1805 327.58 87.7905C314.68 98.2805 309.32 118.17 311.2 148.59C311.35 151 311.65 153.97 311.98 157.11C312.93 166.37 314.11 177.91 312.86 187.64C312.19 192.96 310.82 197.22 308.81 200.3C307.68 202.03 306.32 203.47 304.76 204.53C303.1 205.68 301.18 206.44 299.04 206.79C298.16 206.94 297.28 207.03 296.37 207.03C293.07 207.03 289.57 206.03 285.72 204C281.38 201.71 277.2 198.42 273.84 195.74C265.41 189.07 257.37 181.58 249.95 173.47C243.51 166.45 237.84 158.22 232.35 150.26C226.06 141.15 219.55 131.72 211.91 124.11C202.75 115 192.26 111.53 180.72 113.8C157.38 118.41 133.33 146.62 120.87 170.89C117.04 178.35 114.17 186.35 111.38 194.1C110.35 196.95 109.31 199.89 108.21 202.77C106 208.62 103.81 212.82 101.32 215.96C99.7699 217.93 98.0899 219.46 96.3199 220.57C94.3599 221.77 92.21 222.48 89.96 222.63C89.58 222.69 89.21 222.72 88.83 222.72L88.8199 222.76Z" stroke="#004000" stroke-width="3" stroke-miterlimit="6.38"/>
</g>
</svg>
