<svg width="1721" height="488" viewBox="0 0 1721 488" fill="none" xmlns="http://www.w3.org/2000/svg">
<g opacity="0.3">
<path d="M303.46 313.65C266.04 313.65 226.76 299.81 191.95 287.57C181.24 283.81 171.17 280.24 161.54 277.24L6.47998 228.79L6.98998 228.15L162.04 276.67C171.67 279.67 181.8 283.24 192.52 287C228.67 299.69 269.66 314.16 308.17 312.88C349.99 311.54 371.99 289.42 386.53 270.23C391.25 263.98 395.84 257.61 400.3 251.42C412.41 234.59 424.97 217.18 441.68 200.93C454.94 188.05 471.39 174.54 489.31 161.91C508.95 148.01 529.92 135.26 551.79 124.04C575.83 111.67 600.31 101.41 624.47 93.5602C651.18 84.8902 677.58 79.2802 702.76 76.7902C753.25 71.8202 799.22 79.3402 839.33 99.3002C872.67 115.88 900.98 136.34 928.4 156.11C952.24 173.32 976.92 191.18 1004.78 206.41C1037.04 224.01 1071.92 240.26 1108.51 254.67C1139.37 266.85 1177.69 281.96 1217.21 278.58C1250.62 275.71 1269.94 262.26 1276.25 237.52C1281.61 216.48 1276.51 191.49 1272.42 171.47C1271.02 164.65 1269.68 158.14 1269.04 152.92C1265.47 124.04 1267.76 100.19 1276.05 80.0502C1281.21 67.4902 1288.86 56.2702 1298.68 46.7102C1309.71 36.0602 1323.86 27.2002 1340.76 20.3202C1355.36 14.3902 1371.81 10.0602 1389.72 7.51018C1406.74 5.09018 1424.66 4.26018 1442.96 5.09018C1478.98 6.75018 1514.18 14.6502 1542.16 27.4702C1557.08 34.2902 1570.66 42.5202 1582.45 51.8902C1593.67 60.7502 1603.36 70.7602 1611.27 81.6002C1626.19 101.94 1634.8 125.15 1636.07 148.61H1634.92C1632.18 98.6302 1597.24 53.5502 1541.39 28.0502C1482.16 0.950191 1398 -2.03981 1341.39 20.9702C1285.28 43.7302 1262.01 86.8902 1270.17 152.88C1270.81 158.11 1272.15 164.55 1273.55 171.37C1277.69 191.45 1282.79 216.51 1277.38 237.61C1274.45 249.15 1268.52 258.39 1259.78 265.09C1254.87 268.85 1248.94 271.98 1242.18 274.27C1234.98 276.76 1226.62 278.41 1217.32 279.18C1213.49 279.5 1209.67 279.69 1205.72 279.69C1191.37 279.69 1176.14 277.52 1159.43 273.12C1140.56 268.15 1122.39 261.01 1107.79 255.2C1071.13 240.73 1036.19 224.47 1003.93 206.87C975.94 191.63 951.27 173.78 927.42 156.5C900.07 136.74 871.76 116.27 838.54 99.7602C798.69 80.0002 753.11 72.4702 702.93 77.3802C601.3 87.5202 496.81 148.79 442.61 201.39C425.97 217.58 413.47 234.93 401.36 251.76C396.9 257.94 392.31 264.32 387.59 270.57C377.96 283.26 368.46 292.37 357.62 299.2C350.86 303.47 343.59 306.79 335.88 309.21C327.34 311.82 318.03 313.35 308.21 313.67C306.62 313.67 305.02 313.67 303.43 313.67L303.46 313.65Z" stroke="#004000" stroke-width="7.65" stroke-miterlimit="6.38"/>
<path d="M383.98 484.01C346.56 484.01 307.28 470.17 272.47 457.93C261.76 454.17 251.69 450.6 242.06 447.6L87.01 399.08L87.52 398.44L242.64 446.96C252.27 449.96 262.4 453.53 273.12 457.29C309.27 469.98 350.26 484.45 388.77 483.17C430.59 481.83 452.59 459.71 467.13 440.52C471.85 434.27 476.44 427.9 480.9 421.71C493.01 404.88 505.57 387.47 522.28 371.22C535.54 358.34 551.99 344.83 569.91 332.2C589.55 318.3 610.52 305.55 632.39 294.33C656.43 281.96 680.91 271.7 705.07 263.85C731.78 255.18 758.18 249.57 783.36 247.08C833.85 242.11 879.82 249.63 919.93 269.59C953.27 286.17 981.58 306.63 1009 326.4C1032.84 343.61 1057.52 361.47 1085.38 376.7C1117.64 394.3 1152.52 410.55 1189.11 424.96C1219.97 437.14 1258.29 452.25 1297.81 448.87C1331.22 446 1350.54 432.55 1356.85 407.81C1362.21 386.77 1357.11 361.78 1353.02 341.76C1351.62 334.94 1350.28 328.43 1349.64 323.21C1346.07 294.33 1348.36 270.48 1356.65 250.34C1361.81 237.78 1369.46 226.56 1379.28 217C1390.31 206.35 1404.46 197.49 1421.36 190.61C1435.96 184.68 1452.41 180.35 1470.32 177.8C1487.34 175.38 1505.26 174.55 1523.56 175.38C1559.58 177.04 1594.78 184.94 1622.76 197.76C1637.68 204.58 1651.26 212.81 1663.05 222.18C1674.27 231.04 1683.96 241.05 1691.87 251.89C1706.79 272.23 1715.4 295.44 1716.67 318.9H1715.52C1712.78 268.92 1677.84 223.84 1621.99 198.34C1562.76 171.24 1478.6 168.25 1421.99 191.26C1365.88 214.02 1342.61 257.18 1350.77 323.17C1351.41 328.4 1352.75 334.84 1354.15 341.66C1358.29 361.74 1363.39 386.8 1357.98 407.9C1355.05 419.44 1349.12 428.68 1340.38 435.38C1335.47 439.14 1329.54 442.27 1322.78 444.56C1315.58 447.05 1307.22 448.7 1297.92 449.47C1294.09 449.79 1290.27 449.98 1286.32 449.98C1271.97 449.98 1256.74 447.81 1240.03 443.41C1221.16 438.44 1202.99 431.3 1188.39 425.49C1151.73 411.02 1116.79 394.76 1084.53 377.16C1056.54 361.92 1031.87 344.07 1008.02 326.79C980.67 307.03 952.36 286.56 919.14 270.05C879.29 250.29 833.71 242.76 783.53 247.67C682.03 257.68 577.47 318.89 523.28 371.55C506.64 387.74 494.14 405.09 482.03 421.92C477.57 428.1 473.04 434.48 468.26 440.73C458.63 453.42 449.13 462.53 438.29 469.36C431.53 473.63 424.26 476.95 416.55 479.37C408.01 481.98 398.7 483.51 388.88 483.83C387.22 483.96 385.63 484.02 383.97 484.02L383.98 484.01Z" stroke="#004000" stroke-width="7.65" stroke-miterlimit="6.38"/>
</g>
</svg>
