<svg width="27" height="27" viewBox="0 0 27 27" fill="none" xmlns="http://www.w3.org/2000/svg">
<mask id="mask0_50_3307" style="mask-type:luminance" maskUnits="userSpaceOnUse" x="0" y="0" width="26" height="27">
<path d="M13.23 26.38C20.2441 26.38 25.93 20.694 25.93 13.68C25.93 6.66597 20.2441 0.97998 13.23 0.97998C6.21603 0.97998 0.530029 6.66597 0.530029 13.68C0.530029 20.694 6.21603 26.38 13.23 26.38Z" fill="white"/>
</mask>
<g mask="url(#mask0_50_3307)">
<path d="M7.84009 13.5701C7.86009 11.9901 8.47008 10.4101 9.68008 9.21006C12.1301 6.76006 16.1001 6.76006 18.5601 9.21006C19.7901 10.4401 20.4001 12.0401 20.4001 13.6501" stroke="white" stroke-width="0.75" stroke-miterlimit="10"/>
<path d="M4.91016 31.34C8.04016 27.44 11.2302 25.08 13.4102 23.73C17.0202 21.48 19.2502 21.08 19.9102 20.98C22.7802 20.54 25.5502 20.7 26.9502 21.16" stroke="white" stroke-width="0.75" stroke-miterlimit="10"/>
<path d="M4.43018 26.91C7.69018 23.12 10.9702 20.87 13.1802 19.59C16.8702 17.46 19.1002 17.15 19.7602 17.07C22.6502 16.73 25.4002 16.99 26.7902 17.49" stroke="white" stroke-width="0.75" stroke-miterlimit="10"/>
<path d="M11.6401 16.8901C10.3801 16.4201 8.73011 15.9301 6.08011 15.9701C3.51011 16.0201 0.610117 16.9901 -0.629883 17.4901" stroke="white" stroke-width="0.75" stroke-miterlimit="10"/>
<path d="M8.58014 19.1802C7.94014 19.1202 7.24016 19.0902 6.45016 19.1102C3.75016 19.1702 0.710156 20.1602 -0.589844 20.6602" stroke="white" stroke-width="0.75" stroke-miterlimit="10"/>
<path d="M14.8902 15.35C13.4302 14.66 11.2901 13.83 8.12015 13.61C5.04015 13.4 1.95016 14.07 0.410156 14.54" stroke="white" stroke-width="0.75" stroke-miterlimit="10"/>
<path d="M25.6302 14.5502C24.3302 14.0502 22.0402 13.3802 19.2602 13.7402C17.8702 13.9202 16.5102 14.3402 14.6702 15.2802C12.5702 16.3502 8.17022 18.8502 4.23022 23.2802L13.2302 36.6802L28.5002 15.4502L25.6202 14.5502H25.6302Z" stroke="white" stroke-width="0.75" stroke-miterlimit="10"/>
</g>
<path d="M13.23 26.38C20.2441 26.38 25.93 20.694 25.93 13.68C25.93 6.66597 20.2441 0.97998 13.23 0.97998C6.21603 0.97998 0.530029 6.66597 0.530029 13.68C0.530029 20.694 6.21603 26.38 13.23 26.38Z" stroke="white" stroke-width="0.75" stroke-miterlimit="10"/>
</svg>
