<svg width="368" height="368" viewBox="0 0 368 368" fill="none" xmlns="http://www.w3.org/2000/svg">
<mask id="mask0_50_3169" style="mask-type:luminance" maskUnits="userSpaceOnUse" x="1" y="1" width="366" height="366">
<path d="M183.66 366.67C284.386 366.67 366.04 285.016 366.04 184.29C366.04 83.5643 284.386 1.91016 183.66 1.91016C82.9343 1.91016 1.28003 83.5643 1.28003 184.29C1.28003 285.016 82.9343 366.67 183.66 366.67Z" fill="white"/>
</mask>
<g mask="url(#mask0_50_3169)">
<path d="M106.23 182.68C106.5 159.98 115.29 137.37 132.61 120.06C167.79 84.8803 224.83 84.8803 260.02 120.06C277.61 137.65 286.41 160.71 286.41 183.76" stroke="white" stroke-width="2" stroke-miterlimit="10"/>
<path d="M64.21 437.85C109.07 381.85 154.96 347.98 186.19 328.55C238.02 296.22 269.98 290.58 279.43 289.11C320.7 282.73 360.36 285.15 380.44 291.68" stroke="white" stroke-width="2" stroke-miterlimit="10"/>
<path d="M57.25 374.16C104.02 319.7 151.08 287.52 182.89 269.12C235.82 238.55 267.92 234.08 277.38 232.91C318.87 228 358.38 231.74 378.25 238.92" stroke="white" stroke-width="2" stroke-miterlimit="10"/>
<path d="M162.18 231.13C144.08 224.4 120.35 217.28 82.36 217.96C45.41 218.62 3.81004 232.64 -13.96 239.79" stroke="white" stroke-width="2" stroke-miterlimit="10"/>
<path d="M116.92 263.27C107.8 262.42 97.67 262.03 86.33 262.26C47.59 263.08 3.92001 277.28 -14.74 284.51" stroke="white" stroke-width="2" stroke-miterlimit="10"/>
<path d="M204.87 207.32C183.91 197.35 153.19 185.48 107.74 182.32C63.4601 179.24 19.1201 188.99 -2.87988 195.66" stroke="white" stroke-width="2" stroke-miterlimit="10"/>
<path d="M361.57 196.82C342.95 189.71 310.04 180.03 270.09 185.24C250.08 187.88 230.65 193.89 204.26 207.38C174.13 222.7 111.02 258.69 54.4302 322.17L183.66 514.52L402.91 209.72L361.57 196.82Z" stroke="white" stroke-width="2" stroke-miterlimit="10"/>
</g>
<path d="M183.66 366.67C284.386 366.67 366.04 285.016 366.04 184.29C366.04 83.5643 284.386 1.91016 183.66 1.91016C82.9343 1.91016 1.28003 83.5643 1.28003 184.29C1.28003 285.016 82.9343 366.67 183.66 366.67Z" stroke="white" stroke-width="2" stroke-miterlimit="10"/>
</svg>
