<svg width="267" height="289" viewBox="0 0 267 289" fill="none" xmlns="http://www.w3.org/2000/svg">
<path d="M62.0902 80.0601C62.1702 84.2001 59.4902 87.2803 56.6202 87.4903C54.4802 87.6503 52.1502 86.23 51.5702 84.4C50.6902 81.63 53.6602 77.3099 59.7002 74.8599C58.3302 75.3299 52.7902 77.0702 48.7602 74.1602C48.5302 73.9902 45.3602 71.66 45.9602 69.67C46.3802 68.27 48.4402 67.7799 49.3302 67.5699C53.5202 66.5699 57.4002 68.8603 59.0102 69.9503C55.9102 66.1403 55.3402 62.7101 55.2202 60.9801C55.1702 60.3001 54.8902 56.0998 56.4802 55.5098C58.1302 54.8998 60.7202 58.53 60.9702 58.88C62.7802 61.45 63.1402 64.1299 63.2102 65.6099C64.1802 61.3199 66.3203 59.0301 67.4203 58.0401C68.5003 57.0701 70.3803 55.36 71.9103 55.94C73.5903 56.57 73.9802 59.65 73.5902 61.69C73.0602 64.47 70.9702 66.04 70.3602 66.46C71.2102 65.71 73.5303 63.8599 76.8103 63.7999C78.5003 63.7699 81.6902 64.1798 82.1402 65.7598C82.6402 67.4998 79.5602 69.7301 78.0702 70.8101C75.8302 72.4301 73.6503 73.2099 72.1803 73.6099C73.6503 74.0599 76.6902 75.2503 78.4902 78.2403C78.9502 78.9903 80.3402 81.2999 79.4702 82.5899C78.4502 84.1099 74.8702 83.3299 73.0202 82.5899C70.2602 81.4899 68.6702 79.44 67.9702 78.38C68.7202 80.63 69.5302 84.3901 67.9702 88.0601C67.6002 88.9201 66.4802 91.5799 64.8802 91.5699C63.4302 91.5699 62.4102 89.36 62.0802 88.63C60.5402 85.29 61.4702 81.7802 62.0802 80.0802L62.0902 80.0601Z" stroke="white" stroke-linejoin="round"/>
<path d="M196.22 129.21C196.51 143.68 187.15 154.42 177.12 155.16C169.66 155.71 161.51 150.76 159.49 144.39C156.43 134.73 166.78 119.64 187.89 111.09C183.11 112.73 163.77 118.8 149.7 108.64C148.88 108.05 137.84 99.9101 139.91 92.9701C141.37 88.0801 148.58 86.3598 151.66 85.6298C166.28 82.1498 179.82 90.1301 185.45 93.9501C174.63 80.6301 172.65 68.6797 172.23 62.6097C172.07 60.2397 171.06 45.5696 176.64 43.5096C182.39 41.3896 191.46 54.0596 192.31 55.2596C198.62 64.2196 199.87 73.6096 200.14 78.7596C203.52 63.7896 211.01 55.7797 214.83 52.3197C218.59 48.9197 225.17 42.9698 230.5 44.9798C236.37 47.1898 237.73 57.9299 236.38 65.0599C234.54 74.7599 227.22 80.2398 225.12 81.7098C228.08 79.0898 236.18 72.63 247.64 72.41C253.55 72.29 264.66 73.7496 266.25 79.2596C267.99 85.3396 257.24 93.13 252.05 96.89C244.24 102.55 236.61 105.28 231.49 106.68C236.61 108.26 247.22 112.41 253.52 122.84C255.11 125.47 259.98 133.53 256.95 138.02C253.38 143.31 240.9 140.59 234.43 138.02C224.79 134.19 219.25 127.03 216.8 123.33C219.43 131.2 222.23 144.32 216.8 157.12C215.52 160.14 211.59 169.4 206.03 169.36C200.98 169.33 197.42 161.64 196.24 159.08C190.85 147.42 194.12 135.17 196.24 129.21H196.22Z" stroke="white" stroke-linejoin="round"/>
<path d="M140.51 275.71C143.74 272.57 148.42 267.66 153.27 261.06C161.69 249.6 175.89 230.26 173.22 206.76C172.58 201.17 170.48 190.86 161.97 179.27C161.55 190.71 160.07 204.57 156.3 219.93C153.68 230.6 150.44 240.01 147.14 248.08C146.35 240.96 145.22 233.31 143.61 225.23C142.38 219.07 141 213.26 139.54 207.82C140.23 206.54 148.82 189.87 139.77 173.19C132.42 159.65 118.84 156.05 116.57 155.48C120.16 160.54 124.39 167.53 127.83 176.41C130.96 184.5 132.54 191.83 133.35 197.63C126.41 189.74 118.57 181.52 109.74 173.21C104.31 168.1 98.9501 163.38 93.7201 159.02C95.1901 158.53 99.8401 156.79 102.82 151.96C106.16 146.55 105.84 139.78 103.2 135.21C100.64 130.78 98.0401 132.13 92.2201 126.58C85.4501 120.13 86.2702 115.73 80.9202 113.61C77.3202 112.18 73.0101 112.61 69.8701 114.34C65.2901 116.85 66.4602 120.32 61.6602 125.47C55.7502 131.8 50.9601 129.81 47.7401 135.49C45.7601 138.98 45.1202 144.07 47.0402 147.91C48.9002 151.64 51.6701 151.16 54.9601 155.91C57.7701 159.98 56.4702 161.36 58.8102 164.8C61.5902 168.87 67.3502 172.66 74.0102 172.13C81.5202 171.53 85.8101 165.79 86.4701 164.87C100.76 174.65 110.23 185.02 116.01 192.36C124.58 203.23 138.81 221.26 138.68 245.53C138.66 249.95 138.16 253.59 137.74 255.98C134.31 265.54 130.88 275.1 127.45 284.66C128.64 285.3 129.98 285.95 131.46 286.57C132.95 287.19 134.37 287.69 135.67 288.08C137.28 283.97 138.89 279.85 140.51 275.74V275.71Z" stroke="white" stroke-miterlimit="10"/>
<path d="M115.12 84.2002C116.468 84.2002 117.56 83.1073 117.56 81.7598C117.56 80.4122 116.468 79.3198 115.12 79.3198C113.773 79.3198 112.68 80.4122 112.68 81.7598C112.68 83.1073 113.773 84.2002 115.12 84.2002Z" stroke="white" stroke-miterlimit="10"/>
<path d="M31.7202 91.5601C32.2283 91.5601 32.6403 91.1482 32.6403 90.6401C32.6403 90.132 32.2283 89.7202 31.7202 89.7202C31.2121 89.7202 30.8003 90.132 30.8003 90.6401C30.8003 91.1482 31.2121 91.5601 31.7202 91.5601Z" fill="white" stroke="white" stroke-miterlimit="10"/>
<path d="M98.61 114.76C99.1181 114.76 99.53 114.348 99.53 113.84C99.53 113.332 99.1181 112.92 98.61 112.92C98.1019 112.92 97.6899 113.332 97.6899 113.84C97.6899 114.348 98.1019 114.76 98.61 114.76Z" fill="white" stroke="white" stroke-miterlimit="10"/>
<path d="M143.58 140.35C144.088 140.35 144.5 139.938 144.5 139.43C144.5 138.922 144.088 138.51 143.58 138.51C143.072 138.51 142.66 138.922 142.66 139.43C142.66 139.938 143.072 140.35 143.58 140.35Z" fill="white" stroke="white" stroke-miterlimit="10"/>
<path d="M133.25 14.23C136.79 14.23 139.66 11.36 139.66 7.81982C139.66 4.27968 136.79 1.41016 133.25 1.41016C129.71 1.41016 126.84 4.27968 126.84 7.81982C126.84 11.36 129.71 14.23 133.25 14.23Z" stroke="white" stroke-miterlimit="10"/>
<path d="M157.87 65.3501C158.378 65.3501 158.79 64.9383 158.79 64.4302C158.79 63.9221 158.378 63.5098 157.87 63.5098C157.362 63.5098 156.95 63.9221 156.95 64.4302C156.95 64.9383 157.362 65.3501 157.87 65.3501Z" fill="white" stroke="white" stroke-miterlimit="10"/>
<path d="M78.53 29.2002C79.2038 29.2002 79.75 28.6538 79.75 27.98C79.75 27.3062 79.2038 26.7598 78.53 26.7598C77.8562 26.7598 77.3101 27.3062 77.3101 27.98C77.3101 28.6538 77.8562 29.2002 78.53 29.2002Z" stroke="white" stroke-miterlimit="10"/>
<path d="M90.9 193.94C91.4081 193.94 91.8199 193.528 91.8199 193.02C91.8199 192.512 91.4081 192.1 90.9 192.1C90.3919 192.1 89.98 192.512 89.98 193.02C89.98 193.528 90.3919 193.94 90.9 193.94Z" fill="white" stroke="white" stroke-miterlimit="10"/>
<path d="M3.79016 188.02C5.13774 188.02 6.2301 186.928 6.2301 185.58C6.2301 184.233 5.13774 183.14 3.79016 183.14C2.44259 183.14 1.3501 184.233 1.3501 185.58C1.3501 186.928 2.44259 188.02 3.79016 188.02Z" stroke="white" stroke-miterlimit="10"/>
</svg>
