<svg width="67" height="60" viewBox="0 0 67 60" fill="none" xmlns="http://www.w3.org/2000/svg">
<g opacity="0.2">
<path d="M65.8299 19.15C65.9799 19.7 65.97 20.41 65.77 21.39C65.23 24.01 62.39 27.3202 59.38 30.8102C57.73 32.7402 56.0199 34.7202 54.6899 36.6102C52.1599 39.5302 50.9799 43.6402 49.8199 47.6202C48.9899 50.5302 48.19 53.2802 46.91 55.5802C45.91 57.3302 44.76 58.33 43.39 58.64C40.73 59.25 37.6399 57.13 34.0699 54.67L33.73 54.43C31.07 52.61 27.57 50.37 22.37 47.16L21.9399 46.88C17.4199 43.97 11.79 40.3602 7.48996 34.8702C-1.95004 24.1002 -0.120062 11.96 4.08994 7.17002C9.11994 1.99002 15.57 0.600181 28.74 1.83018C42.47 3.14018 54.8799 10.86 59.5799 14.13C61.2199 15.54 62.55 16.34 63.52 16.93C64.76 17.67 65.5599 18.16 65.8299 19.16V19.15ZM46.4599 55.3602C47.7099 53.1002 48.4899 50.3801 49.3199 47.5001C50.4799 43.4701 51.68 39.3002 54.27 36.3102C55.6 34.4202 57.3099 32.4201 58.9699 30.5001C61.9299 27.0501 64.73 23.8102 65.25 21.3002C65.73 18.8402 65.0899 18.4602 63.2199 17.3402C62.2299 16.7402 60.8699 15.9301 59.2199 14.5101C54.5699 11.2901 42.26 3.62017 28.65 2.32017C15.67 1.10017 9.33992 2.46009 4.44992 7.49009C0.369924 12.1601 -1.37002 23.9902 7.87998 34.5602C12.13 39.9902 17.7299 43.5801 22.2199 46.4701L22.65 46.7501C27.85 49.9601 31.36 52.2101 34.02 54.0301L34.36 54.2701C37.83 56.6601 40.82 58.72 43.26 58.17C44.48 57.89 45.5199 56.9802 46.4399 55.3602H46.4599Z" fill="white" stroke="white" stroke-miterlimit="10"/>
<path d="M59.8 22.2599C60.06 23.2299 59.94 24.2199 59.63 25.5099C58.95 27.6899 56.92 29.8498 54.77 32.1298C53.49 33.4798 52.17 34.8798 51.02 36.3898C49.16 38.5598 47.71 40.9399 46.31 43.2299C45.15 45.1099 44.0699 46.8898 42.8499 48.3798L42.8299 48.3998C39.5199 51.6598 37.09 49.86 32.67 46.58L32.6099 46.5399L31.8599 45.9198C27.5699 42.3798 21.68 37.5298 16.38 30.1398C10.55 21.3098 12.1899 14.2498 15.3599 10.8898C18.7399 7.2998 24.3599 6.44988 34.7299 7.96988C41.9899 9.14988 49.0899 12.3599 55.8399 17.5099C58.2799 19.5399 59.43 20.8699 59.8 22.2499V22.2599ZM42.4399 48.08C43.6199 46.61 44.6999 44.8499 45.8399 42.9899C47.2499 40.6799 48.7199 38.29 50.5999 36.09C51.7599 34.57 53.09 33.16 54.38 31.8C56.49 29.56 58.4899 27.4498 59.1199 25.3898C59.8399 22.4598 59.4799 21.2098 55.4899 17.9098C48.8099 12.8298 41.7899 9.65989 34.6199 8.47989C24.4499 6.98989 18.9799 7.7799 15.7199 11.2399C12.4299 14.7299 11.47 21.8498 16.79 29.8798C22.05 37.2098 27.9 42.03 32.18 45.56L32.9699 46.1999C37.4299 49.4899 39.4599 51 42.4399 48.07V48.08Z" fill="white" stroke="white" stroke-miterlimit="10"/>
<path d="M54.8801 24.1597C55.1901 25.3097 55.0501 26.4698 54.5301 27.7898L54.5101 27.8299C51.1901 33.2199 42.34 40.9097 40.6 42.3997L40.5501 42.4297C37.8901 43.9297 35.7601 42.7097 32.7701 39.9197C30.0601 37.2597 26.29 32.9297 23.57 27.3897C21.24 22.2497 21.3601 17.8997 23.8901 15.1397C26.7101 12.0797 32.0301 11.3497 38.5201 13.1597C44.6901 14.6197 49.7301 17.8597 52.3801 20.4097C53.7401 21.7397 54.5501 22.9397 54.8701 24.1597H54.8801ZM54.0601 27.5999C55.0601 25.0799 54.5101 23.2198 52.0201 20.7598C49.4201 18.2598 44.4801 15.0697 38.3901 13.6297C32.1901 11.9097 26.9301 12.5897 24.3001 15.4497C21.9101 18.0497 21.82 22.2197 24.07 27.1697C26.75 32.6397 30.5001 36.9198 33.1701 39.5498C36.0301 42.2198 37.9301 43.3398 40.3001 42.0098C45.2801 37.7398 51.5101 31.7099 54.0601 27.5999Z" fill="white" stroke="white" stroke-miterlimit="10"/>
<path d="M50.5602 25.4099C50.8602 26.5499 50.7501 27.6599 50.2101 28.6399C48.3101 32.1399 43.4001 36.2299 39.6901 37.3899C36.2501 38.3299 31.9501 33.6099 29.4801 26.1799C28.5401 22.9799 29.0201 20.2901 30.8601 18.6001C32.9601 16.6601 36.4902 16.28 40.5502 17.56C45.5002 19.16 49.1601 21.85 50.3301 24.75C50.4201 24.98 50.5002 25.2099 50.5602 25.4199V25.4099ZM39.5602 36.9099C43.1502 35.7899 47.9102 31.8199 49.7702 28.4199C50.3402 27.3799 50.3701 26.1799 49.8701 24.9399C48.7401 22.1699 45.2002 19.58 40.3902 18.03C36.5102 16.81 33.1701 17.1499 31.2201 18.9599C29.5401 20.5199 29.0901 23.02 29.9901 26.03C32.3301 33.08 36.4502 37.7699 39.5602 36.9099Z" fill="white" stroke="white" stroke-miterlimit="10"/>
<path d="M46.5399 26.1003C46.7499 26.9103 46.7099 27.7002 46.3899 28.4302C45.3199 30.9902 42.3298 33.0603 39.7298 33.0503C37.1498 33.0203 34.7898 29.9503 34.3498 26.0603C34.1698 24.3303 34.6998 22.8902 35.8598 21.9802C37.1698 20.9502 39.1298 20.7602 41.2398 21.4502C43.6398 22.2402 45.4799 23.6704 46.2699 25.3704C46.3699 25.6104 46.4599 25.8503 46.5299 26.0903L46.5399 26.1003ZM39.7498 32.5603C42.1098 32.5603 44.9299 30.6003 45.9199 28.2603C46.2699 27.4303 46.2299 26.5103 45.7999 25.5803C45.0799 24.0203 43.3098 22.6502 41.0698 21.9102C39.1398 21.2902 37.3599 21.4503 36.1799 22.3603C35.1599 23.1503 34.6898 24.4402 34.8698 25.9902C35.2598 29.5902 37.4698 32.5403 39.7498 32.5603Z" fill="white" stroke="white" stroke-miterlimit="10"/>
<path d="M42.77 26.7198C42.85 27.0198 42.85 27.3297 42.77 27.6497C42.49 28.7097 41.38 29.4097 40.28 29.1997C39.2 28.9997 38.41 27.8597 38.51 26.6697C38.56 26.0997 38.83 25.6199 39.29 25.3099C39.77 24.9899 40.41 24.9199 41.04 25.0899C41.92 25.3499 42.56 25.9898 42.75 26.7198H42.77ZM39.09 27.3897C39.26 28.0597 39.77 28.5898 40.4 28.7198C41.23 28.8798 42.06 28.3498 42.27 27.5498C42.48 26.7398 41.86 25.8599 40.88 25.5799C40.39 25.4399 39.9399 25.4898 39.5799 25.7298C39.2599 25.9398 39.07 26.2898 39.03 26.7098C39.01 26.9398 39.03 27.1797 39.09 27.3997V27.3897Z" fill="white" stroke="white" stroke-miterlimit="10"/>
</g>
</svg>
